<mxfile host="app.diagrams.net" modified="2021-02-03T15:20:52.072Z" agent="5.0 (Windows NT 10.0; Win64; x64) AppleWebKit/537.36 (KHTML, like Gecko) Chrome/88.0.4324.104 Safari/537.36" etag="vvxYyX7oXSMsVM01w_Lf" version="14.2.9" type="github" pages="3">
  <diagram id="yPS6LLi3uQ_TtKrSCTwf" name="Tokenized_Asset_Donation">
    <mxGraphModel dx="2032" dy="1013" grid="1" gridSize="10" guides="1" tooltips="1" connect="1" arrows="1" fold="1" page="1" pageScale="1" pageWidth="827" pageHeight="1169" math="0" shadow="0">
      <root>
        <mxCell id="S1dnlOND5YFww5NHSA37-0" />
        <mxCell id="S1dnlOND5YFww5NHSA37-1" parent="S1dnlOND5YFww5NHSA37-0" />
        <mxCell id="0TaGFQsInw5iIRvwpaXJ-0" value="&lt;b&gt;Notes:&lt;/b&gt;&lt;br&gt;UML to graph Classes, Interfaces and their relationships" style="html=1;rounded=0;shadow=0;comic=0;labelBackgroundColor=none;strokeWidth=1;fontFamily=Verdana;fontSize=10;align=left;verticalAlign=top;" parent="S1dnlOND5YFww5NHSA37-1" vertex="1">
          <mxGeometry x="40" y="1040" width="1340" height="120" as="geometry" />
        </mxCell>
        <mxCell id="0TaGFQsInw5iIRvwpaXJ-1" value="&lt;p style=&quot;margin: 0px ; margin-top: 4px ; text-align: center&quot;&gt;&lt;i&gt;&amp;lt;&amp;lt;GUI&amp;gt;&amp;gt;&lt;/i&gt;&lt;br&gt;&lt;b&gt;Frontend&lt;/b&gt;&lt;/p&gt;&lt;hr size=&quot;1&quot;&gt;&lt;p style=&quot;margin: 0px ; margin-left: 4px&quot;&gt;+ list attributes here&lt;/p&gt;&lt;hr size=&quot;1&quot;&gt;&lt;p style=&quot;margin: 0px ; margin-left: 4px&quot;&gt;+ list Operations here&lt;/p&gt;" style="verticalAlign=top;align=left;overflow=fill;fontSize=12;fontFamily=Helvetica;html=1;rounded=0;shadow=0;comic=0;labelBackgroundColor=none;strokeWidth=1" parent="S1dnlOND5YFww5NHSA37-1" vertex="1">
          <mxGeometry x="30" y="320" width="220" height="270" as="geometry" />
        </mxCell>
        <mxCell id="KNskxdC3jCzlI2tJaJ8w-1" style="edgeStyle=orthogonalEdgeStyle;rounded=0;orthogonalLoop=1;jettySize=auto;html=1;exitX=0.5;exitY=1;exitDx=0;exitDy=0;entryX=0.5;entryY=0;entryDx=0;entryDy=0;" parent="S1dnlOND5YFww5NHSA37-1" source="0TaGFQsInw5iIRvwpaXJ-11" target="KNskxdC3jCzlI2tJaJ8w-0" edge="1">
          <mxGeometry relative="1" as="geometry" />
        </mxCell>
        <mxCell id="0TaGFQsInw5iIRvwpaXJ-11" value="&lt;p style=&quot;margin: 0px ; margin-top: 4px ; text-align: center&quot;&gt;&lt;i&gt;&amp;lt;&amp;lt;Interface&amp;gt;&amp;gt;&lt;/i&gt;&lt;br&gt;&lt;b&gt;IERC20&lt;/b&gt;&lt;/p&gt;&lt;hr size=&quot;1&quot;&gt;&lt;p style=&quot;margin: 0px ; margin-left: 4px&quot;&gt;&lt;br&gt;&lt;/p&gt;&lt;hr size=&quot;1&quot;&gt;&lt;p style=&quot;margin: 0px ; margin-left: 4px&quot;&gt;External:&amp;nbsp;&amp;nbsp;&amp;nbsp;&amp;nbsp;&lt;/p&gt;&lt;p style=&quot;margin: 0px ; margin-left: 4px&quot;&gt;&amp;nbsp; totalSupply(): uint256&amp;nbsp;&amp;nbsp;&amp;nbsp;&amp;nbsp;&lt;br&gt;&amp;nbsp; balanceOf(account: address): uint256&amp;nbsp;&amp;nbsp;&amp;nbsp;&amp;nbsp;&lt;br&gt;&amp;nbsp; transfer(recipient: address, amount: uint256): bool&amp;nbsp;&amp;nbsp;&amp;nbsp;&amp;nbsp;&lt;br&gt;&amp;nbsp; allowance(owner: address, spender: address): uint256&amp;nbsp;&amp;nbsp;&amp;nbsp;&amp;nbsp;&lt;br&gt;&amp;nbsp; approve(spender: address, amount: uint256): bool&amp;nbsp;&amp;nbsp;&amp;nbsp;&amp;nbsp;&lt;br&gt;&amp;nbsp; transferFrom(sender: address, recipient: address, amount: uint256): bool&lt;/p&gt;&lt;p style=&quot;margin: 0px ; margin-left: 4px&quot;&gt;&lt;br&gt;&lt;/p&gt;&lt;p style=&quot;margin: 0px ; margin-left: 4px&quot;&gt;Public:&amp;nbsp;&amp;nbsp;&amp;nbsp;&lt;/p&gt;&lt;p style=&quot;margin: 0px ; margin-left: 4px&quot;&gt;&amp;nbsp; &amp;nbsp;&amp;lt;&amp;lt;event&amp;gt;&amp;gt; Transfer(from: address, to: address, value: uint256)&amp;nbsp;&amp;nbsp;&amp;nbsp;&lt;/p&gt;&lt;p style=&quot;margin: 0px ; margin-left: 4px&quot;&gt;&amp;nbsp; &amp;lt;&amp;lt;event&amp;gt;&amp;gt; Approval(owner: address, spender: address, value: uint256)&lt;br&gt;&lt;/p&gt;" style="verticalAlign=top;align=left;overflow=fill;fontSize=12;fontFamily=Helvetica;html=1;rounded=0;shadow=0;comic=0;labelBackgroundColor=none;strokeWidth=1" parent="S1dnlOND5YFww5NHSA37-1" vertex="1">
          <mxGeometry x="440" y="40" width="430" height="230" as="geometry" />
        </mxCell>
        <mxCell id="tK20t-JT0xfsGOc5u_tf-0" style="edgeStyle=orthogonalEdgeStyle;rounded=0;orthogonalLoop=1;jettySize=auto;html=1;exitX=0;exitY=0.5;exitDx=0;exitDy=0;entryX=1;entryY=0.5;entryDx=0;entryDy=0;" parent="S1dnlOND5YFww5NHSA37-1" source="KNskxdC3jCzlI2tJaJ8w-0" target="0TaGFQsInw5iIRvwpaXJ-1" edge="1">
          <mxGeometry relative="1" as="geometry" />
        </mxCell>
        <mxCell id="KNskxdC3jCzlI2tJaJ8w-0" value="&lt;p style=&quot;margin: 0px ; margin-top: 4px ; text-align: center&quot;&gt;&lt;b&gt;Lend&lt;/b&gt;&lt;/p&gt;&lt;hr size=&quot;1&quot;&gt;&lt;p style=&quot;margin: 0px ; margin-left: 4px&quot;&gt;&lt;br&gt;&lt;/p&gt;&lt;hr size=&quot;1&quot;&gt;&lt;p style=&quot;margin: 0px ; margin-left: 4px&quot;&gt;External:&amp;nbsp;&amp;nbsp;&amp;nbsp;&amp;nbsp;&lt;/p&gt;&lt;p style=&quot;margin: 0px ; margin-left: 4px&quot;&gt;&amp;nbsp; deposit(_interest: unit)&lt;br&gt;&amp;nbsp; withdraw(_beneficiary: address, _amount: uint, _all: bool)&amp;nbsp;&lt;br&gt;&amp;nbsp; adjust_giving_rate(_percent_interest: uint)&lt;/p&gt;&lt;p style=&quot;margin: 0px ; margin-left: 4px&quot;&gt;&amp;nbsp; balanceOf(_account: address)&amp;nbsp;&amp;nbsp;&lt;/p&gt;&lt;p style=&quot;margin: 0px ; margin-left: 4px&quot;&gt;&amp;nbsp;&lt;/p&gt;&lt;p style=&quot;margin: 0px ; margin-left: 4px&quot;&gt;Internal:&lt;/p&gt;&lt;p style=&quot;margin: 0px ; margin-left: 4px&quot;&gt;&amp;nbsp; track_liquidity(_spedner: address)&lt;br&gt;&amp;nbsp;&amp;nbsp;&lt;span&gt;deposit_aave(_spender: address, _amount: uint)&lt;br&gt;&amp;nbsp; interest_earned()&lt;br&gt;&amp;nbsp; give()&lt;br&gt;&amp;nbsp;&lt;/span&gt;&lt;/p&gt;&lt;p style=&quot;margin: 0px ; margin-left: 4px&quot;&gt;Public:&amp;nbsp;&amp;nbsp;&amp;nbsp;&lt;/p&gt;&lt;p style=&quot;margin: 0px ; margin-left: 4px&quot;&gt;&amp;nbsp;&lt;/p&gt;" style="verticalAlign=top;align=left;overflow=fill;fontSize=12;fontFamily=Helvetica;html=1;rounded=0;shadow=0;comic=0;labelBackgroundColor=none;strokeWidth=1" parent="S1dnlOND5YFww5NHSA37-1" vertex="1">
          <mxGeometry x="440" y="320" width="430" height="270" as="geometry" />
        </mxCell>
        <mxCell id="KNskxdC3jCzlI2tJaJ8w-2" value="&lt;p style=&quot;margin: 0px ; margin-top: 4px ; text-align: center&quot;&gt;&lt;i&gt;&amp;lt;&amp;lt;Interface&amp;gt;&amp;gt;&lt;/i&gt;&lt;br&gt;&lt;b&gt;PriceConsumerV3&lt;/b&gt;&lt;/p&gt;&lt;hr size=&quot;1&quot;&gt;&lt;p style=&quot;margin: 0px ; margin-left: 4px&quot;&gt;&lt;br&gt;&lt;/p&gt;&lt;hr size=&quot;1&quot;&gt;&lt;p style=&quot;margin: 0px ; margin-left: 4px&quot;&gt;External:&amp;nbsp;&amp;nbsp;&amp;nbsp;&amp;nbsp;&lt;/p&gt;&lt;p style=&quot;margin: 0px ; margin-left: 4px&quot;&gt;&amp;nbsp;&amp;nbsp;&lt;/p&gt;&lt;p style=&quot;margin: 0px ; margin-left: 4px&quot;&gt;&lt;br&gt;&lt;/p&gt;&lt;p style=&quot;margin: 0px ; margin-left: 4px&quot;&gt;Public:&amp;nbsp;&amp;nbsp;&amp;nbsp;&lt;/p&gt;&lt;p style=&quot;margin: 0px ; margin-left: 4px&quot;&gt;&amp;nbsp; &amp;nbsp;&amp;lt;&amp;lt;event&amp;gt;&amp;gt; getLatestPrice(roundID: uint80, price: int, startedAt: uint, timeStamp: uint)&lt;/p&gt;&lt;p style=&quot;margin: 0px ; margin-left: 4px&quot;&gt;&lt;br&gt;&lt;/p&gt;&lt;p style=&quot;margin: 0px ; margin-left: 4px&quot;&gt;&lt;br&gt;&lt;/p&gt;" style="verticalAlign=top;align=left;overflow=fill;fontSize=12;fontFamily=Helvetica;html=1;rounded=0;shadow=0;comic=0;labelBackgroundColor=none;strokeWidth=1" parent="S1dnlOND5YFww5NHSA37-1" vertex="1">
          <mxGeometry x="910" y="620" width="470" height="230" as="geometry" />
        </mxCell>
        <mxCell id="KNskxdC3jCzlI2tJaJ8w-3" value="&lt;p style=&quot;margin: 0px ; margin-top: 4px ; text-align: center&quot;&gt;&lt;i&gt;&amp;lt;&amp;lt;Interface&amp;gt;&amp;gt;&lt;/i&gt;&lt;br&gt;&lt;b&gt;Token&lt;/b&gt;&lt;/p&gt;&lt;p style=&quot;margin: 0px ; margin-left: 4px&quot;&gt;&lt;br&gt;&lt;/p&gt;&lt;hr size=&quot;1&quot;&gt;&lt;p style=&quot;margin: 0px ; margin-left: 4px&quot;&gt;&lt;span&gt;External:&lt;/span&gt;&lt;/p&gt;&lt;p style=&quot;margin: 0px ; margin-left: 4px&quot;&gt;&amp;nbsp; transfer(to: address, amout: uint256)&lt;/p&gt;&lt;p style=&quot;margin: 0px ; margin-left: 4px&quot;&gt;&amp;nbsp; balanceOf(account: address)&lt;/p&gt;&lt;p style=&quot;margin: 0px ; margin-left: 4px&quot;&gt;&lt;span&gt;&lt;br&gt;&lt;/span&gt;&lt;/p&gt;&lt;p style=&quot;margin: 0px ; margin-left: 4px&quot;&gt;&lt;span&gt;Private:&lt;/span&gt;&lt;/p&gt;&lt;p style=&quot;margin: 0px ; margin-left: 4px&quot;&gt;&lt;span&gt;&amp;nbsp;&lt;/span&gt;&lt;br&gt;&lt;/p&gt;&lt;p style=&quot;margin: 0px ; margin-left: 4px&quot;&gt;&lt;br&gt;&lt;/p&gt;&lt;p style=&quot;margin: 0px ; margin-left: 4px&quot;&gt;Public:&amp;nbsp; &amp;nbsp;&lt;br&gt;&amp;nbsp; constructor(token: IERC20, balances, owner)&lt;/p&gt;&lt;p style=&quot;margin: 0px ; margin-left: 4px&quot;&gt;&lt;br&gt;&lt;/p&gt;" style="verticalAlign=top;align=left;overflow=fill;fontSize=12;fontFamily=Helvetica;html=1;rounded=0;shadow=0;comic=0;labelBackgroundColor=none;strokeWidth=1" parent="S1dnlOND5YFww5NHSA37-1" vertex="1">
          <mxGeometry x="440" y="620" width="430" height="230" as="geometry" />
        </mxCell>
        <mxCell id="tK20t-JT0xfsGOc5u_tf-1" value="&lt;p style=&quot;margin: 0px ; margin-top: 4px ; text-align: center&quot;&gt;&lt;i&gt;&amp;lt;&amp;lt;Interface&amp;gt;&amp;gt;&lt;/i&gt;&lt;br&gt;&lt;b&gt;DataTypes&lt;/b&gt;&lt;/p&gt;&lt;hr size=&quot;1&quot;&gt;&lt;p style=&quot;margin: 0px ; margin-left: 4px&quot;&gt;&lt;br&gt;&lt;/p&gt;&lt;hr size=&quot;1&quot;&gt;&lt;p style=&quot;margin: 0px ; margin-left: 4px&quot;&gt;&lt;br&gt;&lt;/p&gt;" style="verticalAlign=top;align=left;overflow=fill;fontSize=12;fontFamily=Helvetica;html=1;rounded=0;shadow=0;comic=0;labelBackgroundColor=none;strokeWidth=1" parent="S1dnlOND5YFww5NHSA37-1" vertex="1">
          <mxGeometry x="910" y="40" width="470" height="80" as="geometry" />
        </mxCell>
        <mxCell id="tK20t-JT0xfsGOc5u_tf-7" style="edgeStyle=orthogonalEdgeStyle;rounded=0;orthogonalLoop=1;jettySize=auto;html=1;exitX=0;exitY=0.5;exitDx=0;exitDy=0;" parent="S1dnlOND5YFww5NHSA37-1" source="tK20t-JT0xfsGOc5u_tf-2" edge="1">
          <mxGeometry relative="1" as="geometry">
            <mxPoint x="871" y="350" as="targetPoint" />
            <Array as="points">
              <mxPoint x="890" y="170" />
              <mxPoint x="890" y="350" />
              <mxPoint x="871" y="350" />
            </Array>
          </mxGeometry>
        </mxCell>
        <mxCell id="tK20t-JT0xfsGOc5u_tf-2" value="&lt;p style=&quot;margin: 0px ; margin-top: 4px ; text-align: center&quot;&gt;&lt;i&gt;&amp;lt;&amp;lt;Interface&amp;gt;&amp;gt;&lt;/i&gt;&lt;br&gt;&lt;b&gt;IAToken&lt;/b&gt;&lt;/p&gt;&lt;hr size=&quot;1&quot;&gt;&lt;p style=&quot;margin: 0px ; margin-left: 4px&quot;&gt;&lt;br&gt;&lt;/p&gt;&lt;hr size=&quot;1&quot;&gt;&lt;p style=&quot;margin: 0px ; margin-left: 4px&quot;&gt;&lt;br&gt;&lt;/p&gt;" style="verticalAlign=top;align=left;overflow=fill;fontSize=12;fontFamily=Helvetica;html=1;rounded=0;shadow=0;comic=0;labelBackgroundColor=none;strokeWidth=1" parent="S1dnlOND5YFww5NHSA37-1" vertex="1">
          <mxGeometry x="910" y="130" width="470" height="80" as="geometry" />
        </mxCell>
        <mxCell id="tK20t-JT0xfsGOc5u_tf-8" style="edgeStyle=orthogonalEdgeStyle;rounded=0;orthogonalLoop=1;jettySize=auto;html=1;exitX=0;exitY=0.5;exitDx=0;exitDy=0;" parent="S1dnlOND5YFww5NHSA37-1" source="tK20t-JT0xfsGOc5u_tf-3" edge="1">
          <mxGeometry relative="1" as="geometry">
            <mxPoint x="870" y="370" as="targetPoint" />
            <Array as="points">
              <mxPoint x="900" y="260" />
              <mxPoint x="900" y="370" />
            </Array>
          </mxGeometry>
        </mxCell>
        <mxCell id="tK20t-JT0xfsGOc5u_tf-3" value="&lt;p style=&quot;margin: 0px ; margin-top: 4px ; text-align: center&quot;&gt;&lt;i&gt;&amp;lt;&amp;lt;Interface&amp;gt;&amp;gt;&lt;/i&gt;&lt;br&gt;&lt;b&gt;IlendingPool&lt;/b&gt;&lt;/p&gt;&lt;hr size=&quot;1&quot;&gt;&lt;p style=&quot;margin: 0px ; margin-left: 4px&quot;&gt;&lt;br&gt;&lt;/p&gt;&lt;hr size=&quot;1&quot;&gt;&lt;p style=&quot;margin: 0px ; margin-left: 4px&quot;&gt;&lt;br&gt;&lt;/p&gt;" style="verticalAlign=top;align=left;overflow=fill;fontSize=12;fontFamily=Helvetica;html=1;rounded=0;shadow=0;comic=0;labelBackgroundColor=none;strokeWidth=1" parent="S1dnlOND5YFww5NHSA37-1" vertex="1">
          <mxGeometry x="910" y="220" width="470" height="80" as="geometry" />
        </mxCell>
        <mxCell id="tK20t-JT0xfsGOc5u_tf-10" style="edgeStyle=orthogonalEdgeStyle;rounded=0;orthogonalLoop=1;jettySize=auto;html=1;exitX=0;exitY=0.5;exitDx=0;exitDy=0;entryX=1;entryY=0.25;entryDx=0;entryDy=0;" parent="S1dnlOND5YFww5NHSA37-1" source="tK20t-JT0xfsGOc5u_tf-4" target="KNskxdC3jCzlI2tJaJ8w-0" edge="1">
          <mxGeometry relative="1" as="geometry">
            <Array as="points">
              <mxPoint x="910" y="387" />
            </Array>
          </mxGeometry>
        </mxCell>
        <mxCell id="tK20t-JT0xfsGOc5u_tf-4" value="&lt;p style=&quot;margin: 0px ; margin-top: 4px ; text-align: center&quot;&gt;&lt;i&gt;&amp;lt;&amp;lt;Interface&amp;gt;&amp;gt;&lt;/i&gt;&lt;br&gt;&lt;b&gt;IlendingPoolAddressProvider&lt;/b&gt;&lt;/p&gt;&lt;hr size=&quot;1&quot;&gt;&lt;p style=&quot;margin: 0px ; margin-left: 4px&quot;&gt;&lt;br&gt;&lt;/p&gt;&lt;hr size=&quot;1&quot;&gt;&lt;p style=&quot;margin: 0px ; margin-left: 4px&quot;&gt;&lt;br&gt;&lt;/p&gt;" style="verticalAlign=top;align=left;overflow=fill;fontSize=12;fontFamily=Helvetica;html=1;rounded=0;shadow=0;comic=0;labelBackgroundColor=none;strokeWidth=1" parent="S1dnlOND5YFww5NHSA37-1" vertex="1">
          <mxGeometry x="910" y="310" width="470" height="80" as="geometry" />
        </mxCell>
        <mxCell id="tK20t-JT0xfsGOc5u_tf-5" value="&lt;p style=&quot;margin: 0px ; margin-top: 4px ; text-align: center&quot;&gt;&lt;i&gt;&amp;lt;&amp;lt;Interface&amp;gt;&amp;gt;&lt;/i&gt;&lt;br&gt;&lt;b&gt;IScaledBalanceToken&lt;/b&gt;&lt;/p&gt;&lt;hr size=&quot;1&quot;&gt;&lt;p style=&quot;margin: 0px ; margin-left: 4px&quot;&gt;&lt;br&gt;&lt;/p&gt;&lt;hr size=&quot;1&quot;&gt;&lt;p style=&quot;margin: 0px ; margin-left: 4px&quot;&gt;&lt;br&gt;&lt;/p&gt;" style="verticalAlign=top;align=left;overflow=fill;fontSize=12;fontFamily=Helvetica;html=1;rounded=0;shadow=0;comic=0;labelBackgroundColor=none;strokeWidth=1" parent="S1dnlOND5YFww5NHSA37-1" vertex="1">
          <mxGeometry x="910" y="400" width="470" height="80" as="geometry" />
        </mxCell>
        <mxCell id="tK20t-JT0xfsGOc5u_tf-9" style="edgeStyle=orthogonalEdgeStyle;rounded=0;orthogonalLoop=1;jettySize=auto;html=1;exitX=0;exitY=0.5;exitDx=0;exitDy=0;entryX=0.999;entryY=0.387;entryDx=0;entryDy=0;entryPerimeter=0;" parent="S1dnlOND5YFww5NHSA37-1" source="tK20t-JT0xfsGOc5u_tf-6" target="KNskxdC3jCzlI2tJaJ8w-0" edge="1">
          <mxGeometry relative="1" as="geometry" />
        </mxCell>
        <mxCell id="tK20t-JT0xfsGOc5u_tf-6" value="&lt;p style=&quot;margin: 0px ; margin-top: 4px ; text-align: center&quot;&gt;&lt;i&gt;&amp;lt;&amp;lt;Interface&amp;gt;&amp;gt;&lt;/i&gt;&lt;br&gt;&lt;b&gt;IWETHGateway&amp;nbsp;&lt;/b&gt;&lt;/p&gt;&lt;hr size=&quot;1&quot;&gt;&lt;p style=&quot;margin: 0px ; margin-left: 4px&quot;&gt;&lt;br&gt;&lt;/p&gt;&lt;hr size=&quot;1&quot;&gt;&lt;p style=&quot;margin: 0px ; margin-left: 4px&quot;&gt;&lt;br&gt;&lt;/p&gt;" style="verticalAlign=top;align=left;overflow=fill;fontSize=12;fontFamily=Helvetica;html=1;rounded=0;shadow=0;comic=0;labelBackgroundColor=none;strokeWidth=1" parent="S1dnlOND5YFww5NHSA37-1" vertex="1">
          <mxGeometry x="910" y="490" width="470" height="80" as="geometry" />
        </mxCell>
        <mxCell id="tK20t-JT0xfsGOc5u_tf-12" style="edgeStyle=orthogonalEdgeStyle;rounded=0;orthogonalLoop=1;jettySize=auto;html=1;exitX=0.5;exitY=0;exitDx=0;exitDy=0;entryX=0.5;entryY=1;entryDx=0;entryDy=0;" parent="S1dnlOND5YFww5NHSA37-1" source="tK20t-JT0xfsGOc5u_tf-11" target="KNskxdC3jCzlI2tJaJ8w-3" edge="1">
          <mxGeometry relative="1" as="geometry" />
        </mxCell>
        <mxCell id="tK20t-JT0xfsGOc5u_tf-11" value="&lt;p style=&quot;margin: 0px ; margin-top: 4px ; text-align: center&quot;&gt;&lt;i&gt;&amp;lt;&amp;lt;Interface&amp;gt;&amp;gt;&lt;/i&gt;&lt;br&gt;&lt;b&gt;hardhad/console&lt;/b&gt;&lt;/p&gt;&lt;hr size=&quot;1&quot;&gt;&lt;p style=&quot;margin: 0px ; margin-left: 4px&quot;&gt;&lt;br&gt;&lt;/p&gt;&lt;hr size=&quot;1&quot;&gt;&lt;p style=&quot;margin: 0px ; margin-left: 4px&quot;&gt;&lt;br&gt;&lt;/p&gt;" style="verticalAlign=top;align=left;overflow=fill;fontSize=12;fontFamily=Helvetica;html=1;rounded=0;shadow=0;comic=0;labelBackgroundColor=none;strokeWidth=1" parent="S1dnlOND5YFww5NHSA37-1" vertex="1">
          <mxGeometry x="440" y="880" width="430" height="80" as="geometry" />
        </mxCell>
        <mxCell id="tK20t-JT0xfsGOc5u_tf-13" value="" style="shape=image;verticalLabelPosition=bottom;labelBackgroundColor=#ffffff;verticalAlign=top;aspect=fixed;imageAspect=0;image=data:image/svg+xml,PHN2ZyB4bWxucz0iaHR0cDovL3d3dy53My5vcmcvMjAwMC9zdmciIGRhdGEtbmFtZT0iR3JvdXAgMjcwMjEiIHZpZXdCb3g9IjAgMCAyNCAyNCIgd2lkdGg9IjI0IiBoZWlnaHQ9IjI0Ij48ZGVmcz48bGluZWFyR3JhZGllbnQgaWQ9ImEiIHgxPSIuOTA3IiB4Mj0iLjE2MyIgeTE9Ii4yMjciIHkyPSIuODUzIiBncmFkaWVudFVuaXRzPSJvYmplY3RCb3VuZGluZ0JveCI+PHN0b3Agb2Zmc2V0PSIwIiBzdG9wLWNvbG9yPSIjYjY1MDllIi8+PHN0b3Agb2Zmc2V0PSIxIiBzdG9wLWNvbG9yPSIjMmViYWM2Ii8+PC9saW5lYXJHcmFkaWVudD48L2RlZnM+PGNpcmNsZSBjeD0iMTIiIGN5PSIxMiIgcj0iMTIiIGZpbGw9InVybCgjYSkiIGRhdGEtbmFtZT0iRWxsaXBzZSA5OTEiLz48cGF0aCBmaWxsPSIjZmZmIiBkPSJNMTcuMjUxIDE2Ljc4bC00LjA1OS05LjgwOWExLjA5MSAxLjA5MSAwIDAwLTEuMDE3LS43NTVoLS4zNTlhMS4wOTEgMS4wOTEgMCAwMC0xLjAxNy43NTVsLTEuNzY2IDQuMjc0SDcuNjk3YS43MzEuNzMxIDAgMDAtLjcyOC43MjV2LjAxYS43MzEuNzMxIDAgMDAuNzI4LjcyNWguNzE4TDYuNzMgMTYuNzhhLjg2Ljg2IDAgMDAtLjA1LjI3OC43NjcuNzY3IDAgMDAuMi41NDcuNy43IDAgMDAuNTM5LjIwOS43MjkuNzI5IDAgMDAuNDE5LS4xMzkuODg1Ljg4NSAwIDAwLjI4OS0uMzY4bDEuODUzLTQuNjAxaDEuMjg3YS43MzEuNzMxIDAgMDAuNzI4LS43MjV2LS4wMmEuNzMxLjczMSAwIDAwLS43MjgtLjcyNWgtLjY4N2wxLjQxNS0zLjUyOSAzLjg1OSA5LjZhLjg4NS44ODUgMCAwMC4yODkuMzY4LjcyOS43MjkgMCAwMC40MTkuMTM5LjcuNyAwIDAwLjUzOS0uMjA5Ljc2Ny43NjcgMCAwMC4yLS41NDcuNjU3LjY1NyAwIDAwLS4wNS0uMjc4eiIgZGF0YS1uYW1lPSJQYXRoIDI0MzQiLz48L3N2Zz4=;" parent="S1dnlOND5YFww5NHSA37-1" vertex="1">
          <mxGeometry x="1350" y="50" width="24" height="24" as="geometry" />
        </mxCell>
        <mxCell id="tK20t-JT0xfsGOc5u_tf-14" value="" style="shape=image;verticalLabelPosition=bottom;labelBackgroundColor=#ffffff;verticalAlign=top;aspect=fixed;imageAspect=0;image=data:image/svg+xml,PHN2ZyB4bWxucz0iaHR0cDovL3d3dy53My5vcmcvMjAwMC9zdmciIGRhdGEtbmFtZT0iR3JvdXAgMjcwMjEiIHZpZXdCb3g9IjAgMCAyNCAyNCIgd2lkdGg9IjI0IiBoZWlnaHQ9IjI0Ij48ZGVmcz48bGluZWFyR3JhZGllbnQgaWQ9ImEiIHgxPSIuOTA3IiB4Mj0iLjE2MyIgeTE9Ii4yMjciIHkyPSIuODUzIiBncmFkaWVudFVuaXRzPSJvYmplY3RCb3VuZGluZ0JveCI+PHN0b3Agb2Zmc2V0PSIwIiBzdG9wLWNvbG9yPSIjYjY1MDllIi8+PHN0b3Agb2Zmc2V0PSIxIiBzdG9wLWNvbG9yPSIjMmViYWM2Ii8+PC9saW5lYXJHcmFkaWVudD48L2RlZnM+PGNpcmNsZSBjeD0iMTIiIGN5PSIxMiIgcj0iMTIiIGZpbGw9InVybCgjYSkiIGRhdGEtbmFtZT0iRWxsaXBzZSA5OTEiLz48cGF0aCBmaWxsPSIjZmZmIiBkPSJNMTcuMjUxIDE2Ljc4bC00LjA1OS05LjgwOWExLjA5MSAxLjA5MSAwIDAwLTEuMDE3LS43NTVoLS4zNTlhMS4wOTEgMS4wOTEgMCAwMC0xLjAxNy43NTVsLTEuNzY2IDQuMjc0SDcuNjk3YS43MzEuNzMxIDAgMDAtLjcyOC43MjV2LjAxYS43MzEuNzMxIDAgMDAuNzI4LjcyNWguNzE4TDYuNzMgMTYuNzhhLjg2Ljg2IDAgMDAtLjA1LjI3OC43NjcuNzY3IDAgMDAuMi41NDcuNy43IDAgMDAuNTM5LjIwOS43MjkuNzI5IDAgMDAuNDE5LS4xMzkuODg1Ljg4NSAwIDAwLjI4OS0uMzY4bDEuODUzLTQuNjAxaDEuMjg3YS43MzEuNzMxIDAgMDAuNzI4LS43MjV2LS4wMmEuNzMxLjczMSAwIDAwLS43MjgtLjcyNWgtLjY4N2wxLjQxNS0zLjUyOSAzLjg1OSA5LjZhLjg4NS44ODUgMCAwMC4yODkuMzY4LjcyOS43MjkgMCAwMC40MTkuMTM5LjcuNyAwIDAwLjUzOS0uMjA5Ljc2Ny43NjcgMCAwMC4yLS41NDcuNjU3LjY1NyAwIDAwLS4wNS0uMjc4eiIgZGF0YS1uYW1lPSJQYXRoIDI0MzQiLz48L3N2Zz4=;" parent="S1dnlOND5YFww5NHSA37-1" vertex="1">
          <mxGeometry x="1350" y="140" width="24" height="24" as="geometry" />
        </mxCell>
        <mxCell id="tK20t-JT0xfsGOc5u_tf-15" value="" style="shape=image;verticalLabelPosition=bottom;labelBackgroundColor=#ffffff;verticalAlign=top;aspect=fixed;imageAspect=0;image=data:image/svg+xml,PHN2ZyB4bWxucz0iaHR0cDovL3d3dy53My5vcmcvMjAwMC9zdmciIGRhdGEtbmFtZT0iR3JvdXAgMjcwMjEiIHZpZXdCb3g9IjAgMCAyNCAyNCIgd2lkdGg9IjI0IiBoZWlnaHQ9IjI0Ij48ZGVmcz48bGluZWFyR3JhZGllbnQgaWQ9ImEiIHgxPSIuOTA3IiB4Mj0iLjE2MyIgeTE9Ii4yMjciIHkyPSIuODUzIiBncmFkaWVudFVuaXRzPSJvYmplY3RCb3VuZGluZ0JveCI+PHN0b3Agb2Zmc2V0PSIwIiBzdG9wLWNvbG9yPSIjYjY1MDllIi8+PHN0b3Agb2Zmc2V0PSIxIiBzdG9wLWNvbG9yPSIjMmViYWM2Ii8+PC9saW5lYXJHcmFkaWVudD48L2RlZnM+PGNpcmNsZSBjeD0iMTIiIGN5PSIxMiIgcj0iMTIiIGZpbGw9InVybCgjYSkiIGRhdGEtbmFtZT0iRWxsaXBzZSA5OTEiLz48cGF0aCBmaWxsPSIjZmZmIiBkPSJNMTcuMjUxIDE2Ljc4bC00LjA1OS05LjgwOWExLjA5MSAxLjA5MSAwIDAwLTEuMDE3LS43NTVoLS4zNTlhMS4wOTEgMS4wOTEgMCAwMC0xLjAxNy43NTVsLTEuNzY2IDQuMjc0SDcuNjk3YS43MzEuNzMxIDAgMDAtLjcyOC43MjV2LjAxYS43MzEuNzMxIDAgMDAuNzI4LjcyNWguNzE4TDYuNzMgMTYuNzhhLjg2Ljg2IDAgMDAtLjA1LjI3OC43NjcuNzY3IDAgMDAuMi41NDcuNy43IDAgMDAuNTM5LjIwOS43MjkuNzI5IDAgMDAuNDE5LS4xMzkuODg1Ljg4NSAwIDAwLjI4OS0uMzY4bDEuODUzLTQuNjAxaDEuMjg3YS43MzEuNzMxIDAgMDAuNzI4LS43MjV2LS4wMmEuNzMxLjczMSAwIDAwLS43MjgtLjcyNWgtLjY4N2wxLjQxNS0zLjUyOSAzLjg1OSA5LjZhLjg4NS44ODUgMCAwMC4yODkuMzY4LjcyOS43MjkgMCAwMC40MTkuMTM5LjcuNyAwIDAwLjUzOS0uMjA5Ljc2Ny43NjcgMCAwMC4yLS41NDcuNjU3LjY1NyAwIDAwLS4wNS0uMjc4eiIgZGF0YS1uYW1lPSJQYXRoIDI0MzQiLz48L3N2Zz4=;" parent="S1dnlOND5YFww5NHSA37-1" vertex="1">
          <mxGeometry x="827" y="50" width="24" height="24" as="geometry" />
        </mxCell>
        <mxCell id="tK20t-JT0xfsGOc5u_tf-16" value="" style="shape=image;verticalLabelPosition=bottom;labelBackgroundColor=#ffffff;verticalAlign=top;aspect=fixed;imageAspect=0;image=data:image/svg+xml,PHN2ZyB4bWxucz0iaHR0cDovL3d3dy53My5vcmcvMjAwMC9zdmciIGRhdGEtbmFtZT0iR3JvdXAgMjcwMjEiIHZpZXdCb3g9IjAgMCAyNCAyNCIgd2lkdGg9IjI0IiBoZWlnaHQ9IjI0Ij48ZGVmcz48bGluZWFyR3JhZGllbnQgaWQ9ImEiIHgxPSIuOTA3IiB4Mj0iLjE2MyIgeTE9Ii4yMjciIHkyPSIuODUzIiBncmFkaWVudFVuaXRzPSJvYmplY3RCb3VuZGluZ0JveCI+PHN0b3Agb2Zmc2V0PSIwIiBzdG9wLWNvbG9yPSIjYjY1MDllIi8+PHN0b3Agb2Zmc2V0PSIxIiBzdG9wLWNvbG9yPSIjMmViYWM2Ii8+PC9saW5lYXJHcmFkaWVudD48L2RlZnM+PGNpcmNsZSBjeD0iMTIiIGN5PSIxMiIgcj0iMTIiIGZpbGw9InVybCgjYSkiIGRhdGEtbmFtZT0iRWxsaXBzZSA5OTEiLz48cGF0aCBmaWxsPSIjZmZmIiBkPSJNMTcuMjUxIDE2Ljc4bC00LjA1OS05LjgwOWExLjA5MSAxLjA5MSAwIDAwLTEuMDE3LS43NTVoLS4zNTlhMS4wOTEgMS4wOTEgMCAwMC0xLjAxNy43NTVsLTEuNzY2IDQuMjc0SDcuNjk3YS43MzEuNzMxIDAgMDAtLjcyOC43MjV2LjAxYS43MzEuNzMxIDAgMDAuNzI4LjcyNWguNzE4TDYuNzMgMTYuNzhhLjg2Ljg2IDAgMDAtLjA1LjI3OC43NjcuNzY3IDAgMDAuMi41NDcuNy43IDAgMDAuNTM5LjIwOS43MjkuNzI5IDAgMDAuNDE5LS4xMzkuODg1Ljg4NSAwIDAwLjI4OS0uMzY4bDEuODUzLTQuNjAxaDEuMjg3YS43MzEuNzMxIDAgMDAuNzI4LS43MjV2LS4wMmEuNzMxLjczMSAwIDAwLS43MjgtLjcyNWgtLjY4N2wxLjQxNS0zLjUyOSAzLjg1OSA5LjZhLjg4NS44ODUgMCAwMC4yODkuMzY4LjcyOS43MjkgMCAwMC40MTkuMTM5LjcuNyAwIDAwLjUzOS0uMjA5Ljc2Ny43NjcgMCAwMC4yLS41NDcuNjU3LjY1NyAwIDAwLS4wNS0uMjc4eiIgZGF0YS1uYW1lPSJQYXRoIDI0MzQiLz48L3N2Zz4=;" parent="S1dnlOND5YFww5NHSA37-1" vertex="1">
          <mxGeometry x="1350" y="230" width="24" height="24" as="geometry" />
        </mxCell>
        <mxCell id="tK20t-JT0xfsGOc5u_tf-17" value="" style="shape=image;verticalLabelPosition=bottom;labelBackgroundColor=#ffffff;verticalAlign=top;aspect=fixed;imageAspect=0;image=data:image/svg+xml,PHN2ZyB4bWxucz0iaHR0cDovL3d3dy53My5vcmcvMjAwMC9zdmciIGRhdGEtbmFtZT0iR3JvdXAgMjcwMjEiIHZpZXdCb3g9IjAgMCAyNCAyNCIgd2lkdGg9IjI0IiBoZWlnaHQ9IjI0Ij48ZGVmcz48bGluZWFyR3JhZGllbnQgaWQ9ImEiIHgxPSIuOTA3IiB4Mj0iLjE2MyIgeTE9Ii4yMjciIHkyPSIuODUzIiBncmFkaWVudFVuaXRzPSJvYmplY3RCb3VuZGluZ0JveCI+PHN0b3Agb2Zmc2V0PSIwIiBzdG9wLWNvbG9yPSIjYjY1MDllIi8+PHN0b3Agb2Zmc2V0PSIxIiBzdG9wLWNvbG9yPSIjMmViYWM2Ii8+PC9saW5lYXJHcmFkaWVudD48L2RlZnM+PGNpcmNsZSBjeD0iMTIiIGN5PSIxMiIgcj0iMTIiIGZpbGw9InVybCgjYSkiIGRhdGEtbmFtZT0iRWxsaXBzZSA5OTEiLz48cGF0aCBmaWxsPSIjZmZmIiBkPSJNMTcuMjUxIDE2Ljc4bC00LjA1OS05LjgwOWExLjA5MSAxLjA5MSAwIDAwLTEuMDE3LS43NTVoLS4zNTlhMS4wOTEgMS4wOTEgMCAwMC0xLjAxNy43NTVsLTEuNzY2IDQuMjc0SDcuNjk3YS43MzEuNzMxIDAgMDAtLjcyOC43MjV2LjAxYS43MzEuNzMxIDAgMDAuNzI4LjcyNWguNzE4TDYuNzMgMTYuNzhhLjg2Ljg2IDAgMDAtLjA1LjI3OC43NjcuNzY3IDAgMDAuMi41NDcuNy43IDAgMDAuNTM5LjIwOS43MjkuNzI5IDAgMDAuNDE5LS4xMzkuODg1Ljg4NSAwIDAwLjI4OS0uMzY4bDEuODUzLTQuNjAxaDEuMjg3YS43MzEuNzMxIDAgMDAuNzI4LS43MjV2LS4wMmEuNzMxLjczMSAwIDAwLS43MjgtLjcyNWgtLjY4N2wxLjQxNS0zLjUyOSAzLjg1OSA5LjZhLjg4NS44ODUgMCAwMC4yODkuMzY4LjcyOS43MjkgMCAwMC40MTkuMTM5LjcuNyAwIDAwLjUzOS0uMjA5Ljc2Ny43NjcgMCAwMC4yLS41NDcuNjU3LjY1NyAwIDAwLS4wNS0uMjc4eiIgZGF0YS1uYW1lPSJQYXRoIDI0MzQiLz48L3N2Zz4=;" parent="S1dnlOND5YFww5NHSA37-1" vertex="1">
          <mxGeometry x="1350" y="320" width="24" height="24" as="geometry" />
        </mxCell>
        <mxCell id="tK20t-JT0xfsGOc5u_tf-18" value="" style="shape=image;verticalLabelPosition=bottom;labelBackgroundColor=#ffffff;verticalAlign=top;aspect=fixed;imageAspect=0;image=data:image/svg+xml,PHN2ZyB4bWxucz0iaHR0cDovL3d3dy53My5vcmcvMjAwMC9zdmciIGRhdGEtbmFtZT0iR3JvdXAgMjcwMjEiIHZpZXdCb3g9IjAgMCAyNCAyNCIgd2lkdGg9IjI0IiBoZWlnaHQ9IjI0Ij48ZGVmcz48bGluZWFyR3JhZGllbnQgaWQ9ImEiIHgxPSIuOTA3IiB4Mj0iLjE2MyIgeTE9Ii4yMjciIHkyPSIuODUzIiBncmFkaWVudFVuaXRzPSJvYmplY3RCb3VuZGluZ0JveCI+PHN0b3Agb2Zmc2V0PSIwIiBzdG9wLWNvbG9yPSIjYjY1MDllIi8+PHN0b3Agb2Zmc2V0PSIxIiBzdG9wLWNvbG9yPSIjMmViYWM2Ii8+PC9saW5lYXJHcmFkaWVudD48L2RlZnM+PGNpcmNsZSBjeD0iMTIiIGN5PSIxMiIgcj0iMTIiIGZpbGw9InVybCgjYSkiIGRhdGEtbmFtZT0iRWxsaXBzZSA5OTEiLz48cGF0aCBmaWxsPSIjZmZmIiBkPSJNMTcuMjUxIDE2Ljc4bC00LjA1OS05LjgwOWExLjA5MSAxLjA5MSAwIDAwLTEuMDE3LS43NTVoLS4zNTlhMS4wOTEgMS4wOTEgMCAwMC0xLjAxNy43NTVsLTEuNzY2IDQuMjc0SDcuNjk3YS43MzEuNzMxIDAgMDAtLjcyOC43MjV2LjAxYS43MzEuNzMxIDAgMDAuNzI4LjcyNWguNzE4TDYuNzMgMTYuNzhhLjg2Ljg2IDAgMDAtLjA1LjI3OC43NjcuNzY3IDAgMDAuMi41NDcuNy43IDAgMDAuNTM5LjIwOS43MjkuNzI5IDAgMDAuNDE5LS4xMzkuODg1Ljg4NSAwIDAwLjI4OS0uMzY4bDEuODUzLTQuNjAxaDEuMjg3YS43MzEuNzMxIDAgMDAuNzI4LS43MjV2LS4wMmEuNzMxLjczMSAwIDAwLS43MjgtLjcyNWgtLjY4N2wxLjQxNS0zLjUyOSAzLjg1OSA5LjZhLjg4NS44ODUgMCAwMC4yODkuMzY4LjcyOS43MjkgMCAwMC40MTkuMTM5LjcuNyAwIDAwLjUzOS0uMjA5Ljc2Ny43NjcgMCAwMC4yLS41NDcuNjU3LjY1NyAwIDAwLS4wNS0uMjc4eiIgZGF0YS1uYW1lPSJQYXRoIDI0MzQiLz48L3N2Zz4=;" parent="S1dnlOND5YFww5NHSA37-1" vertex="1">
          <mxGeometry x="1350" y="410" width="24" height="24" as="geometry" />
        </mxCell>
        <mxCell id="tK20t-JT0xfsGOc5u_tf-19" value="" style="shape=image;verticalLabelPosition=bottom;labelBackgroundColor=#ffffff;verticalAlign=top;aspect=fixed;imageAspect=0;image=data:image/svg+xml,PHN2ZyB4bWxucz0iaHR0cDovL3d3dy53My5vcmcvMjAwMC9zdmciIGRhdGEtbmFtZT0iR3JvdXAgMjcwMjEiIHZpZXdCb3g9IjAgMCAyNCAyNCIgd2lkdGg9IjI0IiBoZWlnaHQ9IjI0Ij48ZGVmcz48bGluZWFyR3JhZGllbnQgaWQ9ImEiIHgxPSIuOTA3IiB4Mj0iLjE2MyIgeTE9Ii4yMjciIHkyPSIuODUzIiBncmFkaWVudFVuaXRzPSJvYmplY3RCb3VuZGluZ0JveCI+PHN0b3Agb2Zmc2V0PSIwIiBzdG9wLWNvbG9yPSIjYjY1MDllIi8+PHN0b3Agb2Zmc2V0PSIxIiBzdG9wLWNvbG9yPSIjMmViYWM2Ii8+PC9saW5lYXJHcmFkaWVudD48L2RlZnM+PGNpcmNsZSBjeD0iMTIiIGN5PSIxMiIgcj0iMTIiIGZpbGw9InVybCgjYSkiIGRhdGEtbmFtZT0iRWxsaXBzZSA5OTEiLz48cGF0aCBmaWxsPSIjZmZmIiBkPSJNMTcuMjUxIDE2Ljc4bC00LjA1OS05LjgwOWExLjA5MSAxLjA5MSAwIDAwLTEuMDE3LS43NTVoLS4zNTlhMS4wOTEgMS4wOTEgMCAwMC0xLjAxNy43NTVsLTEuNzY2IDQuMjc0SDcuNjk3YS43MzEuNzMxIDAgMDAtLjcyOC43MjV2LjAxYS43MzEuNzMxIDAgMDAuNzI4LjcyNWguNzE4TDYuNzMgMTYuNzhhLjg2Ljg2IDAgMDAtLjA1LjI3OC43NjcuNzY3IDAgMDAuMi41NDcuNy43IDAgMDAuNTM5LjIwOS43MjkuNzI5IDAgMDAuNDE5LS4xMzkuODg1Ljg4NSAwIDAwLjI4OS0uMzY4bDEuODUzLTQuNjAxaDEuMjg3YS43MzEuNzMxIDAgMDAuNzI4LS43MjV2LS4wMmEuNzMxLjczMSAwIDAwLS43MjgtLjcyNWgtLjY4N2wxLjQxNS0zLjUyOSAzLjg1OSA5LjZhLjg4NS44ODUgMCAwMC4yODkuMzY4LjcyOS43MjkgMCAwMC40MTkuMTM5LjcuNyAwIDAwLjUzOS0uMjA5Ljc2Ny43NjcgMCAwMC4yLS41NDcuNjU3LjY1NyAwIDAwLS4wNS0uMjc4eiIgZGF0YS1uYW1lPSJQYXRoIDI0MzQiLz48L3N2Zz4=;" parent="S1dnlOND5YFww5NHSA37-1" vertex="1">
          <mxGeometry x="1350" y="500" width="24" height="24" as="geometry" />
        </mxCell>
        <mxCell id="2YNoS57xQ_pAkxKoMdUr-0" value="" style="shape=image;verticalLabelPosition=bottom;labelBackgroundColor=#ffffff;verticalAlign=top;aspect=fixed;imageAspect=0;image=data:image/png,iVBORw0KGgoAAAANSUhEUgAAAfQAAAEsCAYAAAA1u0HIAAAgAElEQVR4Xuy9Z5Bt2XkdtvY+6cbO3S+HyQGYjAFAgiBoBNEURYK0WaQly6FcZbH8R6yyyz/8x3/kctkll8v0D1Iql4u2ZNBVJlgyJZiZkEQicDCDMJg88ya81N2vc/eNJ+y9Xevb5743IIczPW9e7LfPoNHh3XvuOeuce9f+0lrKOecQtoBAQCAgEBAICAQEbmsEVCD02/r6hYMPCAQEAgIBgYCAIBAIPdwIAYGAQEAgIBAQOAAIBEI/ABcxnEJAICAQEAgIBAQCoYd7ICAQEAgIBAQCAgcAgUDoB+AihlMICAQEAgIBgYBAIPRwDwQEAgIBgYBAQOAAIBAI/QBcxHAKAYGAQEAgIBAQCIQe7oGAQEAgIBAQCAgcAAQCoR+AixhOISAQEAgIBAQCAoHQwz0QEAgIBAQCAgGBA4BAIPQDcBHDKQQEAgIBgYBAQCAQergHAgIBgYBAQCAgcAAQCIR+AC5iOIWAQEAgIBAQCAgEQg/3QEAgIBAQCAgEBA4AAoHQD8BFDKcQEAgIBAQCAgGBQOjhHggIBAQCAgGBgMABQCAQ+gG4iOEUAgIBgYBAQCAgEAg93AMBgYBAQCAgEBA4AAgEQj8AFzGcQkAgIBAQCAgEBAKhh3sgIBAQCAgEBAICBwCBQOgH4CKGUwgIBAQCAgGBgEAg9HAPBAQCAgGBgEBA4AAgEAj9AFzEcAoBgYBAQCAgEBAIhB7ugYBAQCAgEBAICBwABAKhH4CLGE4hIBAQCAgEBAICgdDDPRAQCAgEBAICAYEDgEAg9ANwEcMpBAQCAgGBgEBAIBB6uAcCAgGBgEBAICBwABAIhH4ALmI4hYBAQCAgEBAICARCD/dAQCAgEBAICAQEDgACgdAPwEUMpxAQCAgEBAICAYFA6OEeCAgEBAICAYGAwAFAIBD6AbiI4RQCAgGBgEBAICAQCD3cAwGBgEBAICAQEDgACARCPwAXMZxCQCAgEBAICAQEAqGHeyAgEBAICFxPBJwDlLqerxD2HRAQBAKhhxshIBAQCAgEBAICBwCBQOgH4CKGUwgIBAQCAgGBgEAg9HAPBAQCAgGBWxkBZwFl4ZyFUhrA5OtWPuhwbDcDgUDoNwP18JoBgYBAQGA/CNgKDgVro3Akc345BaXjmtj3s5PwmDsFgUDod8qVDucZEAgI3FYI2CoHXA6lDKASIXMFBQcFqAhADBWa7W6ra3q9DzYQ+vVGOOw/IBAQCAh8SAScKeHMAEAFrSM4ErgjmTsAEZSOhOSVEHvYAgIegUDo4U4ICAQEAgK3EALOlnDVAM4VUjNXWktU7qzlRzaUiqE0yTwBJPUetoBAIPRwDwQEAgIBgVsKAYnMJ2SutU+pK8CYCgzOFTRU7MlcqSwQ+i119W7+wYQI/eZfg3AEAYGAQEAAsBVM2YNCKQ1vKtJwtoIlyTtAKy2NcSpihN6A1hmgQoQebp0rCARCD3dDQCAgEBC4yQiQuF3VB2zuO9k1u9ktrMnhjPHjalEEzRS7SqGjJqBTScGHLSAwQSAQergXAgIBgYDATUTAWQNb7gFSM2fDm5KZc2cKWFvVdXNARwlUlEp07lTqa+hhCwi8C4FA6OF2CAgEBAICNwkBIfNiF3CldK6rSIH5dY6sXSFzBR2xOY6E3oBDBhWi85t0xW7tlw2Efmtfn3B0AYGAwNUgIIYoTsix7iaTb5KiVoyA+Y2Kazdpo1CMHcNWa3BVARVNQccJSPCXI3MeoyaZk+hTQJHIG34mPaTab9KFu7VfNhD6rX19wtEFBAIC+0aAY10WsBRicV4q9V3PlRlu5wl9Ip96WUr1mgu0WKmBiwiMbP4nGT+rKthqHSgvAW4D1mpE6SGoeFFG0xiZU0CGxymReUQCbwBRQ0bW/LGHLSDw1xEIhB7uioBAQOD2RsAZQDrDjXSFC6mTuH1s7slRFNZI8P5nP8/N+e5aF72WVeVY2EexOvWLiPJdZM7X4vFIegDOKQxWzyKOn0es21CNJcCR4HdgMYW4cdJfi5rMoRNoRuVsggPJPDTB3d436/U9+kDo1xffsPeAQEDgOiIg4ituDOdIokYYnCTtJVJrbqyJfXIYnhInxO1FWy5H7Kxji/ra1RA70+gjqYfDcYY8kkUEj4iRt3C6rbB15hl0lzaRNu+TzvV8NALsACjWoVpPIc6m6jQ75V7rNDvJ/GaWCK7jNQy7vnYIBEK/dliGPQUEAgI3EAHnxoAbAJaEbgDDNHUqI1+S3qZLWR2jS0Su2XBG0mfyvTY6IflfllXlz4zYKas6kVfdb3rbAXYEWw2gVVwbqfhjkMa3ilE6I/EBds6+jNljOZLmvXL8GxdXUZVDzC5UMOYkmnMPA+xo100omTUPNfMbeFvd1i8VCP22vnzh4AMCdyoCnM/egWNkyxluwy7wVk3mXvHch+u15Si5nCItlE+lWxkbzUCNdCbZSe6exJkSF610/i7R+j4iY4bebgRX9eCk245NbBSFcV7hjdG5LT3hmxK91UuYPuIQxw2Ychdby1uIM4funIMZdNFY+gwQ81zYABeLOlzYAgL7QSAQ+n5QCo8JCAQEbhkEHB3I7LYQOslceuB0F4hSOMeGskkN3fmonH+xJUxRescySYVP6uiRpLc1hVzk7xR0qSP0muQ5LvY3pruFzMew5a4n7rrnjpKthg1uhk16BWCHcmx8jXJYIevmiGyB4eYKirxA3ATac0A1mEU6/xmouANHeddQM79l7rvb4UACod8OVykcY0AgIOARcDmc3YEtN6Bk7MtBRSTzJhTH1OBT3JI6rzvX+XtZMKKXOTA/712bnpDMo5rMGZlL/V2I3Ufw9B2n05liDZuP+6sbibrahTXMCvD12aDnO9zFS4VNem7oI3TuW8cohwNAOyTZGLYYY3f5PDpzLbRmuyiLOSSzn/K182veeR9uooOOQCD0g36Fw/kFBA4KAiRzsylftuwBJFHVhY5bEomT0KVuzpS6zJp7gi3GuY+UFevoJGcvrRqRzGM2wPHxTL/76FzU2qQOTstS6qaTzBml/xWrUjeCzTfhbD3bjuqy9rpffJRQbuhLAk5DJ16qlT+X228jnpmVZYNSBbQewaV3Q0UnoOKpg3LFwnncYAQCod9gwMPLBQQCAh8eAWcLOLsFZTZg8j0RY0HUgo7bNSG/i8RFB53kblDlYxgSv1eS8WSvPZFHkZZ0+6QJTmrfYNf7JOXO+jmJnHKrk7R7PTbGRrxqW5rdJM3OzICrYKjwZgxgSyiMoJWR9D4XBT5rEMsCQCkLlGvQjSbg6JzmYKMEUePJetb8w2MUnhEQCIQe7oGAQEDglkaANXOwZl6tw5LMy9ynxBM6jk261evmMZkt9wRbjMcwFVPg5HIHK45lvl7u1deudLWLg9kkxS5pd2+CohRnwKnSVkfn0jTHVDkb8rwSnSNp0ymt4qKjAsRQZQita/9ykjkzA5Ky92NyNFmRrIIbAVkHQBsqPgLFLv2wBQSuEoFA6FcJXHhaQCAgcAMQcAWc2YArl2HLHZicqXYrNWhFwhS/cNabY6ioDa2odR6hqipUpR9Rk0m0elSNymskdOliZwq+Tq/72jqjaBIvx8S8brp0moPROV+Ho2lD2HIbrjRepkaT1A2MYQMcu+3HnqRrbXapm0tGnq/n6/qymFAxdMLa/4wctwMXD0E05gbcUQf6JQKhH+jLG04uIHC7IsDmtl3AnIctzsOOViTVbstcImkrKXQfjfvRNCXkqxXHvTowrgkoWoxSac1LrpLIY6mZa5F7kTo5h9ZqIvez5zF0xNnvBlTMxQE7zdkkN4YrL8CMe3Ccd8dEkW4g9Xlrm56USfCo5HjoXy6LBi8t48lcR9BxCpVMQcWzvqEPISq/Xe/SW+24A6HfalckHE9A4I5HgNahq7DF83D526jyHbgRU+YzUHraq7Ax6paudgMlzWgDGDMU73DpfHck5A4Q101zaQtRQnLnYoCNaQybI0nBTyJzSavrFFHSBqIMCok0xsn8evkCbO8SoBehoxhOW5iqh7z3NvP4iNkFb1pQySxUNuMXGFxoMK1OQud6g2SepNBseiOZa46mpWE07Y6/368dAIHQrx2WYU8BgYDANUDAVqtA+W9h8/MwoxzVsAUVn0bUnIeKLHRUwtncN5aRKFUOV62hqoao+9Hgygp2XMFVEaK0gTibhW4vwnHgWwjdp91Z2/bNcIycM6iYjXa1QpsmmTtU/TNw5bNw7mFE7Q6UGcii4NK5t0X5rdHWmJph5r0CqiacOiTH6jefPWD9XMUpdEJXtTk43QmiMdfgXgm7+FEEAqGHOyIgEBC4ZRBgM5kd/wFg3oLJCxQ7bcTdxxE1OoDrQbm+F2iRCjZT2g6mWIcpthBFFUAL0ij2pmusc+cWbsiO8wQqnYJKF6Aac6ICNxlXk3p2nMn4m2Z0rlnPjqXuXuV9FBvfgo43EXU/Ca0pThOhKnOsvPG6NL41uzGmZlkbNyJyg2oOKjkKFydSX9eM0oXMu1DxHKA6wc/8lrnjDtaBBEI/WNcznE1A4LZFgAYr1fBZxMW3UZkcVS8FsseRdGZk9lxxDl302WvPMeUwHvSwu7aK0WCMJHXSkE6CbXVjRGnsx9Uqg7JXweyVQqq6sYho6oiPzjl3HiXQaQdR0vEd7dLIpmFNH/nmFgZr30fnUIEofQg663qjFTNC3r+A8bBCMRghbSZoz/hsgIpPAoohO8VkLHTMBQP3PSv1faX9PHrYAgLXGoFA6Nca0bC/gEBA4CoQqGCLVZi934cyW7DOothbQHb4k4BZF1U4r8RWW6Aqhd72DjYuriAfDYUg2fBmSaBa4fjdMdImiVTDUHCmcjB9A7NdQqct6OYxScEzciaRk9BJ5qypy9AbMwXVENXYYeOlH2Du7jHiJIVqfAzguFuxDet2MeoXyPMKylhEKsfU0rR0rjvHzntmBWb9rDxr/xHT7GyyC9rsV3GDhKfsA4FA6PsAKTwkIBAQuH4IeOvTDYyXf4g0fQ5lLvQMU55CsnAaqtqobVHrbnaaklqL9eVl7K6soNltIGkkyEcFphe7MKXFzEwFnXBGnLPeTuTZZWx85FBuFoiSacRTJ6C7x6DTro/SmWbnZseoSo6eUQSmwOZb78BWa1i4T8PmKaLGo4DbFLOV4U4fxe4urLJozyygMduWerwQd9yR1LuKpuB0q54xD5H59buTwp4DoYd7ICAQELiJCNCNbAM238D2D7+F6VPLMEVT7ENtcRjp/ClvfMJEOJvgKJ3KrnNnsL2+jt2VS4jTEjOHmthZLzAzn6A7xdlxjo7FsBwvk5E2lr4V1WLh+gpVzyJpH0Ky8AgiptElamazHI1W6OBG57UcShuUY4Pzz76EzslFLJ4qgdwAmkTNTviR7JNRN6VkldNybIgqqMZp6OjQlVn2kGa/iffZnfHSgdDvjOsczjIgcMshwMhcWeqyr6Ma7mDr2Wcw+8gQMFNwUQGTLyCbvRfO9Op5bgdjvSqbeIyXvn7e3x5IOp4l8awRYfZQF3EaIeKcOgVoSO5awcpsOBXg5uDcktit6rgBnXntdNbFmWqHJbGXQETiTmHKGJvnVrF15jymjx3HkUcfAcwKXLkD5biPlqTh+TyqyEH3gIyEfw8UZ+FBwZoQmd9yN+ABPKBA6AfwooZTCgjc8gi4AtZsiza7LXYx3trBxg9exqEnShFz0bGFGaaIZz/mO8slMqfYDO1SqZteAtUmjM0x6pUY7vREQ91VBhU00ixFe7qF9kzMxnc4+SvlVhtQjbuhstNePpbWppLy537HtSObERU62pfaKvJOai7B1lvnke/2cfiJz6AcbSJrNRAlOVSUQ8nMOdcdVJVrQiWHoBid/1VDl1v+woQDvJ0RCIR+O1+9cOwBgdsSgRww27DlJly5C1OMMdoeYeP5M5i+e4TOopYUNuvkdB+LGrNwFJGhaAzlVZm6pm2p2RTddOqwO8dRMof+NuVhK+k2Hw+HYsIyf7SDrFmPqXHGPDsJlZySyBlmD9bu1Sl2TqoxRU+D9RjWsDmO0rFNaE0lOHqZF14jfrQDbYZIGxZZK0WcNbz3ehwDrbtl/yL3GraAwA1EIBD6DQQ7vFRA4E5HgHVpZ2i0QjLviZQrbIxibLD6zPcQtUocecSbmCAu4UYJotZpuCgTMvdarxRh6wHVtkTW7Gq39ECPEpRjYLDVQ3dpAcO9LYw2d5G0mpg/MSvuauxqZ8e5Tg7BugZMcQFOl9BYrL3MS7FRdZWSJjpoisx0oTS71ik0w5S/rhcXfURuhCgufNo9m4fKWDOf9c5qYQsI3GAEAqHfYMDDywUE7lQEnCsAuwtbbcMVJHOmu701qTUFLnz7L1HlBebv02gvkHxpQ1rAjDhmdgLQ7DqnOpyDMntwZhdaauQa/b0RTF4iyhoY7WwjbTTgtEK1twunEyycPo441VC1MYpDA861YMtVuIS1dabH2XQXwVouEDyZaz0laXrJp8tiQiGiopzsh93sIgoPUEM+mnSy36lXOJz3zUYgEPrNvgLh9QMCdwIC7Px2fdhqB67sC5kzTS5Rb13D3njldexdXEbS1Tj0QIqoVcGpEpZz3lRfax6GilIZJVOGqnF1s5zS6G/tId/bgWVYbVmHp3Z6jIhja0mGmROnpZbuzVKk5R3OtlCVKzRrgwIJPYVzsRC6J+cOtM7eZQBTG6vQClWMYbzPOU1h2GAn3ulhCwjcRAQCod9E8MNLBwTuDAQ4KzaGq/bgKpL5WMic5Crk7FgXtxjv9rD83R/AwqE1q7BwbwydMgXOUTGaoUwhbh4XcxRUW96mVDrRWG9XKEcjlP09GEb+FbvNEyTtWaTTc9LARo90fnkB+A6s0TDFK1DtKWh1Cs6motEOIeeub3CTjaN1nKRjNsHrv1OBTke+Ac6xCU4sV8MWELi5CARCv7n4h1cPCBx4BGQ8TZTXGKGPJG3OONmBKXUarZDCGcFbrL/6OnaXV+G0QftQC0v3LAJ6DQ4joLBA1UKUHRFydWbvMkFzf0aa5owQbTWmspxCOjUtkboWZzZfgKf0qkMXptiAc29ANU9A45RE2CRn5zreC52b8fKtnGEXm1VxTqPlKp3ZmrVgTCDzA38T3yYnGAj9NrlQ4TADArclAtRSp1hLNYCrOOfNurkwpYygkdZt/Z2z5OVwiLPPPoeqKKAj1tJnsPDAYUTRMpQaSbrc5QW0nYVqHIWOlO9UN2NpjIsYvUttmyNq7JZXkh6XBQRJXTfgoimg2IUtXgRaVIgjmR/1Dmia0XomfuvO0NSFXe5OvNQ9mzvpqpfRNOqzUxUubAGBWwSBQOjX+UIwNSeSEvyAYO9M6H69zojfKbvnbDS7vp30ZFHp7PK9xRQ2a9YSAZM4OYYltt0SpUqdWb7HKEYVss6MeIVfj03mxqshlM3hqMfOsTPn58k9s1s5ByF4R+GYEttnz2HjzBmfGlcWrbk5HHrgJLJ24aVcWf8u14BxTzrWVbLkCdyNxcBFnhaRwlnrlpjc+47H05Jqx/giTPUy0CIxd6FwHE7TUGUKWhrgvBUqyZw40qaV6nHWDhElGjpqA8k0NOfUxaiFUnFsuEv84kGlvhQQtoDADUYgEPoNBjy8XEDgIyFAtzGpOZNopMVa+HBC5qRGEpEnSgqwmDotTd70TmXSn0YL0NwibrYRSbfY9dmcKSQyp3+5NSR1vwjxBM7jYQTPxQfjcyu662U+xqVXXsNgfbV+jEVjegpLD34MrfkleazWfVi3AjNa9sTuKPKyABXPQyVTQvqSFqcxC73PYWCZYq/egWoY6GwacF1Y1wI0I/RDXnSGATdJusaNUT+YXXBUozOI2M2etqVZTvIMNGCXLEDka/tcWIi4TIjcr88dFfb6fggEQg/3R0DgdkHAsp6bS2rZk4hvCGMs6mmcoan8iz8jIUofAZMs/Z/4AAqx0BI88enj67Qx4nYVR9VI5PyiOhwJ3RP5FV9zHgBJtF6E2ArDvV2svvgyitFAjp/CLXOn7sbc3fdCR7Q9HcPZHUAV8qUwAKj5bsZQIg1bd6BLY7uFjRSiNAOSNlS04OVlbQ+W0bZ6WIRjOM8u2QzBymcRHMmcHfX0NKd2O53TJM1uvTKdZEh8el9HbJqjNWqd9r9OuIbdBgT+JgQCoYd7IyBwyyPAeu4QcCRzEiIjT0/mUezJWWrLQl61KItEvpzZFhoHHUQk1c5/Z3MXv66zvrj3DS9hK5Ivib2sSbyOyplBqMnTE7wTQlWuhDElxju72Hz7HPJBDzpOsHD3Q5g6egL53gaKcQ+N7hTiRiZErGILHZFcqdvOhQGJuZDzdEihiBmJ2MVQFdPnF4HGFFT8CQDTgoXMuMtig0RdAmUfzg29RGykESVtgOYrtoAzfoEkC6pJuj0ipozcGaGHlPst/7Y6gAcYCP0AXtRwSgcIAZJetQcoNpQxiuXIlJ+xZnQt/t2XU+9s4Mo84ZMoJd0s+XWf5uZj6xnqG4EQCdJWJZyk2qmXzo52fq8j9Mtpd6baeYiTqJ1jYt6ApRwX2F1ek8XIzLG7hHR3z78s6fv2/BIibUX3PWlmiLOmSL5KNK1iSbmztMAFgrLErwdltoFoCNc+BJ09DeCIZDTov05pOBlrsxWqYluMVjiOJoukOKWfWl02IOFzweCJXvMxHFujZapuhnT7jbi5wmu8JwKB0MONERC4VREQI5I9aDWUiNVUVCtjVE7zEkaDjMpJWNIrLsIoVEmZzEn7WnqtZHYTrDtJ0LYqakU4NsN5ExSm2uWIpeFsUrP2jXpC+EKqbOSrMwqOmupczDj015YxXL+ARncGaauBYu8ClBsiigzSLEGcJoip/JawnJAgorGLG/kInK+VZbBteqA/Bh2d9I139SbHW1Kadk+yISxNyIKJ+uzSXMgFyaT2z0UV0/q8FhyDm5A5SxgfwllNFjd1JkV6HurROulirLMtvpv2Vr1Lw3HdQggEQr+FLkY4lIDAZXLh/LPbBVwPrqpQVUwJk2MSxDHJgwplsY++xfObimYNqePeShsjdFuWsHWE7jvyqORWp7dJonXEzoa4SV3dr0NYl9Z+gWJKVMVQ0u9mPEScpKhG2zDDVWiMESVOeDeKVP2dyQgHJ/rtHai4CZdNwWVLUCmNU47+tYkTKQ+UO35RQaLmWABJlSTO5j7na+bchMwlxc56eeI13/fbDFc3BRILH+n79L1MxclPddc8FyHi0+7LBWFC5la6s2/NYwmEfmtel3BUdzACTFHD7sA5KqtVMDQKsUpGyzhnzchTGq9kI/m0AFDdzKuY3UqbrSpfR5dmOB+di1Upv0tN3zftkdRJ6P53jtjpOspWcGUBW/n+ATafycpGavNDmHwXmhrxKBCpChE11mOSnwEYpcdsgmOtPINLFoHoSF3nfjdKHEsbiSwtX1yMWCQ6ZqmCx1/4RceEzCXNXi+omBUBtd1ZO//gKNp3+TPSZzMfBXb8XILffKOjNNqxQc83RfjOeanLX78GxlvpngnHcvUIBEK/euzCMwMC1xQBif6kG3wbzu75yJaj5FZJRCrSo1Izp8E3o3IyXxewTUkL34oR3JU6uheSIZlZUYWrZ+Sd9WQuSPrvXJRw8cJudkb2phj6ZjlpQCPncj90V+NTmL73aXDhPolox0BkhcSVY2d6Chtx0bNA7bi6kc0PyjljMN78OrT9ChJXoMx+AWn7MwDFZyTFzsUHj9dfamYMPJkzS8JUO8mfC6wPaIKT2fuibg7MAc19ejKXDEQ9qTCZWBBCF5VaGaqvZWhDs901fcMdwJ0FQj+AFzWc0m2IgCiTjQC3I3VzVxkvZWoZaKbS5T0hDiEvfuCjK5G5pH4lorw1N0bnhs1xjNZrsZsr6WYv+epn6UleWurg0r0vz2MzWyXuZrrWfieJM7oVOdc6uJ08l+5soEwsCd2mQMTIvAutZuDo7MYj4GibqLrmyJ//nxEtrsPGn0c2/xRGa38JRM+hefi/AkAZ2CtkTm91IXOO/Ymjy2RM7f0jc0nVcxa/6gPswlc8fp52nQUQaVpOLfjxw8mXrCHk/5h54WKO1q8hSr817/Jb46gCod8a1yEcxZ2MgJA5xUu2gaovRG4qbyISxRqRKJCRROp6Lmu7ag5KtaCTW6tm/l6XUaJ0Q8W4uqlMGst87fjK3LeSiDxiN3nM0LuCyUeSZuffJTCXOrzPTBACLmykzi09Y4xoSZZsZiN5spktg0oozzrnR8lQwo77MJxLNxVe+u3fwANf6iNOHkUyRT/0HBWj6KqBfO0ZtO4iqTMNziC5JnOJxt9N5u9/48osO93lKjrDcYyO517rAXDUUARw/DWW3jc5GabdfQr+Shqer0u1OxL7B6f27+S305187oHQ7+SrH8795iMg4is9OOxIBEciN5WRkauI6V1pvGI3u/bpWhmPWhC7TiVp9tvkw91a6dS3ZQUj9fRJytkKkUUktoT2pPQ8r2BKqsvRaIXjZwqG7mnO1PK1k/T6hPPqcTOm2jGALRXolaqzDuAWZBIA1QjFaFvg4wJj7c1Xce5r/wKP/2dNpPGXoLI2dJRj9eUz6C72oEcbGE//DKbnHpdjYtpbM8WuOBZHcv1gdT0h83wLttoFdAkdO+nWtxUJuxYFkhl2lhg4Fld7wTmvKXAljc+onI13mW96vF2u+c1/d91xRxAI/Y675OGEbxUEJEotd5CPzwD9byCO3oSLM1T6C0iSu7zyGCNPjqVxljpqwGFOZp0VG75ulRPZ53FIlM6vkjPmleigMzolP3H0S6ccD7Ooij5cRQL0pYSJKI00kEk0Xo921Q5q8jvH08Sa1QCxhk5bcG5eFkC2GMDkm0DEBjcHk/ew9tabuPDdF/D03xtD67+D2O2hHL2JzTc28M6FPh7/fIT8rRzTT/8PV5oQuYiSTvZ9pL2dgR2tw1b+dcEmPer7cCoPFLtRMhLHrDgoGNUAACAASURBVEss/QLcp0/B89+kBMFInn8Vsxim2zOvdhe2gMDfgEAg9HBrBAT2jQDHqiae2hMVNvHTvNLUJJ1aH0y17GSvVn4Pg80/QmPxc0jaR6BVB3a8hIvv/Dc4/uCjMPEvQUs3ewFENBGZBaKGjxhvw40Ezi4/T+xskmOkzbJCLB3t/N0UVJWrJO0upjMiF0tpV+q3151p0onuAfCNgOxQ5yLAiEocR/tUvADrEriSnfBbgGKEX6IcU/3NYrBX4OK3v4cnfvlhmIGDcpdQocRLX38RDz51Aphehz5rkD3+30PHrToyJ5nuo1fBFDDjTdhiDSrOJc1OYRz6rzsbiee6N46JkGRMo3NxxvQ7O/jrVLvk5flLDOsysXWlaI4n/rAFBN4bgUDo4c4ICLwPApcNRDjrLWniiaGIr9vSZpNR5qRLmR/4MiP+Praa+dZrGK3+r+ieSjBYXYa1D6Oz8Di06qFUCmn6WfTf+UdoHv0yVHKvuIQ5NyP109v9A927k5Hg/NiaaKBzgUKntcIryvkmP7I5VeZKn2ZXlIll7Zw17UknHC9cXyRaRXiGXfJ8cDQtTWQmJ5lvQyW5d0srWNJg9jxD2mhj99IW2qdaiMZnofZ6eOP159FKFjA1p9A9ZjBeHaL74D/2c+yi0f7BZC4jbvkGXLkOp0bQkfd7t5VCNUm1k76jBEnGFDob3ib3i/ZkX2vaM83vXAZruYhrQqeTcbrwlg0IBEIP90BAYP8ISITEtDD9u72FJgmFZCLe2uKIOyEXTzAyhCQpZK8Z/l6OW/nKH8HGf4wsGuHlP4+gbYL1fh+f+OnPo5W1JUVcJodhln8d0dTnEE//DJybgk4Ozoe5jOfJGBcJ2JOkKTjSVcoIl3TwS27aW60SXU/qk0Zw4s6FAUV3erCW0a6Dk9ntTKJ2ErgzfSg1RFX24Jh2p2Mr09aJ/zJ5iXyjh+7xXWh0sP7Cc7h4/hxOP3EIM4e66L31Nqae/ufQUWNfWRfUZG7LNTg1hNLMNgzBWXyejrGskjehoibSJs1g/Cw7o3VZLMh9433YRS/INWAsr3sLcXZ7NEDu/w0WHnk9EAgR+vVANezz9kVAUp4ULeEIWemFTkTJizG41033hD5hmLruKeR+ZfTKG3T8qAxouf49uOT/QlJGpCpcfL2Ht14f4LEnj2H29I9JZGpNA8Xyc0hmzqGwfx+NxackHX0QzT4uy5wyOqcrG2kzirxDm8yaT8oaV5rgvIQrMyV9OGmcY3aEMrEkRJ+OroZ7cBhAR6yp78DmI1QVZ71jpK2WEGlEIRgVYevFr2D6wZ9FlZ9D5FpUa4dLLiGd/iko9QDQPLz/yHy8ATM+B2ADUD1Y0weqMSybAVlukMVKB3E2Ax0vQcfdusGOBjtcCHIh4xXpoBowVQPOMdXeQtKkzesHZwhu3zdeOPJrgUAg9GuBYtjHwUBAjFAoYsJu6QpgPVbkOXl6k65kLwIi/zHVLo1LbHDSQvtMCUuqVGrf7EJn9OUk3Qusw+78JqrdFt5+eQ3d+RYOP3wCmn7erceh9BxssYme+V1g8Hkk7S+itURlszvgg5ypeMl6eHMUEZkRcxmv8X5ZS01T731H9OHlOohjmxeUoUCNGe7CqT5Aa9RqU4xhTEUiTZAkmYz5eae5Bixd3fhay/8KZvGXgPEzaM1/BjrfQ27Oo3H0H+4zMi9R9c6h7L8C65ahbE/KCux3oByvs+zcp4vcHuLGCFGDan9zcLgXUcrxQz96SFc63nOclzdVC7ZqQCdNJO2udMHfiRt7KHy5I2z7QSAQ+n5QCo852AiIbSfrrD0x5RDZUM4Ls3FLxsUYffsmJkmpS83cR1ReqnNS0/VNTV5+1UfoHJly1S7M3p8jsmfgyh7eevZllHRF6w+x+MiDWFg8jnHrNJLhAAX+EHH2BeysPIDFBx+/fcbSrtEdIrKnYqXqo3Lvke5LHVAlYPdEEEZKGlRyq8XUWJOvRntwdhcOW7CMlOllLh3jGaLGIcSsQ4uRCmv2ho6ygGnAFAaR+SGy2cNAawlK3QOVUO/9gzvKbTlEtXMGVe+HsGYVupFDU5VOz8JR2Ebug0xS/WBD3Pgc4uYl6MyhGi8iaT3pZWOZmqeMLyPzso1ynNZkPiXR+W0znniN7gPuRrIVZgidzlzDvR7sXQVCP9jXN5zdByAgESDrsMUenCqgSeQiTco0sJddFatSIWn+zFnpyQzyRN2rfhHOFjNqZNpY5pQjwIxh7XnYze8iSSxyVVHdFf21VUwfuwtxNIbVR+F6r0LN72A8/AJ2LrVx+IFHECcfTCh3zAV2dEHbRlUwNU+hGUq+elMTYwpUw13Y8duwZlnm+SM2xVlGxyNEySrS1gyUfkDIlXKylgu1qonKpMjac0g7C1AJ5/uZiv/gGXMhnHKA/NIzqPqvQTcHiBvstWC5oAGrl0SSV6xuOUsfxXCac/EtmP73EDcGIus7HjyE5jyb+Dgs0URVtJH36RbXRCaOch25n+60zVG73wykV0KnC3fa6V/1+QZCv2rowhNvdwQY/bkxhT92oDgrrD1JiPgHR4zoPS5d616pjJ+60lBFjfF6vEhS7XXanTam4noZpfJc2DGco0rYFjD8TSD6T6EpSyqRZgsOeyjNOVTJLhqd/xj91V2UQ2D+voe8FGjYJN1e9n8PavgN5JsrGOQa2s3CDbeRNCI00nmM0ycQqSEQrSKK+nAR694NyZBEcRfVcAtp9iasPQlE87VSWxNlmSHtLiCbOgKVLMqc//tNJ/zI5ajGGF/8Oqr8DcTd0kfceYHBVoHhQCNrz2Bq5pDI2DKjw3tGxtKSJZQbL0Inm9CRQe/cDDr3PQSQzKsORttcFCTIpufQmJm77acaruoW5thf1ReNfnk/pVTxC9t+EAiEvh+UwmMOHgI0/RheEjLXKWVI/ZcIj5DMGV2LmpePjtgQFzcaEqGznu5TvVeEQLSk5lk3Zb2UAf5IpESZFq5KAx2/Jb7l1ryJKmqjwRpp4344HMJwY4BGdwlxc8prtgclMMFc3NV6/y02z7+IRvNXkRyaQVpdkm54q7ZR5N+F2clRbK0izjRyM4+dwRw6cycwPT+HmLPsmp7sbdjeM0DcAKJ74aIpWNNC2ppDPH0MmpG5eMnvMxK2FfJzf4CqeAPJEq+XQX9jgNV3cj/5ICWCBPMnjmF2ac7LuTKzw3sknkK++QbidBsOfey80sT0Y5+FMV2MtmWmDtn0LFpzh25bvYGP9GEhZM7SFzUFfAZMJ/MfaZd30pMDod9JVzucqyAgs8LDFTizC52y35xpXFpoWlg2MDkFY7ymNput2H2eZhT1qDupZbzoXYRei4BwbEqYnpG5ROdM27M+z2AxR7TzrxHlCWyisLu1g2J9Gy45iekn/j7S5hTijBFi2DwCDqPNfwrd/9dw+tcQz+xCV5swSBCrDN//1tfh9t7GoWMFFu9vIu85bLyRA6aLqn03jj3wEBJqwnNxVFoUw+9DFRlc9iiMZip7Aenscei4bkrbZ0aEWZ3qwp9hPHwejcMpFGflyxJFHmGwp1HmOaLIYbjnMHfsBLqz837hx/4L6Q5oo+y9CKX24NwYW6/OofPAJzHcE7k8tGbm0Zo/LG5zd9om78sfIXMN5SqodOlOg+KqzzcQ+lVDF554OyLgqjHMcBlAD4hYM2fjDY1DaOMZS81cRqBF1ANIsoaoeQm5S2Ocl+3kz77LWnrYpSNbRFPsCHT8soaiMz7i85rsfH6FcnAGZm9VRpaQHEM89Tii5tQt52N+c6+tRTXehlv5LzEeKXTv/6+lx8DQLS2x+OE3vomk2kK70UfnCDDVKVBah91tWqFWmGsvoHX686LlTgotB28Bdgv9SzNIFh9B2llCc/YUVDxbu5fts7zhLIq151Bs/Tmyo7RmLYCSWR2gLB16OwX6WyWiJEJ3poPppWNQMa8t9+/Fh8xoAJg3Jcsw3HHYWz6M7MiDUFGK5sw82otHpKxzp23s8PdudHwv1b0p1IEwJeLm8TsNjqs+30DoVw1deOLthYATGVA7WpHatYrJ2iRzjjWxsSqWqJxa4KJcZhWSZhMJa6CKhJxcNtSQznUZVePcsNfp9q5hlCBlip11d2+iEdd65JMuebHS5IeWZqNP27tnhfnid91K1Fvfxdpz38bUwm/D2BY6x/8hTPUmIqQi0pIP3sHZF95Aa6qHVncPkY7Q2ywQN1LMH5kF7AKQ3gedzcIUO3D5axjvZejtnsLifR9HOnsaUTLjjW72IdMr+QI6xI0voVz/NqLuFlQ0AEQwxiEfWuyuD5GPDbJGhu7CNFqdBDqehoo5nlYvAI2RBjpEQxgTYfUFBZXdhdaRU5Jib80fuiPH02Rcj26D8J73frzBkzknTZLOqdvro+YmHm0g9JsIfnjpG4eAzffgxisyo1zZbUT2AsrRO7B2ExG2pDvZWaqNzUPpI9DNR6GiU+K5HcVZPaZGImfU7RW92LRj2X3NDyKXw1YG5Zgzxg1xQotpEhKJzpm3xOTMM2vwYn3a9o5ggcwv3wQ0oAHHzqoRXv2tr2Lx0R+gfbyByPwEkqUjQKlQmQHs8C8QR3MYFTtYf/1lDLcNsqkM80ebaEzPIus8DRctoBytQLsVjMca669EWHjwx9A58XHE6bRoBOzXtUxq9qN1gM2NiQWKF4DqEqqqwu5WhfEOF4cOzW4TnYUZxBFr6LzU0zK+xuY8yzE5ZobUJRgbY+9igo03gfmHPoHO4ZPXNM3+7pE/acfwQgo1UcoPtezePjMT1+ltKhMmZiyjaX8TmRPIpH3yOh3BwdttIPSDd03DGf0VBOx4G9XgAsre94H4LVT9M8j7A9g8QZowouO8cB9RsoO0Y4BuhojNcTMPIcHPQFPLWxqm/JfInIgk7AhO8cPbsPcNox4zuA1EjUwiezbQMeUrorHM44v16az4mCsKnITmt3ddKWZLdmFL9h9ovPLV30beew1PfrmDkdtC1vhlOGrZl9so8+/INMJoZ4TR3giVUhitrGPhnmPozs7BZm24KoOLdlCVi9h43SFqHMPRp76AuDG977E0H5mXcFSAy98R+V1QtKZ4RaRlB7sldlb30JriPp2UZuI0QqPTQsR+Cj0F6BnppbDjNVi7AqsVhlsp1l6qkEydwNLHn0Z76Vqk2WtFw9pnXqR1+R9HMOr7jBkl/6vvDfFmMF5L4XooEU4WFoKjGOVNtHs58kfZ3vOw5TKci6Gz01BR90cic2mI44RASLnv+zM9EPq+oQoPvN0QYHq76q2gXP83KIfPIh9cgnIRmtMPIZk5hrQ5CyQRbDQDpxeBKkZ/9SxGF34Hc/dswCUV0vQuuOw/EgtLT+acXx4ArL3LLBtV4BKM9oy4YVFaNE69Qhw/J70ZyQigeAg4hkQf8zuv4en9750crqIfPI1MvFVsb2MHz/6TX8eJT7dw90+14HYYHf8UorQCxi/AmAzDvoYd7aIaF2hOz6IzvwSnenCqJSntcTmNtTdGyLIlHHrss2h0F+s0+z7vZEbm4pq2AutehWZmxa7Bmm1ZdOyu7CLv9RA3WtJoGSVNpN02OvNzvqNdd2CZickvwdpVuDTBaLuFlZeYru/gyJM/ganjd33EmjmJvBTMqLDnzYS89aonclHnuaK1J5OVtV7ChMjpv17/LP/2URealO2lRsDkGC73mXj/g+HaChT+DDFr5pkW4xoVzUK3n4LSbUmzTzrcOe6n0iP7vGDhYYHQwz1wIBEw5RDF6neRX/odVINVxFMdZMcjZKhg3d0A/cYV6+JsbCuF6B3JNjsFU01j81v/CDOf2kLUS6CmfhYq+YT3qq72gJipeXY4A9VIY9yr5EM9bbdqD+936b2bEZy4ac2JYxb4AbXPuu2BvDB/7aRGQuYsV3guooa7l3u98OxzePn3/wAPfOnHcOTJFUTVNmy+AB014dQelI0QxU0RaNEpWSMGog6K4QwQrWHr4nFUlcPhhz+NxtTS/sfSeBimhBmtwtkteS2UzwHqXqBgRMmGSY28VyDvb4n2fGNmHlGWIWk0EHHBJvdWAmt6ou3ukgyjnXlcem0Pg40+jjzyaSzc/6jXaL/KTTTf3bAej6THPEmUzZds3Kyz6u/at5cs9gl3yTJJZ//EKbA2FaqnOvbjLPfeh83FGWV5uT8uDvg/6jpwptxPgbz1x/8cRz7+ArL0s1CtaVnwVqMVlFWGbO5viQOdROfiROetcMO2PwQCoe8Pp/Co2wgBM1xH/uZvo7/5F8g6HbTvnxbXtKSfo7eXY1wlWDj+t2C1lUYryaBLHTyGUTFUeg+KSxcQuX8K2Dbi1gmoqb8nKWGmyqGb0g1f9BzG/QJZZwqNLo02fFREURihJJPDSePVlHfsYqd7IPPLd5KzfcDswcmEASmGOubeCIce6Kaq8M63/xSXXvguFu87ibu/8BkoO0C1901oNBGnR6GzOT+RUFpUo6EQbJ5fgsqOoTHzJTRmjyBtz+5fMKZOs9vxBly1ARWNZV7cls9CVQ/DSo1f8sc+YyPuaAXSBjMv/BuvN5v3qGy3BxcrOJ1huJ1g/cwuRltjicqPPf7jct9cbTRMMlc8LhrAODYSsjvcS82Khaxg6RdGnlV573mXO59XmqTZPZF7+WL/N80TYYlJviYq+h/8AcAJD9bDJbku+6iPgxLKxIkL4GKAN//wN3HvZ4Gk/SVxxLt07k2k6RayeIxo+t9H2j0uZE6BJkrhQrc/+MXDI+rMzMTyKAASELjNESAZjC/+Jcqzv41xtI35+2ZRUbBtCLz90h7WLijkeQ5VJYhbbfz4v/dFpFdsP/wHnYuloa0az2D30j/GbDYDpCOo2f8CKmVzHOVEU4z3LIpBjsb0DNJ2p44m+EHpxKDNcn5Wc66cdpmhk/1Hby0CRJLck+jaa7X7D33RA6i8O5mQg+lhsPY2Lr36Mo596ovYWz2LmSNHkTX2EFXvwBXr3p6UVqhji7w4JNrfjSMfQ3fpi95r/EOREqV5twCzLdoBnFyoyl3AvQKzl0I1Pg7YDWhbQsckSsoCkwd5rROvcUDxG94EyVFAL2JvdQ/rr72D4W4PM8fvxpHHPo3mNJsvr7YpjZH5HpzZgXOFLIgoN6vipj9VqaMTVl8/539syqORDRdOUjevBZLEm2Bi3VoTuydjT+jSO7KfGX03lusp11Kkkqm0SF0H46NzWUuMUPR3cfZbX8P9n0sQJZ9ANXwVZ54/A+gcJ++JURSPY+buv+2nRHQTUOw18S56YftgBEKE/sEYhUfcBghwrChf/RYGr/8W0kWH1qlpVJVBVFY4/2qJ5bMpWqlB2p1CbziE3ezjgX/3JzE3s+B9uet6owQqqo1Rbwyd/xaU7QCJQbr0a5JCNaUnc1s5NGfnvXGGRN4+uvSkxA961szTOn14tR/ctwHwH/YQJU3Mhqi+9yeXT3r5QcjclMXleX5lOF6Yi7gIU+c7F5ax+9ZrmJrrwtlVdBbayBopYmdRjgcohgYlVtC896fRXvrVDy+bSgIqtsWpzekRFMai116xtu9eBI1YXD4NHd2NpDUlugLiGcMRq3IL1rDOz2Y4+tqzw/0IqryFtVdfx/a5t9GcO4yjT3wGnYVDV6074CNz4rfhDV0q3nOZn3cXUQSmtut78HIdnRmPEqb0NrNXmuCY1o5l7M9bs3q5Y5+yr1Pw4kz3AYsiO4aRRQ8XEr6RjcCQzPnesqaCcmPAFSgLi92LW1g8tQZtc/R3zmP97UtYPJmi0S5R7t6D9n3/IZyQOb3t96ne92HvwwP6+EDoB/TC3lmn5TA6+2cYvvUVTN+TopyJkJYKqsxkvtW6QzAJ8K3fP4unvnAYr35zFVmrg0c+/3c4gF6nKOvSLZ3WkiPI3/gT4PBrULsJKmprL/3nsK6FwVYutffWwpLMqXPzJiHsKLbSXERrTonc6hrinXUt3u9smRregy3pNc/RP457XYnM6aLGCJJRLi1I44yzyJW4oZVFLkTB6K9YewmR7iFyFSI9FE0Ba9rIVRt68efQnX/ML6Q+1GaFvJk5YLTICQZbMqVNXYESJj+DpMU6/A4iu43KFNAuQUR9ApZTqDin52Etm7oURlu70oWfdo5iuLODcjzG0kOPozW7eNWRuZOFTw+uXJPMhS3pztYWkSInkTglCZ0XO5JI3VfLxbwmF7Ukv5CQyFt7oyGKHjGarqc4vGASF6jeKZBkTqXEidf8X4WUEseu3JWUfy2T6G1v5XUdu0IBS1xz/96IUqyfeQdL9xeIc41LL/w5bBwhm80xtahQDJ9E++QvS2S+b139D3WdD/aDA6Ef7Ot7B5ydQ771Jkav/AaS+RH0kkWqMvkASxyjFouCltdvjLG2vIPxDjB3uo0HHzuBuPuQdETXAzWemhlcDEvsXvxnaC3MQbshdtYeRPv0z2G4UyFOWmgvksxb9QpgUvdldzbh5gdg0GP/6zceP9h7MEXua96G3+uGKYlwcy/eQvU1O0QUszmOjV5APhqKDj6NTiiPG9H8hqUN1tltDmM6KPI20u4xNLpzdbT54W59NmYxxa9I5qzRkKi477JCMeJrLCNNdhFFjyDidARZk2l1noulRW6JariO0eYyirGBMU3srW2jOX8Sc6c/jsb0vBz7+44q1iWH99aU94I7sJtCoFwUsfwjioNC0Kxbe/94/ixNb5QeNgXKnCOW9XhanWKXGjV1Eiapd56HLEaZ3p6QOpv72JgWw8kC9UcXSeJXIGUTqZvAN+l5t0KWTKhp7+wQmgJO1kvbch/DzXOymGvMDmH7fay/+SKW7plC0jiGyj2E7NDnApl/uNv38qMDoV8lcOFptwACnO/NtzAevYFotIKk8SJssSGqbtRlN8hw7pUeVt9YQ7OVIJtKceL+RzG1WEIx+mrfBxUdExMQza71KodpTqN85Xeh79oDVhPkeoTNt7+Ezsn7kXVm0Fo4LN3Ml6NycWLxWNCQQ4RjwvajCEhD1ND7W4s1HSPNCQE4VGUhIj0cvWJqVqsClhrpjrXxQpoMoyiGSpI68uY8IEe0mMLNYKo2otYRZN3ZD59ml0x/BWuZYmdkTjIfS0RZVQWqMUfpKOlbImq8iXi4CW1bQNyRKJIBaDUeoujvoMrHKET8Zho6PQrrGmgunMTMiXtkpPF9N1FGy30an4I079o8LmweXIcpduGKoW+Ai9uXbX0ntXAudGQag+UDIXNG5pONf/cWwFHsv2QmXQh70hzH3xPJoPionf0fbLSr6+qyKxI1I/M9icCl9U4WX1zIcEHEEhbJ3afZmcr3Y5zcJ7MGCcrlbyI5egxarv0ulBvCtD6NuPHxuh8hvImuBoFA6FeDWnjOTUeAHx6cEYbZqedUV2B6X0NkqMalsbWW4NVn3sLMQhuxiTB71yLmTk6JF3mcWKq1ipqYatwFq1Jo+eCJkF/8JtTUm1BmCkVU4u3f72DpyS+jc+wEmrOLfmZYxm98ZO5tVScjQPvvCL7pAN7IA+A8N81qWDQnZhI8+qjOVPzuyYAf/lqT7OmFnaMajyQdzGiSo2BCPpwg4EKObnkmQ1VSyOeQeIezHvyhN7mOPK5caua+a7yEJZnnHL9ipEmpXi5ExtDxMnS+DV2wNODHxKgYVxoDU6Uo8gbKogvdPIrW4kk05w69v+mOlBho5DMEFKNwhSi7YkYi8+VuV9LsrqDATZ3ejri4mdS26beeQUWdug7upwQYmXubX+dlimsyZxe8LJCYaqePYOQj8UkE7Z0G+e+pqB46Zp1koVrf35bliPcmc8myCKmPoPkm4/WrGxMlnV+b1DCboHqvwHUbvkOf2Yn0GKLWjwXBpQ99E79ryeZCl/tHgC889aYgQDIfXYIpVgCKuDSmoIcvA8PnpMZYjpt4+duv4PDCUcx+7jG89Qf/Fvd/+pPYPLuO+WOZkDKNPiLWPpuPSe1UJQ0Ua9+FxvdQzjQQ76V4+5kxKv00Tv7Ez6A9twDNkbWwfWgE+AFPgvFNU/V4Wp3WYI1aFkdU3qPGvaRrGc3nUCJrxtF9EpZPI0vjtrMwJkFZNBA1l5C2u+8ic98YJuNvdYd3PU/43rrtckyVEJCkkCWFX8KW3oHPe+F6FbYo5oKCmYUeQNIyvt5vDaPUBqoyxWjAckATjdlFqZe/b2TOKLrsQWm+NiN0LlY0kib93Pm6fdjqHNz4rBe3qdZgGaHTTIjZDgnGWRPPEKVT0MlREb+B7qCy7OOYyL5y0cL6ua+X+5p53fRWd7JL6l2iaJI7CTzzkbLKPAn79nlZfNhqG+BiRrriee0qSe17Mmd2YySZBj++VpcDZP++8U5eS8bSWO7qA/E0tJ73ynph+0gIhAj9I8EXnnzDEeCHx2BZOoqtegaDc2+hfeITSMozULZCqUssv7SFcmMVPZNClQnSqMJeNcbhqQZOfvrz0IwIkxIoWyg7jyLTOcYX/hLZ9OsYtzLocQurPxziwndSPPwr/wDTJ+4Sn/KwXQUCjKYrknnpRXAlqyEVXhntE4KXKNn70VsSgmNTHE1snDRtRYqESbEAB+tI6pkQFrXSSeZs2vL7rcmZ6V9hO6aPvWsesy9+BOvdJRGSJh/LVHv9xftLFOsmAjes/VsZUZMex7pzXOa2mapnHR8atkww7llUhZN6eXN2AXHmmybfc6vLRdBDKTU4E4m2AV8kbR2Gqd4Cimdgxq/Dji6iGrBungDRFLTuwKlEjtNaLny4CNljgI8omkfcOgobHfI+71lXykAcTWOKfULmQvB1fdzPn/PfIigqGjIyVw2oiJ3mzHpQIpaKfC/D9HZlwQJmLJhZEJtgCibNAnETzgx8ZC4LBr7GRMqmlpylWAwXaDGnQ2aEzCWtH7rZr+LN9defEgj9msAYdnIjEBCLxeGKl96MC1T4F8gu3gM1z27annxolZHC4PwW1t94EUkaSZd0ohX09Akcvv/TiFq7sEUbjJl7OQAAIABJREFUKuGH0QzczKdhXvlfEN81BsoGiuwoNp5fwht/+Bzu+9tfxrFP/GQg849wcWWevGIUzvSrT19LnVfkSNlPbSUtSwL10V+BiFa0uqw1zGoRF2mwimBdCidjYR1JZTPt7Ml3DMXmK5I6SV/MV2o/+1rO1KunTZq7vOiJdF9LuYX7ILHyu2/uYrOXpNplFGsiyuJT1+y7kHNwWpz68n6FqnTI2tNoziwgeh9ve76Go9GLHkmkbwzlT3m4vlFN6Q1g/FWY0esoRwbVgK5tDyPKTkqvh44sVMTxtQKGC6ByC1V5Frai2x8fXwB5gqh9SNL3unEI8TStXP25c1Hk69qMlhMfrTPNrmNR3hMi1ywtJfJ3a9dhx19FvhYhbs17vXUuisvzImmr1AzseAoqOoGoe0I0731zngDuF23S4e5dC1VC3YZZgNrtMt4Zxjo/wlvsR54aCP1aIRn2c10RcNUQdrgC5yi9WqCqhkD8z+De/gSyk0vAeJd2HYhtF7aZQbfnceGZP8KREx9HtXAUEZuZqgI6U3BjC9U5iYGbQ7T8PyK670mUe2+j1fp5vPinu1h97t/g9Be/jNNPfwFxGtLsH/XCclHFmWSt/Ewyhcx8add7XzMKr2hta0vEJHNXymP9v3sjHOP4oZ9JhKqitpdX1STCApDu9HEtTkMCIRn5hi8vbeo3xvBaDHYm41u+2U2InEJAzCAIUZPQ6zGsuhPfz8v7LnIhei5FnIY1EYoR5+ct4qwlnubvT+YFwJR1NIBhp7qJZB6fRJskdGVbA8qvwpZnUPU18t3jyOb+HcSdw4g4k8+xNTuQhZEfSyvhqjcBswITsykthhs5mHGOarsUaeKkPYOkeRJ68UHotO318qUZjlj4znbWuSlNrJKWl9Zl3ZzkbwzKza/AjL6DuPmfQHdyoOqhv9PHhTeeR6z7mFpMMb8Qo+oT9wegpx+AjknUXLJNrjFT7BRt6tQ+9PSJ53srkPlHfX+9+/mB0K8lmmFf1wUBW/TFx5wjRSrlh+8IVTFGkv1LDF5eRufB/w7oPwdLYw5+KDFFalNUUkcdItIzUNSXZrA39wjcKMfowv+J5qnHgfhB2HIFRj2K7/yTX4c1KU7+xM/j5NM/iSgJafZrcUG9xrhXDWNa3ZPjRKubsuns7vbd5g4cWyNhkgiYrs/rMbQELp5FJJ3dngRI5mwSU7zGMUVMeIHbMuvsSdyvHPzj66hUXMYmWvs8LqaHSfUkc45cTbII/m+XiV0yBLVsak3k1mpUBSN5J1FpozuLKCWRvfcmUsDVDqCpksdoms19XiY1SkiqFar+7yCufoC8cih3jyGZ/UUkVJUzF0T29vJIhRd3hTLrWDnzIhqNIWZmNNBIgSyDtQ4mt6h2c5QrI+nIT9onoGcehOoevjyH7mfNI+ikCc3ImX4DdRaDWOy8/hJaja9Is1/z+C9J6h2VwfryRVx85XlMHWrg8IkGWq0CVlmYHcq1Poxo7uEaZ182oYwrI3PO6zO7oiQyD02k1+L9FQj9WqMY9nedEHBA0UM1XodKmWZk9+xY/LL5QRo3/hSV3US5fAqtu34VyN8Ehq/46Inp3LgBMJ3ZOQntWuivv4j24P9Dcep+qOZTiM3D0Gihv9nDd/6P/wkqmcF9n/sZHH3sUz4CDNs1Q0BGv2SUytRDAazZAqYqrsiV0qqUFWnWzIXUvaGHdF1HM3WjlidzLgJcsQdb7UDHFFhh1N2EpsJYTeC+aayevyYXS1TKxjNRNa8XDV4i1WeHPYF7NTb+zIi8/puk533TmjWUUlX+u7HS+BY3Ou+bzaHdKuVa2QTGRjpT8BytpKA1U+EaGPfeQDr+3+GMRuGaMOPPoHPqs0D1jp+N51bLufLH7c0dXHj1ZfQ2KXRjaByItA0cO51h6VQDNtHiXOb6JcYrY5g9g7hzDMnCI1BTR+upAUbNDURpV94vEjXLJAGld3s4+8d/gYV7vyG19eaRX5HRPuKT997Eyptn0d/eQ2c6wuKJNlosh6uTcOpxuV4sY1AHgu6COm4HMr9m76a/eUchQr8BIIeXuDoEpKO33IPOGNFR6GMMmBFM4cdxnDqDJDkHpXdQXdyGK+6GW/gk4njWZ/KGy9D9HyA3y4gXuog696JK7oU200B8GJGal9Tihe/+BS699BKOPvHjOPzwkyEyv7rL9YHPEoMOErUQq/LpcomifeROmmUW2SfJvYyuz5rTb/xKapZa72ZMiVbKjbKjmos9mqNQuMWPt9UULVGiWJkKF17xGvNNW/ybTwn7cbg6zc60e03o8r1+LkfKfJCuYa3v2mazJAn9/UbmbLHnU+VqIOpulGDlqBaJPGL0GhOLdQzf+WOk2Xdg3QKMnUPS/TnE3QjKbNdCKz7vQE4vigIvf/t76G9uQqcJUJbQWYLSlJibifCxT6aQQ4wjmIgWvxblxSHKtRGizklkS09BdZeExKVDPm16dTjxSCeZU9HP4OJ3XoEb/QmOPJHCqaeQdu4DqBPAqRJboD8ssHFhE3FcYf5wgtbcXVDxvbCWzXgZdMzRN87t8z3JsTo2wIXI/APfLFf5gEDoVwlceNr1RICNVEMwqolSpmqHEplLdM56LCeVByNpHorVGvTM5xHZ12FxASC5G4dIc9xmBlofg7FL0HoakZqCddPYu3Qey89+Df31LTzyi/9AzFYGW5dw6P5HrudJhX3XCEgHuqTfyR01mddjUZNGKlGCkzlpEsC7ybyALXp+dMoOZNyNI1ZR1vKmIBMdclE+ZY2Y1K5lysrLk/qomPXjCa94K1GfhpeSQK3YJh3tjNXr5zKN7TvCGdUykmUTGff13nVgWcCUe1CqB0t9+Iqz6r4GH0vUyoUEd76F8dYyxq/+P2idLOFUG2V+CM2jP4+IynUUvJFjvKLR3u8P8NZ3n0V/ZxcPf+ooLp3bQ2sqw+ET8xj1e+h2e6KuK0+LARNXcLlCeWGEYqNEOvcg0mNPS+OcTjk+Vo+VceTPMIvAHBf92zfw/P/9e3jiP7CIozGi7OeBRhMYv4rhzh4u/OCHiLVD1Gxj7vQSphenUVYRVHYYSetBOD0PHc/UioyBzK/3h0Ag9OuNcNj/h0JAoiTOJHMkRhe1qQNHitjFzKYfi3Gfal78wK6QNv4C0cYm1NRPA9OfkdRgiTF9r+r/KqB3CbvnXsL2+e9hdGkVs498GaOdbexdvIC7fupX0D18+v3FPz7UGYQH7xuBWpxnUhe+LNJDQq0btt69L9F6Z9amYmQ+lIY2psAZBUYpu7+9/jiZ7PK4lJiEOJFwrQvqvmZcy/N6q9GJF/iVV/P3oU+L+9o5k/BeFlXS5AnntN+noUuMXnZQVO/A9v5fJG4LSpeoorsRZT8nc/Vac+Z+C3a8ja3nnoOrXsLU3RZRNIO8mkK28LNIMh6Hn+mWTZIMXljn7A+/h42z59FdSNGZaWPjfB8PPNVGI2WmgmUIwFJClxmKhNME7B9UKC9RereFbPFRpEuPAGLxW4slmYEsmokrxW7Ymf7q738Duytn8cjfvQsZ1qH1p6AV9fipc6+Rj3bE4IVWxYgyOLMFnR6Dbj0JFU0BmgsGYhci832/N67ygYHQrxK48LTrhIB4O+dQmjO+rDvSbYt1O/5uUYzHvtRZp2hVksPia2gsr0izjmK0kceoXIy8zGEGOdhXNRo7jPIYpnRITn4O88cfw7A/xqEHPimCMSENeJ2u5zXa7aQBjsqA1Af3ZO4bykg61Hm/Yvnp3cJ8Yzpnw3n/SLu6jGlJt7WIp/jUP3XivbuYb5jz+Xmm/L3KvziOSmc8o3IvYfp+ZE5CHK38CcYbX0PWnkHcfgi2sQg9zjDa+Qbacy8AnV8TQjf5pvQCrHz9NRj1Go59iiw8DQOm8j+LdHqplk+duPjVpFitI++v4uKZZexc2kPFBYurMHNoGoePZ4iaKZqpAmL2JFSSfvfNC3Nw9j7Yag5RnEI3pkVUydvWDsS61i9waKbC10qxt9bD81/9GrLuFB75xU+gOd2EHS7LzLuXeGUzI8FKvXxttAHdfgxR8rg8XzziQ5r9Gr0T3n83gdBvCMzhRfaHwETli+IiJO6xF86AkQ8sWmsK8XLESDQ46pqsRCHfRLT5KtxOKR/MlQiEWNhco8w1crqvGQcz/eNIF59G5/DdSNpTVycXur+TCY+6RgiQzBntOvqMM3UtJXbOT3NOmuPTfgSLNWkvHBPL/LShoiC7ya1P309MRyh1KqQuvt00IiGp11rmE3tRqQd4Ip8ongnpf4CHebH5OvKzv4HsKMfzRthdb2Lu9OegSgPLlLm+C70L/xu60+vIo7+LSFtU4xhvfe37KIplfOwXDKzrQiuHanwS2dFP+Vl9r9Bej/txWu0cYC7B2gTbmwUGm7vI94bY3dmAtQ2kTWDp5Bzmj6RIGhZaJj4SuOQU0PwxIF6EquiCRslZVkCokkeFPb5SIUpuzsa1ep3Cxitncfa738fxpz6LzvHDaLX7gLkIrXPfwc7MiKXdrYFq3o8ofcL3PkhkHrYbhUAg9BuFdHidfSDA0Jt+2GOJyr16F9PsBrZgrdQLerCy6pQR/WeqX9XaFb7WWO2g6K1CD1eBfBt51Ba9dpUewmjQhU6n0Vk8jLjVrZ2m9nFY4SE3BQGptZsxzHgZrjwLYNUrk1mOVtFvvA2lKDLjo21GnF5MJoahD3dFbXZRbKmbyry0aSROY+yy9zKnkqYXIRrpIqsV5epIWCL7D04V81jz838KN/hdqEMpNt4ucPFVTlpozJ96ECfvPwxHhTTXQn7ha4g7b2OUfxFx8ySs7eDc158Vz/SP/QLQmEqhYgdTNJG0PoW4c6jG36f+xXa2eAeOPgYi2MPzyNDr5bj4vZfQOrQAMzbYXl/F4rFFHLm/gyhir4KGSo4C2VNAfFzEbZxZBSjW4+Ja7KeUjIezWrJZxBaK0wMN7Jy/hKQ7K02ks0tdxGoTnYV5ZO0m4oQLohIuSeDaH0OUfSzMmN+Ed00g9JsAenjJ90BAbBe9yIeicpeYUrDGyMi8lM9kb+Dh5Tq5sUPY9zPV6UhJj3KUiDrbI1jWVA3/1sJwu5SRpvbiEcQtEsHtJWhBwlhbW0Mcx5ifnz/4t5BzKHtr/z97b/4j2XVeCZ77ltgzcs+qzNqrWNyKVeImUaRESqal1mZt1shyt9vj7sY0MBgYmB8GMAzMHzDzgzGDgcfA2IZljNEtS3LL1mJbo4WSKFISF3Gp4lIsFmvfct9ifesdnO++lxUVlUtk1pZVigcGI7PyxVvui/fO/b7vfOdAB+9Cxaeh9bT4kiM0PtmSKpfeZrKnh6GcXtgu265YH6Z/OrM8NFVJ2tRYV6fJSxKVi/yomLmwfpzag6Y65utvWWxceh5q8b8g3qKR98poNhTefXUWmZKDux99ApYaBZwa/OoEwuq/ojHlQfX+e2RK2+EWe3D22V/g0muvYfg+F3sezwJs06QDXWMI7uBjsJzy5RJ0VDcROrMVvGsCjUalikJvDy4du4RcMYfesa048+qrgBdg5L5tKI9kjOMr69n2NmhnN0JvBnF8ElZmLyzdI4p5ipr5BHPq1INjRAvivETh9KqPwhD16SnY5DB455Gxq3AzGnahH1ZxDCjeD5XZLpOq7nLzR6AL6Dd/zLt7vGoEmDo38psqleAUgw0yblOP5Vj0vWPpESahiA8n/mTam5balGgSEQXQlit9whoFNOY82Jk8ioNbYGXzt2W9PAgCvP7668hmszh48OBteQ4df/F1jPrkWYRzR5DrPSe+5HFMjfHtYuDB6y6RelQB4jlpzbJz2+SltZ0osAWmH502oBJlW0LcIpCbVLt5ifRpK6CLsxgj/bWj8vR8aGlqM5NQ/RthtZ85UkWtXsGug/ei2BMDziiczBYpA3kz34PyA5x4oYTdH/t3yJZ6ZII6/c67ePefvw+7ZOPup4sob1dQGTLTNaxoH+y+B8X5TEpOjKyDCyJby6JAs+Zj4vhJ6fem5atu1JEbHEZjZgp2HKAwNoate0fMhJlROlzELgGdZYz3YBfeB6XZZpZE5uwG4BhYzGIVRW42Fq188gioKJf0qpOsJ0YsLuAOwnY56egCecff8xuwYhfQb8Cgdje5zhEgI1jsKxl9G/ctkm3S9ibjtZyoeYk+iFCekodM2ptLJyjjXc2HEVW8CALeogcnl0e2dxAOPanX8aBe51nc0NUvXryIU6dOodFo4NFHH0VfH4U77szFry5i6pUfoDR8Cfk+TuIYMe+GxRYrRcU/811gjVyHTUTeLBTqsAsEreGktcyo0RHg2VttkwAnFqGM7lNSXAJOkm5Po3VXIv/WvvfVRpk2olHzOKx4EnHwMuZOjmN2hi2WQKnch7F79iIWdbu9qM9/B447jRM/i7Dtkf+IwshWsUxljdyrVHHka99Co1JBzw4X9/12Dm4/a/8RQG5ovB9O7/ugqIQYUh52UibAMVXVvRCT77yD2twkmLSyyDmBI6Y2jl1A//67UR6mkxmJc4Ycp+1dCJpT0PoY7MKDUBiC1q7U0GOwFY/8EpY2KE7DTIchIEq9fGks+We2h3KiwXur1fjmzvxubvaz6gL6Zr9CvxHHR9lOP4m2W+RBl+wrTardOGgZty4TMRgWs8iKslYKRmN8Mc2aRdgMJDLPlHpvayY7OQRvvPEGarUaLly4gEceeQR79+69I6N0llVmj7+OhWMvYcshD06GymwF2IUDUA5lYQMz8ZP8sSjDCIAHtWmE3pQYi9iFu2DZOUkbS4taQmRLo3JJ2UukTnKcSbMLG1sRrEx/+ZqAnlqfqgr8ynOw3QhWYxHNmofF8xdRGB5BoTwAO5dDEMRQ3kuICmWc/BnPaQx7nvpUIp7DrBRT2T7Ov3wEJ59/HpZrY/RgL+76yCjgTkBTna1K4t5+OOX3wSLCB+NL4jcx/QM9H36jgbDuoblwEf7sOEq7DiLb04t8D6Ns3h+J7K5dRBz1IfSPAdkZOJlHgHjElKsUz7/HuK2JU13qYc+ee5O5EA144QpyvArQKtt1S9skz+kuoG+SC/GbfRgEbKYDjTlGquBldLSNt7WIdYqimLF8kB7hxERDnumaLlLsQWb9T8nD3M0U4RZImko8mW/j6Hx8fFyicwL68PAwHnvsMRQK7O+9cxaCuV+dxvTbL6IxcxZjh5JOq7gMp2+/uLHJdyMhRPLMqdTG70cUzMOvXkTsVWC5W2EV9hjVOIksyU5P+6D5M9XLGG0S0JlOdoVfoQXMDDlutTZGcYYLFqAsGsrUEHo/g1sje5xZoTos8QkndbOGMDgPJ7MLQTyE1//btzEwtht7P/KZxLb1ste6yKlW6zj8jW+hPrcAO+9g7OF7sPdDO6GsI+JjoOshdL0XdvERWK4LFc3IBEf6OMkFoHGMeLs78Bp1ZAs50AlHbEx1IFx5SzHdPoqoNoE4eB5W3xbY+kFoNWIc1sC0Od/JWjdSvOSqpN0Axjed1yULbbF8xcj89uKj3Dl3zNVn0gX0O/nq3jbnlvSySn2c+tkGxI3spvHLNlKcicgHo7PEhpPOUdTYpsmFeYiyDcmCm8nDylD8Y/U04GbvP6fE5/Hjx+F53hKg87J+6EMfwrZt226bK7zWgRLMwzpZ1/OYePM1NKYvYtv7crBznMf1wCntgRIyZBKdJ/YrlcUKtD8Jx5pDJm8hpPNZ04PN1qniVnERM61m5rvBiN2m7gDT6vydEkQWo1FqwCcseUkdL19DN9ancwbMo6q4rEFPQOEEwrgCNxxAZCnYVgSd3Yug3ovFCxPIZouoz41j5L5Hk8ick9Pke83JqTIlo4tvHsWxH/1IvtNuIYctB+/B/o/cA+W8C9BfgJyS2XFYahes3odFWx3RNKCrxn1NTG6MfGvieCOTXZkGqwx0dgzw6whr/wpVqsB2D0Dr90HZg9CqDEuZNLtkvKQ9VMOi+I7pEzWe8AmYQ1LtXTBf67t9M//eBfSbOdrdfa0wAmkkzuiCbHdS3FKTDH7EqHaJQhbNJozrhrhr8UUwN2lUkzK12Jbk8oF95UO5U/DudL2bcTlZO5+ampLWvTRC534ZpT/11FPSgnW7L4x4w9osNLXZ4xqm3zmGhfGLGDuYR66f3Yg52IW7AYutiiZDQwev2ckpzJ47g6DZhJ1T2LoNyPW78CfZ9qjg9B6EXRgQMpdYp1qsj5s6sHxf2JfNdDEBnTMHmQwSt1izvxqoaKqSuqXRIIhgLtwOFSDT+C7i4CDiLEs9Hry5ScwePwrVdxfCwMXOxz9jOjWSkpHJLnHySlEWk4FKo/RjP3wGM6dOS1mJE5Lhe+7C3R97EsWBfmkpg55EWHsZeu4kYN8Fp/QIlEOW+iIU+8nRTFzZiL5s2yuKWUps90NX3kJUfwaqn8mIAmw8CG09BGX1QyMn5Yk4YrbMHBvB3HSRGO6KsbAtwIB558TB2/07erscfxfQb5crdQcfZyzSmnwwpml0UzPng8RofRvXK3kw09xDAz/6yS/wk2dfuC1G5emnn8YnP/nJdR8ro3MS4er1ukxiWgGdG/voRz+KkZGRdW93PR9YWFjAs88+ixdeeAFhaNoFN7qw5a5YLF75KuRRymdw995BjAzlhEsxfewUFicmsPWBEvL9HlTowMrcs6S/LqCj65i7cBqNxXk4uSxqC75Yr47sspEt2gim6nCsftiDD0gvtU1LVZLjGJ2T1S7ErzQyN61r/GIZ/fcr9eN5vqn1qbIYldPHnHXvSI5JDFZshbjyLFRjArppw1e9qIdjyPQfQr6H5jKRsYdNvdaTrBPB3CjYmIkqldoWL17C0e//EI1qVUpOTjaH7Y88gX1PPg23UJCJj9anoe2L0N4F6IVL0J4F294OVdgNOPQwKLD6BDBzFS4ibp6B9t4Gih7sEtse+6B0GVrRbOU+wGavOcsS7CzhJMBkwUQZV3GCHUGzHMG2ty6Yb/QWuOGf6wL6DR/i7g5WGwETbSdRePqwSx4m7EFfIr4xjolCEZMJfB//2//xV2g22bazuReCz5/+6Z9uiJXOyPzSpUtLQNoO6ENDQ+Bk4UYss7Oz+OlPf4qXX34ZZsJ145e+cgH7941hR38RpdoM+nYPYnhvBFBXQG+HlR0QgGG7WuxPorawgOp8Q4JpO2PBq8YolmOURxyoMEZzpgG3tBdOeYdkbCQyF8AmEY6132wSmTMdT3Bmej7VHb98vozG42hOfNfpz67DWDwFWE+2HZLETK2e5R9pv1QZeF4OcWghWyySsoY4Jjs/MJkmyT6ZCWtq12qyUpzABoh8D9Mnz+LUr15AY572sA5GH3gUe578GNx8DkFjEU42hJO1DJ/PWoTGJLQ/AXjTklI3Ewc629nQjgMrR3tUMtn7gYj19klouwRlfwRKsddc7jTDU0kmG0YF1xynMcrJdsH8xt8G17SHLqBf0/B1P7zREbgM5K1bMIxapvzMw868GJVf/jnGL154Bd//4U83uuub+jky0r/yla+se5+Mzs+dO4fFxcWkxICrInQC7W/91m9hy5ZUSWzdu1n2A+fPn8ef//mfL+33+mx1fVtxLIW9W3vwO5+/D309k1DxVtiFXUBUFTCXqBMWFmfqqM5WUOh10NObhetSz18L0HlzPlTTRWbLQ+LGZlTgTJsVCWDKJqGOfdmRpOIlNc2/tZZqgio0KgAaYvdK9TRKyTIVbdts5yKhjkRM4rQn9figmZN0tpvNG815gry0XhriZ/oSz3HhjRhPdpYejGhSiNDzMHPqPC4ceQNxGGHs0BMY3H8/5k+/iYXxkxjcfS+KA4NwszasnAMra8Ol4QwV4Sw2s1GgifeNDRVTxpXZdx/amwDiI9AUV8p9HAr7ExKqyYJRclZAfSkyF0F7I7MrY9NdNvMIdAF9M1+dO/TYlgfzhL0uLldM+aXWmgmoS9TAP2n873/2f0kL1+2w/Mmf/AkYSa93mZ+fx9mzZ69Ic7dH6NwmU+5MvV/P5cSJE/jLv/zL67nJDW+LwPmBh4fw0Se2o6e4A3E4izisJOWYUIC0MjUvynC9w1nk8zRriaAzStLiwaUGssMPwCmNGC1zEMjzJjIn+YvKhOK81iMSp0u1c04kgyqU1YTWTQPmviFr2g5T7JaRDhY1QwIz2eYF+A1auZaQLZURB4nIURyIO5qAetLNYaJg890W33fhhxgwT6PkONJoLtZQm6+iODiKxtwcxt/4uWQFBnbfA3/+DBDNIVcuIF/uR6anD26eHuRFwyORlLsHRQe1kJH7BWh3FhjYBavwOSh1QLISqaOclLjSzIGYrfA/boSuNuQddJfNPgJdQN/sV+gOO76VwJyn2fq31tq5JP740NMKL7/yKr797e/cFqNy4MAB/OEf/uESeahTEhEJcIySZ2ZmrjjP5QDddV08/vjj2Lp163Ubk80E6OlJua6Fxx8exYcfHUMuS92CCPWFeViug7Dpo1ltws4o9A/l4ORiaEtDZSwEk03Y1gDcLXT+cgWYWDs3dG1Gs2S8l0UeWIRnzBcRcVQXxz9okt8YmRtxI9tW4h9gbFdZn2Yq3YNGCX7DhVPoRYatklJ3DxH5/Du3w0g9eZd+cE5cEx0FM1VNAN9wRowqW9Iuxg4A38fChbOYP3sMuVKf9OfXxw/DiuZEepWvbFbBzVnI5DKwsxlh2lu6IeepbY24mAf67oJd+jgs+1DihJaecpIRSzJjkjVIPeJvOJNd+k4vf38T8Zuu3er6b+kuoK9/zLqfuIYRWDE6X6qlXwb2dF1JRyZ//7M/+zMwer0dlj/+4z+W1rIUyNvfVzoHkuDee++9q0hoywE6x2X37t14//vfvySgcq1jsxkBPT2nvt4s/vPvP4BCVqM2PYnQb0q3Vr63F/X5RRR6syj2GWlgasXopkY4A2S3fQgqU7rs/a1iKJvReh+0Zj/15W4BstkJ5jpumJq2WJOaWvLlnmyj2Rq9AAAgAElEQVRqIXBi0UQU5QTMs+V+IbClC2WLKRgjJDMhxJkIXPNFB7hEttj4tMZmPRFyo059KohDohwzBDwOH5FnNOq9xYtoTL0NuzkB2/bguAbU3YyC48SwaZZCyzW3H4qtAoVB6MJuqMw+WPbOTeCClnAJEtJr6muXDICxxpWWU9Ny2F06G4EuoHc2Tt21rsMIrBfM2wGdamnf/OY3r8OR3PhN3HXXXfijP/oj83BWBBhKjyYiH2u0+7B2TkJc+7IcoHOdUqkkgM5WtmtdOOYE9L/6q7+61k3dsM8P9hfwn75yN7IWiW+TCJo1uKUeBJ4HJ+ugf5RmIgzCqU/gIJgM4A4egF3ekfRTs2ZObfhe49Z2BWBw8kjyGlu/QsQ0hEl63yUml35spvNZZ2bknoHftJHrpZb5laYujOgJxFxXxGikRc2k1E20blLcBsxIizNZKJLgmHkQj/LAQxQ0E7a5yR6Yejxd6BaAoCFZBLoTsqYv2QNbi8e5sgvQThnKLQGZYcDaskwd3CgwSgOafC9vMHhKXT+Z3Ighk2jfLEkym3veHIMBdF7Ibrq/05upC+idjlR3vWsagWsFc37+q1/9Kk6fPn1Nx3GzPkww37VrlwA5X2LZ2QGoM91+5MiRZQlpKwE6x+b+++/HAw88cE29wWkmhID+13/91zdrqDa0n327+vHvv7BP6tTNuXEBdYJhpr8PPYM52A7hsQjl7kHc8KEtB04PAT2CcihVylaydjCXPLn4gTNKN4Br0vuiOMc0vujDswQUIo4yCD2NTKnvKjBPTyoOuV4AvpNJL9sX33HTwkbRpDTZzMmC7bgC6NxXFJBRT9a8ATwjrJNsQ2rcJLHxeJg94Co0V6nCEuZ9HjEI6o60sSlF7f/EOEVa5LgtUyfneTLFb3rwuc4NMFjhebKPXwxlUhlaCs9LccEAe+KMx7GTpAVPSnT37yxFxA194Tv8UBfQOxyo7mobH4H1grm5oU2avfVlyEdkGa/+3vqZdFvp0aef/4u/+ItVT2jHjh34whe+sOI67fXw9PcUtFMQJ5Cz/5qvFNSXtMWXidRXis55ICsBOv/W398vUfpGTVvSMePYEtD/5m/+ZtXxeeKJJ8QkptOFhC/Wk4OgDt+rIwg81Gp1nDxzHsdPnIPn0W1vfctXPncf7ttXFh1zRrJMa2fLObgZgnAA5W6BlaMSGmvdFXHaI7vdcgYAECTao9HLdWymw8UvIJEbTgreJkAW3HcQBjGyxbKkx1da5LsahRKpC+mNv6c1dAF1kbyRbRLMnQxb6qi62pB0vQi7iGsc+8MJhkYxkX3vxtfAZAz4/WOJQNmksxOQKQBjA04/FFVkxPOdHSSeTAyEACfzBGYxjHMhd2yi4uWFddZ3dS6vLUx/ZhKoakfHN5Gq5T1uiIUmP2AkemURBR4D8vyZFq7dpbMR6AJ6Z+PUXesaRmAtQG9NrXcC5q2Azp/T13Jg3562N6IZTfzVX//XVc9o+/bt+NSnaKBxJVlvtQ+lqfUUzFMgJ3EtfbVH6q3bo7zr0aNHV+z7Xg3QeZ6paUs6Yej0krWCOTMEJ0+exN/+7d+u+vEPfvCDkhWQZ+4yE5Or+AJxJDVgo9mfSorK6NI2D1Ozs3jv5AW8/c6pjvvee3uy+OP/8AG4js9ADhalSaVGzbZH4wSGzP1QlDzFHFRmCJY1CKjSCsfd4h2QqLgZX4GktUxIbPQMIHhCXPw6kT5lyp2aCnHAaD1pzSSoGleCpSwO9dmJ3UyxR6FnSjWMsCUbQPMiI40seLeUJufneZC+tKuJPSrZ/JwIuJy4EMyp/uYbFTlFfXZOlDlWjIC5PicUZlJgQnYSB9fvCb/cF4aTkNhfkMkGj8+yOBk3nusk3Yk0b6qdn+xfjoXECJms2OJ13106G4EuoHc2Tt21NjgCa4F5K2AuF5W3gk0reK/1cyu4p9sgoGjN1KzG//tfv70moLMdrPX4V/o53VAK6GlUThDPZDLiYc73FNTTNHw7ELJNbXp6esXjWg3Q+aGBgQE8+eSTsr/1LOlYEczpu051ur/7u79bdRPMBuzZs+cKYFyO/Jf+G9PWMpminCgJaRQroU64RJf0z1FwMlkEYYA3jxzFy68d6+gUPvyBbfjYk/fCQlNayaQmTYlYiUAZ3e1GFNIidBucLN1eeq7oM7/yGhg3P8NAT1Xx+Dtr5pR5NSlgggzT4utZCOQSpZMtn8q+EkYJaszeUMFOxYh8RuaeROXSFifKbcxeGMtYqrZxzEy6PIltyWKXIjhBOkk8uATyfhPpRk3omL30JiMgYMq8AGVwkwjZTEyk4dz06F+HNrU4qEEH89CgZ7pJ8ZMDR2tjHitb68QNj3V/khJ5SsJmZBlBaPYG0GVi0l06GYEuoHcySt11NjwCawH6atH5cql1/huBp/W9/eflonbWI+Owalp4tINv/Ld/WRPQ6Wi23PG1T0L4eyv5LY3MCay5XE5e/JkvgnprlJ4eBKNzmrBQUGalZS1A5+c+/OEPY2xsrOPrtTTZiSJh1fM4yFP42te+tuo2Hn74YRG0aSf6tf7e+rP41AuRLILFOrYJDiXiJHOcXvWuYyMO60DsY3ahih888xqaa6Tie0ou/uf/4SCczJBM1GypAftCetOqiLh6HHZ/BMv9bVgOW/uu1h+/AtQThz/TI85oMinomiM1tqsb0DAXghyNXZipYD1dNOA5kSEBjnK0ZLN7Js1umzS7ADlLB5KiJvjzLfUmN61ehlRmAFpAn7hok+zXa5IfYQ2I5mWSY44hIb7RpIb1evahG0m4pG5NNT0jurPhheMWVBB7M9CoA7YRrJH5XJLhoCOdgLrLSQV1AEzKPTZ5drNrAXQXVoZStd2lkxHoAnono9RdZ8MjsBygLxfprhSdLxeJtwL6Sj+3puFDr46IYJ7avmjg29/98arnxHaz973vfUvrpMeXgnk70KfglUbnjMgJ5Pl8fumVRurLATpNWCYnJ1dNN3cC6Kylf/zjH+/4erVG55xMcB9nzpxZs5vgwQcfRLlsJEPbyX6tQJ7+TWrHDM/Y+iVmHwR21o1tOG7WtIMRiMEI3jCfz1+cxk+eO7Lmufyv/8uHYMWLsMWEhDXtDBRV27zzQMmDk3sUtvtQUqddA9Blb5JbT4Rf0n5ssRlb81hWW6EV1GORjmV0zpq5kjQ7Mxhi9cr6eMxJqydROcFQGPAi9JIIvkiqPFFpFQxkKj42cq4JmGtGyNEslOUj4vZCeiGYyJyMfAPmNmE1mbhyYmBU9CTVv6ElhvYriJv0ca9BOUaMh9mNKOT2WS8w2QdyD5iVEXlaIcGZd8F0Edvh7CQDK7d+YaYNHfod8KEuoN8BF3GznsL1is5bQb0dwPl7+6s1Yg89pjArQnBaUo2PFf7l+z9bE9DvvffeKwA9BfN2UJfnaQJsBGtG4QRvgjk9y/nizwT45SL0ZrMpIJqasKx0YJ0AOs+dafdOrVVTQGeqndE5j4HH8o//+I+rjs+hQ4fkfFpJgMsBefpvBnOMa57RBqdIiwXHzRjHuNhnpVcY2o4AWggLEX783JuYnF5c9Vj+pz98FENb6OfNFq4KbHqHowa4OTiZPbCc94vk61V1/ZatbiTq3sh9J6psMg5anNNYx47YY75UM7fFRpUsdEmxJxMMwwmQqvfSvCIFPtAFjekOOweFkgHnoIqYfunKkxY5CtUxQUIPeDeTEOaEzW62KV3xEaVjC7DYBSCp7/Ut0prnLSD2pwBFtj3FdJiR4GW3E4tjRuJmQuFmWKvnMZho3ZxPmhEhplOaNwun2AX0Tq9EF9A7HanueusegfVG5ylQLpdq7wTIrwD2MEQoTOGapDqjJWl41vEC/PCZF1c9H6at2Uu+3NKeYWhPt6d18xTM0/fWlHsr0LHnnBE6j3+1pRNA5+d7enrE3a0TkOK5pLVzTiyq1apoyH/726tzDA4ePCiTk1YiYHuk3vq7ADqf1lFSB7ZJwmbal2BuLEgJ8Daj1oQFzsj0+MlxHH5r9VbFP/psP3Zs3wKVGYaVY9gfELngZLbDtukmRvJaSvoyI7wakW/dX/SNfCDJAIjxDYGQuWaCqGi/J73qTPIL4Y1jlrTQp1mClEAmQG8n0qxZo3LnLwLxHKCS775vLIbFGY6RuZORNLdh+ZMgR7Dn73nYGQL6+tPtAub+AmJvHJDInC1q7MHXCEMLUchpg6mVO+STZBPveSvV0yfZ0JQ5DKpTkjYrGQO31K2hd/oV6wJ6pyPVXW/dI7BeQG9Pu7en25eLxvlvrP22g7nvVaQeG9EvXcDcWLGGoYcwCPGz5w+vCegkfS1H9EonHukGWkEtJcKl6fbWCD0lxrUCXWrCQpvStZZOAZ3bYVsZmfprLSmgp+l2AjrJed/73vdW/SgBnVyBlNHfmnpfKQUvfd3s6ZbaMfvyxTpNiHJiQUpw0kzFsy2Lme8I58fn8MrhE6sey7/7wt3YuY2ABVi5PjjZQSiHYD4Ki9KuCQhuOlCXknjqvkbMNmUJw6pPwE3S7JfLypcFYGQQEwlbDpYjE6OYJLTYOMNFYRO0Nuf8wOa1clzYjmGwKxBAKeyiEIcZxHEOTrYIS1Lg6ywtCJjPI2qOIwovQmEGWtPbvkqpPjGziWMXyhmCcnbCzQ6alL7U0XkOTK2zh958FwTMdVYU+Cya3JS6bWtr3cdLzyK9Ul600y101+uOwDIjsFa6vRUUl6uft7emtUfo7SC+9HsQwPfpWV1LIg86TzEqjxHyAUfwD0P8/FdvrQnolFRtB6rW6K4VKFJgawf0tIaepttTEEw/SxlbprjXis653/UAOlXjPvKRj6wpB5tOmlJAr1QqEqF3AuicoKwE6suBqHwnRATF1H+NsUloasnC2DZ935KShzFBuXBpFq8eWQPQf++j2DZaBHlcttsL2xmG7fS2kK2uVOjbDKn39i8fxyYFceNjkNTFr8BW84tpMWNNP2GmS+N6JGAOTVnkqpjJBB4p5UztO3CYTSG3gClugqek89nOlkMUurAzRbi5gskSrGfREcLaBPy5I4iDo9DxRcQ+a/eRJNE1PCi7BjevgFwRjjOIUN+PTPFhU8PX7ENPwZyEUNbRc4iivGRWnGwBTr4rLNPpJelG6J2OVHe9dY1Ap4DeSi5rBfbVyHArgnkYwG9WEElkzv50wwImgAuYB3ynN7XGcy90BuiSFk5U3lrbzdrZ3Pxbym5PU+5plJ4y3FNxmfSzBHGCJ73HO1nWA+jcJ4Vf1qqltwI66+cpoP/zP//zqofEGnqxyAe0EczpVAkvBa6Ycqgi2pKSz0xvOqNMizVhiqdYwPjkPF498t6qx/Jvv/zb2L59AHYmD9sZhG0XBSxWI+stRTSr9NB3ck1u1DpGcKZlSZjoyxLzdISoSRe644i8E9DNM1B6RtjxgdqGTP4ROPkRE8WLYAvT7DbCICPRuZvvgZsvrhvMqTHvT72FYPpZhMFxxHEdbn4ITmEb7GwvlN0DbRWlTS6YOQ7EL8IdqgFOD4Lqx1AcIVGR1q7MTNSFoAedRxgUJN3u5EsC5hsn6N2oq7N5t9sF9M17bW7rI7uRgN6aXk/BPQwYkSwiChqSYiegC5gHAQJJs/uIwkjYvvzDs798c80Ifd++fVeovLUDVyshrFVMJiXFpUCeRrJpNJtG+QTQd999t2MhlfUAOsefGQaCupDOVlhSAiFJcesBdHYAkFHPc11LBe+qSZsQGSkAk7ReURJU5EiTHvDECIXQQ0Lcq4ffXfVa/f6XP4Kx7aNw3UHYTg9s23iUr0TYS8e/9f1K7FxnyvkW3qkSic++Bn/mx4BVg5XbATfTg5BKcbWLiNTLyPVth8p+EZZFoIwQawehb1LamWKfROarqd0td3qxX0Xz3E/gT/0UMWaQ6bfhlljLH4NNIqJFVT4y2lmPLyC0tqJx/lVkij+A7YZoLPQhM/A/Iltkq2INmt70cR6hl0fg28gUy8iUytKf3106H4EuoHc+VnfumkK6uUy+SengV6pHre/0rwegpwzs9t7z9lo6wTr0FhFHDYSSZdQmQpfI3EdIg4ukd53ReaQ1fvbc2jX0e+65Z0kMJo2+U1BOASMFjRTsU5Z7KiLTDuatdVz2e3canXP01wPoXJ+mLQR0eqZ3CuiLi4ti3bpWhM62NfahtxL9eO7tdep2MJeMQNKZQBCXnmxRQiMZjHKribWofCc1pqYW8Orh1UVmvvJ7H8PYNk6+SgLmK028WrMqdwKoh5ULaJz+B1jWMTj9jHKzcAqPJWS3CLDH0Jg6hkzhBSj1FKziIWGbh34BsS4i29MHJ1dcN6M99itovPs1NOd+icyQBXckDzvyUZsJEEb96NlyNxx3aIk/L4IyVOdTu1E9/X8iV6qKFsHk6U9gy4N7YLklhGEOfj2DwFMC5jk61+XoT99d1jMCXUBfz2jdMeumkVCijCXqWkZcgg9ck4VMNKKlsmcZKUapr3VWY+sU0LmnlWvoSSRHEKZSl44FqA04m1R60Kwg9E4i8k8hCm3ozG5o9EorEPXCTUuQicwN0BtW749/+utVryZT1ZQ2JSCnr+Wi0VZgbwX11glAa8o+rd+uJfO63MGtF9A5rjwHvlaK0tsj9E4BncIy1LtPe+vbywnp8a9EdOR1oXJaQOMSqqjJNQ0SnX5TFmE/+OTUHF59/Z1Vr9WXv/xZjI3thuOYmn463q1lgOWMcTZjLb3TR4w/exze+a/DHbiIWhM493YNsxMaO+8/iH0H75bvOTXb/UqIuPodaLUHmdEvGzCPi8iU+yXNvl4CnA6baLz9/6BZfQH53f1AzkV13MOJIx5q8yHCWGNw6zbc9fB96OnrEZ16098QQmf3oP7OV5HtXQCcOi4+ewA7vvBpxFERzaoLvx7CLZSQ7xuCW+xZ97F1OnZ38npdQL+Tr+4V59ZiPEHvZbKN+chMa3VpjS6VXRRfhAS8RbGpRfOZN2lKyFmBEXttgM52Fx9RJHIaiIX5y8mGIbQRzMMwwuL5t+EUDiNu9CPOjIrxRFA/D02rSHsUkYCFMdkIk0mAidBt/OBHz68J6EwrpwIxKai3G620t221mrK0A/m1ROcbidD5GYq/PP744+jtXV4Pe6OAnurGpyp4rf31rQPbzotIWfXcr0y4Al8AnZKvvL78N7lmYjeaAvrRNQD9S9i6dWzF8sjtXEu/6sS1RrBwEt7EP8DtOSMZiepCFlMXA6gwRG5gDKN7HwTEz10hnD2LKHoN3tx25Hb/W8S6gGzPgNSm1w3mwSKa7/4XNOrPo7inXwjqccXG5EVgbpIe7I6I49BSdtehg+gbGkjU3ozqW2wNoX72q8jmQ4RYxPnv7sSu//4P4VUdBE3IMeX7CeblNcmcvzGP7XWeaBfQ1zlgt+PqwjQV20JGuawhE9ATJabEutAITBjCjPl/6nzEzGciy5isk4K59L8mYG/+7fKyEUCXaD1uyEuibXGCSpWmIoRBkLSgAYuXLqA++TzKY/S13o9INU19PHZRnT8KZe8RDehIJ+Q44wGCIGR93ca/fn9tpTiCVgpYfE/bztZq12pPx7enehlps3beCbO9dUzXG6Gnn+V5sAVvOdOWawH0u+++W0RzVlPAW43oKP3vfhOh7yFkJoXAzvJJ5BvyYhRiYpIR+uoExi99iYC+dUm0p52odyfV0qn+5k3+DEr/ApbbhN8gmHpYmApR7Ctj+76dsIr3ATE13Ovw5n6AsOZgduIghg79G2R6NhaZU/inceo78Ka/i/w+dhBY9HmBCh0EkYPpcQ/z0015tpQHx7Bl3wG4GdrTpiYrQFCpIvJ/QCVYzFyoonr8IIaf/jT8eoRMqReF/iF534ioze34XL4Rx9wF9Bsxqptom1rXoeKatKkImFNhRXo/6bls0uytvsjpDWhU1RjFG8MGgqsxfzASmMZB2UTqMhGgiYI0D18mFK2nD92AeR1xwFo4+4/Y0nI59erTIlOibWpeB5g+8QZyhTPI9IwAzhbEOkCtUkPQmEE266FZCeD0PWrEKjiViRWCSCGKLHihxr/+y7+uGaFTyz3VYk8BvbVVayXW+2rpXe6UbWqsna+3Y3SjgM7onC1sPIf2ZaOAzto8lfTIdE/Hpr0lL91XCurtnQuXCY0eAq8p0TnJeb6USkKEUYBLl6bx6uurExgJ6Kznt5c5lutOWJKibdHfT4/zlovNrPHcMGYnk9DxBOD/Gs2Zk5g6H6BRDTC0awT9w2XxerfyDwrRLKy+jMAfx+SRMjJjn8LWBx6Gs4E0O8VuosVTaJz9OjIjs7BcDVAsJrBQnw+xMOdhYZpaAi76RssYHh2EW9wF2DSH4UmxCTGCN/k87OwsdODh7X+OUN79UfTsux/Zcj8Kg1uQLfRcs7zuJnr03pJD6QL6LRn2m7FT3kkVIKoYsQrWsAKqUeVg2XTjSp2lDOAZ3BNB5UQO0pg5CIjTKEKA2iZPydTUJR3PnlFTa7cUdaH570bG0WwzFVu98nxb/z39OaY8a7Ag7TSgepR83tT6A99HFDBSp8EDfa9ruPj2cQzs8OE4fYBbRBzOYfL0JfhBgGw5RM6J4EX3IdtLsFeG2RsBfqgQ+AG++93vrgnoFGdJW89aU8utddrliFYridFwh2SS082Mfd/rAXQC3fj4uCi5cf/rSZcSSD/wgQ9g79691xXQDxw4sCRrm050ViLGLQfqqSgQz43kRb/ZgO/zRf4Do/QAFy5O4NXX3lj1Wn3xi19cAvQ09d9eS2/VE7gdyXF0TIu884ib78LCOFQ0i+lT5+FVGSbbQiAb3r1TlN5gb0fgH0YUTWHirQCLl3bgns/9kQDner43cg9HPuLGJJSmlOwEVPATcW4LPSVR+eI4J2ER+rcOon+0H/kCBYIsILMbsBPJVh3Dr7D18Ijoyc+eDHH65wq7P/V7KG7djsLQ1i6YXydI6AL6dRrIzbUZKnLNA/GMOSzqKft0aSpBOTkoZZjErCeLmEUSrRhw5l1MxjHVnYxXMwFR0rUquVklQmdknmowJzaHEvlTscuoQHUG6Jw4VBF7C7SJgpbJA4/JJP6Zjo1CozAWR0zp1SVSnz5zCYWhDEiEZWQf+k0szDZgWR4cN5YoorlYRm74QUSxgzCJ0KkSRzD9p3/6pzUBnc5lrcIwKaO7nQDWWhtvfWAu9/DsxISl9cAIehSf4Ys/12o1IX3xWFZrR2s/OUbSn/70p696oF9LhP7AAw9IhM4xalXBa42C26P09s4FRul8SWTue/C9BvxmU6J0P/Bx/vxFvPLq6gYtBHQy+Vsj9OXS7svV0tPvfut769itFwCv+3OA6npRUyasiN9D3HwPKqBYi0JzoYHm/DysrIt8eQRuoV/sgWNXIQwmcP5wE7PvhrjrY1/G4P4HNgDmTQHzODgBO78XOjoJVfuZKNBNna9jccpHz9AggmYT5S0DcFyNUilvsnWZXYBFQNcIa+8hit6GspuojSu886MmerYexK7f+h3kB7dsiJx33cf5DtlgF9DvkAvZ+uAUtahoGog8aEVtZ4J5D1SmBzo2jlYJZi6dPZWnDPGM0XAgalJktUvKPSHEEWSNh3GqVGUidHFFSiUcZX1G2TRdWJ4RfxnoqeC2CE3tabFVNBE5TSuEyOYbjWtJ1YZ1KF03bHfKVsY2oiBGJnte1K4Wxs/KZ4JmiL4drkT1YX0XnIF7EWlL9KQJGgY4fHzrW99aE9CfeuqpjgG9ExBgypxCMoyy11o4RlyPqXkCHsec7+ln+XuqSrdcbXy57TNKZ29663I9AJ119BTQl3OSawf11tT7lYDuy7XxGKkHTQS0cj17Dq+88vqqw/WFL3wBVMZLuxBaiYvtaffbiu3eAuYKi4jjS9De21A+PcLHjN0oZ93Kh4pq0A41XscQuf04+dPnMHeqgp2PfQxjDz2xbnEWHTYQNSaAaBxR8xdwC48hDl6HiiYRejbOHj4JpS04xRKCeg3ZQhGlkUH0bhk2vJrMNih7EFHtJKLoMFQugjfv4L2fVVCdyOLeL/5H9O2+2/TAr1dqdq2b5zf4711Av4MuvtGAnocOZxEHFYnEY08Ddg8sl/UpRuTUSjbsdsK1xMIC5mznCiU6khZgsWfki+Q0iM+0gDkdn4QRbxllp5TxLpaIjkTzJkJnWjixS1xmjEVIJFoAST5xxOifufyIeQOp3QthjKlyCsQEDZGzlH+KxXMTcahRnbmI8ugwIr+CsFERUKcPdt9oHrSS9tW9sIvbEUV2SxRoQOMf/uEfVr3y1EFfDtAJXGl72kqR+UobpgnLhQsX1hSS4fFxXZqltD7sWgE93QcBitF6J2l4Au9nPvOZK7Z5LYBOPfc0Ql/O67312JftR09aEHlePOfU8Y0tfQLsnifliVdeeWXVa/X5z3/+CkBvTbunXQerqfytlVW5JYBDrkhUB0JKuZJXUgeV2TTOwbJqUJGC1j6Uot1pCXCGEfgWFs9XUN7xII59/7vY9tATGNx7r/itr2fRYR1xYwI6noVyTsMb/xWywx8GmsfMxDtycOnN4wgas3KfZ0v9yA2OoDQ4ADdLnXgH2h1FKEYtx6CzAXxvB07+5Cxmjlew64OfwK6nPg2322e+nsvS0bpdQO9omG6HlZiSnoIVzYtdKNN0IFA6ZI2y35SWlTQqMV7PlvgxKmNuRL9ltgx5FGBJUvD0KyZYJ8Au5hlOknJn7TyNxBMA57qMnDkBiBNwvwLwrxhCEttmQbUpgEpSZjLBg2GGgLVT0aqGRhRQhIJGE1SdsqEckxXgy6/NI27Owe3vgSIrHmTyh4j5sg8gtstiwdgeBRIovvnNb64J6CSSrZRyTwGCG+nkgd+JCQtBb2JiQtLqy21zOUBP1+PxsM6/Whqe677//e+/Ikq/UYCeZg3S42vnTaRRemsdnWOUAnkK6idOnMCvf726ZgABfWho6CoRoFaBmbS2f5j8tUMAACAASURBVLuk3QmqiOakXk1JVSrCMSNlWRNww4vQuoDY7hVvm6CygMXJGUQYxOJkDXs+/LuIYgvFweF1K8AhSiJzmqvYlGN9C/6lw8gMfQmW9wYU8jLl9huxRObUr8gWS6K7zwk97BLimIS5i1DZOSgXaFS24fRzF3DpnbMY2L4XB373P6HQP3w7PFRvu2PsAvptd8mWO2DWoaehwjnEUUXMEeIghsr0wrJLAuamHc1EwsTytD5O4hkFPQKyyMW5kH9PSG2smVvGFcsAekp4SwVmTBTf6pqkNYlxBGlDbpMI/wpV6gg6pGcyzVP4t1iMOagQJmAuZDFOOthaV4OtfJkgpPsRnp3U5/mKxOWJExXtcLvkB7gIonloeytUZq9E+mmNNk23Eyy+8Y1vrAvQ0zrxShH6Wl8juqkx2pQUadtCsOPfWSdf7u/p6ssBeuumCJ6M1Ansy00IuG22d5EbwPUkU5NEyan0a6fCMmS5LxehtzLdlzuG1kg93Xfr9eG1SV8E9+PHj68L0Nvr6O0R+u0A6ALm4Ry0qkHHTXEHJJgLLdWOYetTUIu/Bqpz0r/tNWNUF13EpUdQ2vNR9GzZIzap617CBmLPeJlrqwmFBiLvMILGK3CdP4BtVcRFTWkSYBNeLejb7kI7ZWhVhK6dAOwKVGkf4Axg/uwMjj/zAuYvjqNnaAyH/rv/jJ6tO7qtaeu+OJ19oAvonY3Tpl1LItt4UkBSC1O8htgLYWWYZi+YpLr4UrIazlawBFBIXGEzCcVYPAqwpKCfnKqk0w2Q07Na0ufCZidQm98NkCciM5pmGARoR7yZlaKXMdPvJp0v67ENLWTbShMA/ZCp3hZBcVKhgyUwpwwowgos1gbtrLSeKVppkcQnpDmm/cgLSCcWDYDp+wxdmzQiay+gti6B1XKA/vWvf70jQGeammDeznJvBYa1vhwELoL5chaprKvPzMwIiK0V6a8F6OlxcDupEE77NpkaT1XebgWgc5+tvempjG862WqN0Dkm7NdfK0L/3Oc+t2qEvpa5TmuW5Va3rjGzpoM5KKspWTZp7QuMiQ2jYIeTapmEe9D1SQTNBTQWHSC3F/n+MWR7hzcE5jpqQHv0UG8AdhNKN2TSHeqjiNVb0DNArvxl6OwIVDwN6Aa0lYPSGUBKXsegnUuwi1uBzAEoax+8BQ9Hv/8dTB4/ikLfIB74/H/AwJ57kk6Yte6a7t83MgJdQN/IqG2Sz0gNTU9As3ebYO7XEDVDWG5eUtOWFRg2uqL4CmtbLEvzXYynEYce/CYJcGzrihJ/ahPLm3Y1Eq8MsIvQzBLL3bRN0ZbRALpjJgvgPlnTyyV95Em0Lylyts1Ni5IUj4FMepNqZ6nAEwKcpP7ZJhPMw7L4++Xan0wWuB2xfySwJ61btN608ohZR0QBET+jrSXt9tZ0e2uE/vd///drAvpHP/rRVVPurTX01TbGVrVjx45dwfrncc3NzYER8VpA3mmE3h6tp/X1NN2cAjjb1x566CFJUd+MCH2lWnqadk+vUXvKPQX0l19+edVr1QroyzHdW6N0Hst6iXGtgH9Db/3Yh44qgOUBYcNklrxAMliOazJlbAsVdzICMK1LwxzCZg5Wroxc78C6yW9yPnLPLQCqCVicHDcgpLgohF89gVxfBcqqQlfPIWpkATUES5VAol6kKlD5HliFewB7D3Tcg6DG+76E+nwFx374LcSBh3s/+ftSzzdtrd3lRo1AF9Bv1Mje4O1yhq4YmQcT0FENceM0gvo4bCeDKKLjWARL0m4ESTpbObDcPrjOXol6tZWXh4U0rpEgR54bC3KMvDUjcxuWbQhwIirDWrnUsBnlU9edBDnTuibRs9TP84CdvZxyT0l38BGH84i9aqJAZ9rSCMwaEUI/cdqiQYdehNJ8sBgRFEZzfACbKN9o2ZFBTw6AdkjUy0Nb/YAqIVZ0bOL5UPvdEOvaU+5pOvdmAjrrwGl0ThDjzwTz9S6dRujtwE6QY2Se1rWZdSDjna1eNxvQV4rQU2Jce4TOiVAngD44OLhsDb1V1W85xbgUrG85MY5tmbFpu5Q2NUofs8sDnGgz1W7uN2k11cyo0Q7Yhe/lxKo0V+6D5WwgzR5Tka8OBWbNTFsoJwvMkkV+gPrCAvIDz8BRn4BytyB2KrD0rEzKNcpAXAAidpUAzfkKGjOzmDnxFpxcD4bvf1za6vp33o3i0NZumn29N/wG1u8C+gYG7VZ/JI4XgfB5RNXjwhLnjSgVttCFZM0I4rGpXeuIRBr2ZTPiBlC0YIUR4sAG7B2AXYDKU3PZpOJN5G1Jqj1tZUuJbiZCJ4AT1Bmbm/Y0ZWckzU5wFRaMSiJ3abs5jaD6PPyZEG5+P3QhBxU2Af8sPG8GYT0Ll2m8wghgiXK7gLmyyAtIqu+pWYwI33CiwV0wrZ8HnCHAonsUH2amjaeVcCXyokm7Whqhkz1+swC9NTpnep3sdR7HRqK+jQB6634YkbN0wPFhD/l9990n1zsdIx7rjaiht2cg2uVgW7Mo7TX0d955Z01A/+xnP7vulPtmUozjeBCkNZjq9kQJkT4EjMQtxfvXlK749U8zWiSJBk0XTq5PbEY3BObCVeF+6lDKk3fEZjIReuSzBPLMiNXbyESvwF4sA/n9AL0SKNQUNOBXZ+DNTaA6cQnNeojMyEHEUR7NZoitDzyFvu374WQpZNVdbsYIdAH9ZozydduHhkeCSvgc4noAy43h1+uoTdhwMYzMyH7YpT6obA7QFaiwBpWJoVl3aywiqJ1FMN9As8q+1Rh2zoLtWogDDSu/HXaJXsYETNbXjUgMRV2ERceUPTvgHBdxohhHYCeYWzYtGE1a3/SjmxR90HwBqL+GsP4YcqM7Ae84NEVenBD+3FuwsxbcbAF+00MwPg03sw3W4AGjaheTiS9PsEReNoZWrNNrKDcjIjkiLWlRyILnm7S4sd0nAfU0Or8sXGJY1DcT0Fk7n56eFiAnYF7LslFAT/eZpptZX+/r6xM5WEbrtxrQWydd7RH6egGdEXmrK14r0721dW0zATq1F6B9IcAJz4QZNZonKTofMn2dyC8zmqblbKAReg7sTA9ceoa3R+Zyz3Tg6S4e9CzbNUxNnC+xGw4Qc9LJ+4+hAnk67puwF9+CqixCBQR9ZuoV/MCG77vw/Cw8vyBkuNzAPcgP7EBxyy44fBZ1l5s2Al1Av2lDfe07Chq/ghP9EpEXInZ8+Gd9hNYuFHd8iI3iUMGEADlT8ALITIlzdk9xluicEF4iqXHH0KFCWAvgTddgMR2f13D8CFZ+DHb/TsBxoSOCpImKpe5uGwEZIcZJpJyRCN9280uM9pQk15w5Cwc/QtAcQab/QWhMATFzhxbOvnMCtdkqbBUjU4ix6x4XkWshrPnQMxr2lsckzShWrmAZQMu+5OHmZKHI3HcGEZOQw/MR3Gc9/jKYtzKo2wGdUeDXvva1VS8I+9CvtYbO/fzqV78S0tt6ZF5XOrBrBfR2YP/gBz+I/fv3y7HdSJb7chE6j6V94rVcDX0jgN6JpnvKf2h9bx2f9mvQKc9hI3e5gCr1IQjYMctOBFED5kYByny3mW2L6EcQWMKTcQs9LTXzxBKZ90uin75EWF1O4EnKXdynIcBpTf2JQNzvOJmQfjjxf2CGgHNqZhHOAc0JqGYDmu6FIbNhNoIoC88rwY/64RZHkRvcjnzvIOxMNzLfyPfhWj7TBfRrGb2b+Nmw8Sqs6Fl58Dquj4V3feS3/DbcgX2AT23ncZlJx8r0mV82SSHgXUIcXjB2qWEM5eagWfcWq2ItGu/hVAOhp+FkySa3oDNb4PSOGSZ7YpVqvI0tSblTD145JaMdzbS7yMAaNn3YXMDca99D7z0KcbQVTu9eqCjpM1cxLhx5C4U+B5H2MThWAILA1AVdTjw0rNk89OABszmpIVpyXpw4KGYDnGHEwpInAc5EIimYp++t9fNbBeg8htdeew2nT5++Lt+U6wnoAwMD0r7G2vOtiNC7gH75K2GiZE5cYwPqIvpERUTOVNm+yRcnQBbiiGqNWdi5ggHzJG1O/QV2jQgvhX4ISeup6UZJVRtblRuZBSB4e7Co36BpTUwDJENWTQGdR+nY5NEYOyZm3gyYN82zQ7sImhYaFaoZZpDrHRJyXhfMr8stv+6NdAF93UN2sz9AcZVZwPs6wJmx3URzyofKfxi5gX3Q4Vlp8VIWW78Uy9BmRs//W8YEdXHqGM6+20B50EG5zCgXKJQJyomrGWffjILDGJVLVTgB6+g5xHDgjhxcEnMhe1w+Q1Ka2wOH9oiSZjeKctJOE1XgzU5j+s1fY+uDlGfNITPwfqi4jiAMYYMPjjOYuxSjWVkUEZl8XwFDY3l5mNjOMKzCBxB70yJ2wxOy4ANOAcqm8cSQSe+r3FLU216TTaPz1pao9raomxGhp98UAvrrr78urOVrWa4HoDPSpJUqSXGlEkVAGPUZnsHNrKF3AuiM2I8ePdpxDb013b6a/OtK0Xkahd/01jWpn5uIWHLZEp0zOiYXxoA5OTEsddkscbmusMUpNsOau0i/ipwzgdcVQCcPhosRfEolnE1mTQCbYC4ROsGcdXR+nsS8NN1vyl22zVk1D4BbY1soj4uTDmbDbASehaBG73ob2d5B5MoDG2qbu5b7ovvZyyPQBfRN/W3gDT2HxswvkcWb0ocdwIc/3ofCvk8C8QSscFGUm2QmLw8CcxszcK0tVnD88NtwLQUnS6c0R2b5YRzAdWzsuceBm89AOabmxoy4Fdvw55rwZhtws1koXYA9fL9RnGKa3cnCzpRhMTJPzFlMak8ZA4mQGtwOzj73IsYONZHtJYFuJ1SG0X4IFdC1aVIeNJGTRXWmItFJWKtgcGfZqM3l9gP1SyIfyf2KoYxdAqw+aGV63NOoPH1vT7m3stxbNdzTGu3NBHQeI5ntTL93ouO+0lfyWgGdQEUxGIJ5umwmQG+Vfk2V4n4jAF3APDJqT6xrC7Cb6JwlL+NuSI4KW9cStnvoQwdVKKsBy05AHySTMhpP9R8MCMvvIuGctKMuKTNyv2xbNWBuBJ14HMwW8GPMFCSuh0lZK+bfhHxqI2QNvcHPWsiU+pDt6euC+S3Gky6g3+ILsPLueZPOQTcvIVz4MRSoeU5GcggVPYDMyF7E/nmZf0t/NskrUnMz7WC87c4efUdkIeG6KA8MoDY7i2xPAbliFtX5BrbtsuFmI9OWJjc8t8JUn4LjWWiMV6BtapeX4Y4cEAIcwVxlctJ3blTgDKueJivsNwXVouIA82fPojp+Dtvfb0F7PoB7oApbgZCiFPPwGxpz53j8TPE5Mnno37MDFiMOewi+dw52nopXI0k7XO8SmLfLiC4XoROoRJSjheXeWqO92YDO68wI+PDhwzh//nzHveet349rAXQS4T7xiU+IzWjrshkBvZUYdz0AvRM9d5kGJ0Symx+hE0iZvUkm5TI/N10elE8W/oi0dpiom/dZ5M2LJLKyGR1Tl6EEZbEMxbuRyXFT/jKAzvtbRCiSbFraosq6OFvjjDKjgHlSuxcVRv4s6XcD6iyH8V5lNM5kU9jkvi1kiiVkSlSlNOqD3eXWjUAX0G/d2K+yZ0bmU6IYVbtwHLn8K0KEYb93FNiwnbvg9I4CTMVztqxZv2KcbtLeTJ9FOsLFk2cRLMzAymSw7b4C5i6EqFbq2Lm/DEvRfpNAy89Q7MVIw8asw9HtjI8F34F/qQntWHBzg3C3Pgo7kzcCMlKXS5L70aL4lGsUgdgwZmFncOrnv0ZuII/RB4cQN85DBWNAbhtsusEpqsa5CKMGwqaHQu+AeQixD1ftQ6xfgp37sGlhUyUjiJMIzdyugM7xIihTzvTtt99eN1FuI4DOsWKK/bHHHkNPT89V37kuoCdmQ7cS0OVGMqZEBlgTkmdiRWzcDM0imu5NWqkuUFEdlkPgZmSeT6JzOZEkKqd+g8meCZiLWqTRaZA0usxiZKsmOyDAToMnBgkpFyep4Uu6naI2DCqk1C9UHSdfhFsoSeagu9z6EegC+q2/BlccgTim6SnocA6RV8HcSy+huG8STtIaFkRV6Gg/coM7BfBlRs7PiPgLo22NyPflRvXrCzh/7D1p/1IZF/0jBUyfm8fo7h6UBjNQoZGC5QMjUoFJr9GS0eL2KCTjQPsFRH4RGbcIVRqFnetfUo2T/UULpsXFKgD0Ndc+wLYy7WL23CwuvnUUxd4RbH9oGzLFHLQ3hTjOwkIByuWDwIjZMFKI7CJsvw4vPIxM+X5Y1v3SkkZRHJVMINLBanfvWo7lfqsjdGYH2Nfd399/1beMbWyUNKURS6fLegGd7VvsN2eanRF668L98+/lcnnT1NDTlPtvXITeemGE0JqC8pXfjDQyj6N5mTRTs8FyCrDcnBDfOMlOrJXkPlYC4gReI4nMjhdjhZwINolBE58bpj3NuDUymEjq+Qm5lhlAKe2L9wJ/Nil8y80ax7ROWuQ6/ZJ317umEegC+jUN3/X9MFtWLMwg9meAuA6/soDZl19H330BnIINxC4iVUVYGUR+yyEgXpQb12Jvqky0maYjYUWJnKOOJhB4GtMXpxEsEjg07GIWKlDIlPMo9boo9PTAdg0ZhvwXOpVJrZwzcrsM5eyB5WwRgp0Om9IuYx4CbH2bF8Yre8HjqCosW9vNIYocRKERtZk8egoLFy8h1zeMvU/9G1hOAB1dAoIFaNShaIcqkXdDSgax2w/HzkDbd8GyBw3RR2r1Vy63A6DziOmexrr5rl27lgxR0jMhcL300ksYH6fN5NrLegCd/eV0VmNbWuvCSQZJemylI9BTQW6zkOK6gL7ydyAOmoi8BZlAi5qbEEYzsF22cRLMDVnVeKaYurm4M2gLMfPjnKDzWcG0eBKpm4mDAfiUg2P6zpMynpTxCfB8sVTO/WTMM8d2YbdNEtf+BnfXuNEj0AX0Gz3CHW+fTNMpIKCfeQWRX0dztoK5I+8hty1C33b2qOag3ADRZAP2tiegwAmAVNFNuwsFKQQACaYLQDhuyGcqj2Yjhl+tIKg1JG0X8i72LMSujZ6+HAZHySJnLo2fYA87xaAGYRfuh3YYYVqw2daiCdyWcUwLOevPiyuatkKJFvickc4XmRgUoOFi4eKkAHdhcBSzp4+gf2w/bCdAplyW9hbDOqa2xjxUOAXdsxXKObQUlS/Xw327ADpH4s0335TWO4I6/cPbAZZ1YkqcSt/9KtFOJ4DOceE+aCm63L54LEz5kxi3c+fOTcVy7wL61Q8LacMUMJ+H0ovQsZFlpZUwfc4tyh+LC6KTpNwZjRs+AAl15NyI4hzJciLVzO4WEuuStDytkJcAPmmTY2QupTvDsmdZLhJLZNfsk50u3ai84yf7zVyxC+g3c7RX2JfpQ51E7BPMq4iDKiKPfsMak68dg840sfMRLVGvk6E9aAVojiI7uE/6SKWFJORNntS0WTeLjAObaSmLYImUawaRW8TcqXNAqJEdHEJ9cgo+vdN1DtvvHYQlJBsG6XxQDEK5OwBni4BrFC5AxRegddG0qSIDratQjpFr1T4fIKy+0wmtR8BeHiSJf/rCxDjsKERQO4+MVQUzhdmMBSdHej2gsgPQ5YdhuXetGJGnf7idAJ22qFSMY4p727ZtotLWCtwE8nPnzknP+mqtbWsBOseEKXZG5qk9ajpeVMd77rnnJDKnaM4jjzwixjPdGvomqaEv82xIwTz2F6RmTmnWmBkx3t8iGkUnRN6nTLVTltkYJHERP4OAlshEd65LrwXT7mZT4ZGf5/OCf2NQIKBu7JNN+YoZP6PSSIVGEZQSZcgu8W0TQMaKh9AF9Ft8dUShKZoEaH8a1aD9BiKfdqElhF6IS79+BWGziS0HbeR7jZ6zKsQIZiqw83fDLgwg9MkuT4gvlE1llB5egkXxB5vuUubGlVSb1mxnx/ylaWy5a6e0vM2eOg3tBVCFHmzZWRa7Vc7GyZrVdg+U3QfYWxHOvIi4XIUdHpB0Hy1LYTNKdw0DnzaPoi9ThmWVpc5GIh+FMsikEWU5kYblgyOADmuwVBPK7YPKbJGauqKM6woPt9Z/vp0AnQ/VkydPSj2dUqQUcyGwt0fjbG1jCn45m1XJeYThim1vBGeC9N13371kwpKO15kzZ3DkyBFQS5619AcffBC7d++WP3cBvTNA51jdSLW4q2ewMSK6KPpngPAsdDQPHdMQpRfKGgDYxsbpuuMIqAug26YHnSl2mreYe8SUrORetLium0TYiRBUKhYloJ2INKU2SBIgUMjGbP+mnv8tfi7frrvvAvqtvHKUXIynBdj4iv0m4pBs9h6jwhR7uPirF+F7PtyCxrZDGUTUOM8EsOwIwWQdGDgEW1TTtPEWl4l1DCu4ZJyaBD8VvKbG5Jlx9G/plxaTysULsC0Hbn8JtckZuDqEBwdb9u6EnaHbmmlRMQhtI8rsRnzpJaCf+34QoE48GbZWRtLsYRDJ71qVYUt0zlYb9r0bsQzLSVJ1YntqBC9Mryt/p3Jd8Sri23IAfjtG6DxmgjmjdNaruTAdzhQ8zVJaF44XRWi4bnupYTlA5zqcIFDGdWxs7IptsUbPVD49xblfrjs6OoonnnhiKYLvAvrmA3SqsEW141DhYUCfgI5PIwoqUHEZ2qYZ0TaAromSOcsKSJu2NttM0ALKuJLYyno56+niZiQTPZq4SNaM0bxIOhvCaQr65uZkcCBTmG5q/Vbiwwb23QX0DQzadfkIU+XxLBDRrrCO2KPbkSVyqgRi1sosHWP+3EXMHXsXkVLo3eZicC9v0Bix5SOCB+uiB4w8BO3kYTHdbQVQJNeFU4jsGLaoxdgIgxhzZ09BRRZjeNg2+0ojRKGDbM6BTSMWAMP77xV3NrFN1bzZKcsK6MweNKcOwxqow453G+12kuFCGxFJNw512vthWwRmM/unCAXrcLR0ZaRuHiRUpaO3eWwidqbqrYI8WFZb2sHtdorQ0+j6woULmJ2dXQJqpsVZx+7t7b0qBc+o+o033gAFVtLIqB3QOQY7duwQkxVG6K0L2fNpz3v673ygP/nkk1f0oncBfXMBul+ZQ+3dnyHf/ysodU4AOgiGoNydBpjDRSCagFXIws7eDSv/PlgufdBdicyjsGFS5bQcFplWY3XMNLukzHnfsoaeuCLyXZTlpIfdEOa6y+07Al1AvwXXjtKJYqIikXkdmjNq6i8zxc2e8pj94YRXDb/h4ewvfinRbqRjjN7jIj/CFpMAmvKOURPhdB1u+QGo3Ag0arBEN30CKnbEUEW80ZWLxkIFXnUGUaMm5g/8uLap9c7ougel0V3SWibiLoYum0hSFqCy+xFc+j4wFMK2HoDWeaK8kGZi5vQt9pGzF5bpelssGNkGI0QasTpllGDA3LyTLUtf9qIxe1ljud0BnafHVDpr5YycW0GWvuRbt269KlVOlza2tlUqFQH1VkDn76yVHzp06KqR4/rPPPPMFfvhSqydMzpvzwh0We4GxFYTlmn9+1rf1Y3+PQ58XHzuH6Grz2LrgXn4MUF6G9zyk1AZTthocUZSaxVhk2n4s7DzW5EpPw7YI4ipBSFZugTMpWeNZDZTM2d0LnV0UX3kZN38btpCyZIn2a1V732jZ9L93K0agS6g3+yRFwZpTaJyzZtTrAjJQuVMmWpRxgdZFJoIp3GE+VPnMXvmlAAstc+3HRpCftBFHE/Ccoxuezg7D8vZCbfvXijW28JJo9tMfXfpP+XNC1DsKfbZr+4iopfx4ix6tt8HO++aZhdqPHOmLmI1SfuLMwrt1RAEP4fVU4aNh4AoJz3vYGQQl6Esw97mg0NHvkwSxKIykasU1rxEAgTzrKi+YSmaX/si3AmAzmjr7NmzmJubuyKdTiBhPzjr2qyxty5kfr/44ovS2pYCOgVinn76aQwPD181cKyV06GsfeE+Pve5z0mbWhfQTVTe7rR2KwGd9/zcyaM4+a3/G9sfX0DfmINIDcDJfQhuD9s3q4lhinSMG8/05gIaM4fhFB3YxQ/DyozCknuW0qxJzZv3H/9NQJ3SsaYUJn4MAuYEd0bnBtBbRWzWviu7a2y2EegC+k2+IqyLs8dcB6yfE8wJ4iaNzhm4aRMxbSPm3yirGuHci79Gs1ZHrAMEUYgdDxxCeRsJMCegVQDHdhA3FhBXFdzeg9DZXlgUnkGQGDdEhoHOtjTH9KTSgIXgraixLiE5b36+0wvZNUqR9rDoNvszP0aGYjRWGdAHDQvWoaBFn4nME9Id63+XLReNpvRSbyy1oW0qzWUB1swTEk4nl+BOAHSeJ6NnptNbo/T0/Am2rKvTNKV14bmzpv7KK69Iep6qb3xvXZZLsbf+/cCBA+Crfemm3DdHyj2ozuPcL/4FF154Bgc+r5AvKmhrKzJDT8MCBZs4yed9mijJ0Ss9ihF4C6hNvgUn48Pp+22ozHbTpSL670yt02gpdVsjU50RuiHGmeic77RUNn3s5lnUXW7XEegC+s28cuztJPuU0XnsSSQr7kUEUabZqebEHyVSJ780MUZAjMr0LC68/gpUzJsUCKMmBu/aj6G7dgDeO9CuB9vpA6wQ8fwF2H4Ruu9e2E4JiGqIgwXEcV0Am5GzIcoYswcRimC0LRF9smeCvTMMRTOX2R/CLccISWyLtwBqLzR7zvSAeRhwm7aFyGfKz/gnS1aAD5+0x1yMHvLQrJnbeemfX89ypwA6z5mA3lpLbx0HPoBJXGMa3lynywu14Fl3b1d9Y2qeLW+M/JdbGP0vV2fnupsR0MkbuJ7mLJtdyz1oLCKqT+K9Z/4/zBx9FYe+lEeOwot6BLnhJ6HiZqLrkGiuU+OBmTAKzHgXEEVTqJy/BCfTB3vw83ByPQm3zTDbRdKZmToCecJnMYQ5dp0QzGn8klggd2vo63ksbbp1u4B+Ey8JTUuotmaidAJ6kKRe6aoUGenVxCjBhkg7HgAAIABJREFUJNLNDSzGCHGE6eMnMH/hQiJAEiP2A+T6ejH24APIl8hU5YSgBKhFAOOIq2eh6zVoZwxWZgcstoVZaeTPaNlkAiS9zwcEncwsupoVTERQfRex9w6soRJiEuR0D6C3AM52QA1J6txEAJYYRsj+05d02PH4GaUzsshC23xwrC8yTy/PnQToKfuc6fTlFgIQI3C2trWDd/v6VH179dVXV+1fT0Vk2icImw3QW81zUkAnh4C696stX/rSl6RksZJ96mYGdIK5DmZFg+LEj36CqXffwMHfKSM/EsAOtsAd+pBk7hiZC1mWk/v5eZx84x3EzXH0jwQY3W6JQFPlzCyyxQNwt31cuCzSqpa2rQkpzkTnnMwbDgs14Ano5LgkbWvdGvpNRITrv6suoF//MV1xi6yXiw+xpiwrX3ygJyl2kWk0rUWt6XapmJG1SlFWz8PFN95Cc25abm0htdG13M1h+yMfRL5v0GTMhBgzhSiaBawaYm8KyqtC+wFs1S995So/bIRfbHqaU13KF+tTTaW2cA7KmoMuF2HRKjUeRBwPAPE5aOdhAGyXIXPdKMoRzCW1LuWCyCjDJh2wRjGO9XKCeX5dafbWgbyTAJ3nNTk5CbLel1PBS8+b8q1kwfO9fWE9nSl4RvurLSTbPfroo8tuY7MDOsVwvvOd70iZYqWFE8o/+IM/ENGe2wnQmZmLmhVjOayriP06TvzkFxg/+gbu+VQJg7siWEEvnPLTiTSrMGXkde7YUUyceE/cz5qejz33agzflUe8ECGYqSLT/3E4I/dKGcz0kSdp9qRdTVEQSmVhJWB+md2e+qXfxIdid1fXdQS6gH5dh3OVjZENTg9j7QkDXGwLdSBp9tT9yNgVJkprjMyTlLskrxNNVUYx5176NUKZHDBLzlY3F1v234eBPXcJN96Q2+oIozkj40rxF9sXBrzSVeh4ERY/H3qAQwclRtAApdt0piA3ulJsJRsE1CgUhSrClxBlDkDhPmlxMcpznDtwu4wDEqcmoyiZ2DAm5g+MzFk3v4blTgN0DgUjT4LWagujS4L6wMDA0mpUnvvlL38pve3LRd3pigS4hx9+eElEZrn93KqUe6uZDln2nKC0RugcF54jZXFXW0gMpC3saoBOoqH0YCevdkJcOxnuRtunskecxktxQJMVkt08BE0f5186gnOvvow9H9mF7YdmgTAH23oMKtcvXSnCvYkuYfy9dzE/tYh8fwGzk3VU5n3c/6iLvu0ZNE/MQYW9cHZ+Fna2ZFLsTKczQhfiLdtNL0fmYocqtsuGHGeIsN3ldh2BLqDfrCuXADoNWMDUu4A5Qf2yXaEm0YU19TTdLrhorA6ZrpdoPQoQhzHG334XtdlJidDzmRK2HHoM+dGtaE6cw8L4abE07Nm6HU42A5s3MolvNuvY3AfjezLSmWpPpF7BmzkrpDnpSeVnQg+q8hp0dhzo2QGtPwVFprrYOlqIQt+0+ogOrHF8o8GKSb0TzDVicYFaXv1tPUN/JwJ6Kgm7WpTOMeIY07GNbWcXL16U/nKS4FYDcwI1hWaYbm8Xr2kd980C6Cw/8EVQZ3vfD37wA/GNX2u59957JQNBQE9BnROZ9EUw30yALtbGEpkTzGtCjDU25BZmzpzDm9/9Hgb3jeDQ744AwSWo5t2we+8RW2LlU7J5ArVqiPPHabwUom+0gKARotQXoW8bCagh5t+eR7H/QbjbP5QIOvF+ZvqdbHZmynJQdlYUJSUqEAY8s0BdWde1vm+b/e9dQL9JV4iuZDoMQEA3US2j4kiMFkxEYFLuUjMnOMrNxoX1c6baEq/k5J2Z+erkPKZPnkJxdBQDu+6DrTUuvf0CGnPnUd66HeWBMdTnzsHOKWSLBWR6BuFky7CzhcQPmbP2jBGgYHaAkXo8hTiYhNWYEu1o3ZOBKo5B2Z+UFH26GHa+GDSn9suGyJeKTBHSyZxdxiltI0N+JwJ66ny2ktRr6zjxO0LAYx97qja32jgS3BidkzW/2rIZAJ3ROV+0dCUfgAS/lfgF7efymc98RiY7twOgp2BOjwV6IBhiLO8ZTrg1mpUqXvzq3yHXk8P7fu9R5EtHgeYW/P/tnQeQZEX9x38zu3u3F7mD4w5P0p1IEgmWIogCgmACRcWccypzmUrLVGbLWOacCGZEjGXEHDGdkk6CHgd/LqfdnfivT7/ppbfvvQm7M3Ozb79dN7V7Oy90f7vf+/Yvjyy5l1l5gyu2hDTPhnnLrbvtlms32H6r5tnKQxbZ/HkVq1M1cX7dxv6702zrPFtw5IU2vGhZI2Q1sZknpq+RxAseQYEolyGiKnCQU1KZ6bybBukcEXqfZsMlYIHQyyQVQSpOCN2VQXR29MT5zbUk7qQRwoZ0jm294tJFQO5uA0CqR59fOdF229Zbb7StN/zNFixaZssOP9aq1d02sXGdc14fGSnYEDXPhws2NFJ0v+NIU0TFjvRe32nFYR7yBUn9ZNSUSxZYZeFSGxp6qBUKU6uEuW666mDuN2c2cNo6V4M5iV/vZmuL0KtVtj8OI5wIy6WSC/krV/ig0i1baaJsE6WyXXzxxU27hzR85plnugxsfJByCSvzUqCLsW/EMs9knJA5jm3tkDS52LG7t9NWrVrlssI1k+LdfgxbLhiVy4YXPWp8JOMrrrii6W2Qiim/Sgpb8GmGTajCDjP8cb/169e7PPf8xK+gk0ZpWPLXe9t5rHb30vkgSOho1qql3VanbHBtzJnenLkNBzWXm6FulVLJ/nHZFbbjttttzX2Pt8NOXmy1ie02VCW+fJcZVQ3rZduzc7tLEnPb+lts17ZddtCaRbb/inlWnF+2yghPY8V2XrXFlhz2ABs5iKqFbNqpzEaUCcmrcJirWoFMjQXSTKNBk6q9k7U3qMeK0Ps0M57QnaROWBqSunN4Q5WeZIVL1O+OyRtqd/fGTeLTw1C2Rr3joZGkFCK5m6ulMSuPjdmODf+x+YuX28joqI1vvsHq1Z02bxgbOrXKizY0VLBhCrYk1RQbmd1wZEvi0CHy+siI2cIFZvNXWnH47MyCKX2CrrHHccmlJ5snBpd21mktMGMQa4/Wo+q89JH6iL2H0J2NdqJspXLVORJdcslXB4LQ6RcEGiebSetcu4QONmeffbatWLGi5RRNl9BJOcsnJMs4UUt8czzXMTPwYbzUiZ9u477nn3++22iFRB6q3ZsRut/opPW52zb0erXiyiFTRdEoxkSUS6NueRIuyvqtuo3oxn9ebf/59W/tsFPvZ2tOO8nq49dafc8GGxpZ7oohlSb22KYbbrSh0REb3zlu5XLdKpVxO/TIZTa6pGw2XLXqvJqNXb3dhguH2MJjLrSCk8oTM5q7L5kandp9qZmhdROZT3cdDtp5IvQ+zki1TJ51yIVkL5B0YntOyAhiIn96I3GEl9ad5J7Y2V2ltUbZRIgc8RgP8ypJaqoUTUkqLzlNQKVkpZ23WmV8kxXH/s+GIOnhus0bqicObcNDNlSsWhE73vxlZvNXmI0easWRZYjzVh9abQWbmrykj1Dtdau9JPQaL8CSy2xHNr0k/32iKaCcbBXJs4L0SS7skpXLidPVRLli5VLVLr7k6wNB6HQCgoPU05LNhJ1sl9BxoqNYSzttuoTezrV7dQwSOZnywlC1NKe4VoQeOsOFJN5NQncb+fKE1cp7nFTuPlQedNkbkzDPpKgSz33FSnvGbcsNm235XY61hcsXWt02WH3sT1aYWGDFkRGrlHfb9puut12bNlq5XrAVa9ba//3nBlt60GI7cDXPdc3qIxUrb6tY6caaLTrpuTY8ujTJBOf8W0jzTL2F/SSZ92qB7sPritD7CL6TzlEHk7EN5zaX0x1SR2JvELd76Ly6PZFKned7HSLG5j3syLg4VHDV2SolMs7h8JZUU+J3Pkjizi+NMDleG676UtmKqPpdPDixZXvMRvh9vhXqC5OCLCPkf19pBWP3HrZGOB0SRa16R673RqrJXqeMvENVi7dv2WpVxk0N+CQ2N0Gq6IjcE3upnJgrULU7Qm84Xo1PVOySS781MISelRI27mA7hA7ZnXfeeS3j1/21Zxuho94nSQ6SeRim1syGHsahs8Zjc0lsOukmoeNrUiPhEs5vhIbiDNswsSXBnYmpDZW7zwdR2l2yTev/Y6XSHrvTMWtsdPFNVtuz1YYKB5kVx6w0vtt23Hit7brtf1aft8gqE3ts6eoVduChZICjQBOb+iU2fv1mGz3yYTa8bC0VkQl8Dcgcyby7ZrE+vkp1qwwEROj9XBpIj5A6KriKt6PXHLG7h7khaWJD5yFPYrkbH3IvQ+QjpGqk3vm4e5AhM0geqRunO+cp7zYJhMC5+LUkyYSvdcyGgGvXtrkKaWR6KxhkTtgajjMrp9rLXbgM9dn8NSmRCrl7Wzkvo6TYQ7cc4NKmxBE6iXioGV+dcC+nYhHVeuJzUKszloTQ2TBVXQn2qis3W4bQsaOXKy5MrFSq2CVfuXxgCJ2OoH4mvWszZ7B2CJ1a59REb7fNJkJHIj/ttNOcih3p23uyd6Jy7zehV8ulxG+mnnwSTdxUEk80dXWnRaN/uzffYjf/7koXK77i6BPtgMMPMqsgpVfNhlZZobbNSru225abrrbxrRutVq7ZgcceYYuXUxO9ZLV5R1hx3ilW2XazC3kbXnxnqxeqLrGUoXUrTK3M1+5a0XGDj4AIffDnSD10nJ1uQ/fxzGFcMyTliQobtQ+J4qdPKzooTnHh5JIkZvPmzZnz3YrQ8fY+/fTT9yrA0mwBzQZCx/HuuOOOcz4BnpA9oWeROWSfpnKPCT2tIEs3JfSqU7ejSaJcMmGeSWbGJOdEogKnJTXNi1Ye22qV8Z0uidSezZttfMtGW3jgajvgmCOttvtXVqigel9pVtvpImYqJZJBTdi8+WUrFHcmKaRHT7TCglOSxFWEvi1Y4SRzs2XO6VUtvwiI0PM7t7ka2VwgdDYf69aty/R4b0XoxJwTppZGSFmLYZAJfdmyZY7Iw0I0npDDWPNQ3Z7mFBcmlQnV7aGqPY3YQ8w6wdSf5zaZzrsd2zmkfocDbFIxIcnZgNaNfpX3bHPOc6RnRgu1a8PVtuO639jQyDzb7+gzbOnaNVYb+4tZZZEVh1dYobbDCvjfuMRQY1azCSvgdEcY2uhZVqhuNxspWnGUNbF8xsmdcvVCyelgROg5ndi8DaubhI7z2UUXXZQJEVnZiOEmbWqvw9biTlBohRKraa0ZodNXQriQZjtpg0boFKWhjCzSOKFwzmziIkMI7Uoqo3nJO006938LpXPviZ8mncdE3k3pnHlwKndyTdQJpSRDZOLzkZjDyOmCI+uQlcd3uEiVJG875VEnrFbaZaXbr7E9t/zRhuYvssVrz7B5qw82G7vKipVFVsDXhQItVFSslaxW3+38cQrF5Taxc8IKS9bbvEUX2ND8uycJZdRyj4AIPfdTnI8BzoTQfVpRn4kMO3qayp3Y7aOOOsp5T+N0xaffhM5sUc+cGO24ZRE6JHbCCSfY2rVrO57sfUnoEC1S+AEHHOBC4HyFOW8m8WROHx3/NRzaWhG6V8cPQpY45xQHqbt8Ew0nznrVVT0ccpXPiFTZbUnZYcxKVXNq+uqEFQlnq+6y6pZrrLptnUs9MbLyZBtedYzVatdbfWy7DY0cZkUbaTjcjbtSxhM4jW6/3OYfck8bGnnGlIRQHS8QnTCrEBChz6rpmrudnSmhezJHOo8JnSQykCESISQAQfL7viJ0wthINuOJzM96GqFzDOVWCVOjz522NEJHS+CT3Xjp2F/Xq6+91MvPUPL1xJvWDyrHoUGg3jt95f/cP8kXkOQKCD/eF8LPfSidpznEea/3kNC9h3vYR692933tVcga168xNpxVnVo8yZlAYEhSj7zoojUgcxe2RlKkChI9kjxRMGUrFnBKHTfbeZ3ZrnVWrI1bYekxZvufZIX5Y1Yfv97qqPSL+yXXH7vdyrX1NrzyEBue9zQrDh/R6ZLQ8bMYARH6LJ68udT1dgmd41xymUYGNE8QIaHjGIfKfc2aNY7IIQJPniGhh9I5v0NA3c4UlzaH9Bm1O8QetjRCp+9kbSP2fDotjdDJXse9yRqHpgDsOM5jE290PC5eIo5t02F2uNCJ0d/b//QSOeMPydyr2z05t3KI89+nlU2NbejxBqTbKndXVY2iTFVU6VUXhUKuCEfmlXHn+e7qH5BXgZTQroBTUrgJkuccEs8UahNWmNhghbFrrTDxP6sXl1ph8bFmC1Zbfd641W2jmW22emGnFYZWW3HkbCsOH6/QtOk8FLP4HBH6LJ68udT1ZoQODi6hjIvlT36G5BB6urvkMhMTriQnL2/Iym8AuE4zCb1fhE4/IFRInb43k9BRU5OidrqtHUIHM46DDNlAIF2HH3DxXuVxRbOwXzGxx/MVRieExO83CP7+aYQeOsmFfZmp/byZxqEdzN16REKn9oHL2JxUKcSeTj4FF5PuQkPJrVC6I7eCSzaDvb2SSOnFRmGlylarj91otYkbrWCbrTCyn9noaquPLjIbHjUrrLShkaOtMCTJvJ35ydsxIvS8zWhOxzNdQveq3FBC92U6+RkSulfLxip3b0+HxDxxdCuXe9Z0+ZSwW7ZsaUro5557rrNDT7d1QujhhgcS95+wslkaoYdSbzNpPdyUhWp2Py+e0GMP9zQyj/O3p3m399ohzs8J0jm1BVyWx0bJYULOXDIZnOSQyCFz4tEbtR1cvDr5KVyaVjZTSRIaV8bJ5bPYbtXKJisUNrm0rsUFFFA62IpDR1ihQLy52lxEQIQ+F2d9Fo65U0JPU7mnkbpXyfvrewkdsvKqZU/ooWq514TupfQwJWyscsdcgLp9Ji0mdDQXaAdQu3uVOxoNXzwmJNWsELEsm3qszg7J3WtZwnkOJXOvPvfSd1qp1KzY86w66LH03W11++S8EL7m/oONvJFQypF5UMsBUnfllBM1eyLRkyK2PknmLrOcS+g04rI7ukyTtsdsaL4NEZtOdke+U5uzCIjQ5+zUz76Bt2NH92rbWO0e1tv2kjk/WxG6J3N+xqrl0FbcCzQZL85pECy/h4ROf8455xznhT+T5vECC+zlEDpkHhK6x8nbssOQsFjVnkWeaTHfcb9j57RQMvf3jKXxUDsQEnqr2PN2pPOY8GeCM9kMcY5DvZ4UQoK0Ezv5HaWRIfU7KjAinUPod2RpTKoY1il/WqDkcYWMNFYcpuYCqZqpwKg2lxEQoc/l2Z9lY2+X0EPHuNBrOiR1L617D+s0Cd17uoelU5EMm9mJuw0pJEt5UUjVEzokjGR+l7vcpaMkMml9Cwmd63tCRzrnd+4fEronuVClnWanzlJxx8QeEqv/LpbMY+k8TcXeisz7mb89DWe3vlCvk6vYFV5CGqe+QsOG7oi9kd7YZZOrJcVbUMNzjGuuPKL7zZN5Ae/2osi828/dbL2eCH22ztwc7Hc7hO7tsM0c48JUsCGh+7AoyAFp3BO6D7EKk5aE5NPrqUDtTq1wT+jEbZ966qm2cOHCGd/ab37AhOuTUx4y58Pv/A1CDx0HHbU06sHHP7OSt8Rknfb/tGvGCWLCkDRP4mlkHofTxfcLpe80VXtXpfPJWUpqOXg7ucsWh5SNXd2qVnR545LwtaRoU0D2rqgDUjlpY8tWGKYY0/KknrnKn874OcjLBUToeZnJOTCOTgk9tKNDSJ7IQ6/3OBOZJwxP6OHP0CEO8unNS3/viWQc//jHPxzB3nLLLU46J+SuG80TOpgQn7979253H6Rzfk+K2dxB6F7t7seeRZSdEHi4CYhV5WG8e5wwJo3sw/PTNhdhvz1+PbOdp4rqFA9KEswk2eKQ2JOCLUn1tcT5bfKDNM8xiVyepI91pZORzCFzqdm78Rzk5Roi9LzM5BwYx3Qd4+KkJRC7V8V7yTO0D/sEJZ7Mfa5wX+WrHw5x8XRStIUMcvR3Oiles5aH12iAB85vSOSo2SFzfvK3MBIgnoMsSbeZKj1NtR7ay0NSjgk9LaVreEyW5iAm8tiGHuOTJbV34zHz3uxO5e4uSMXCpAIbtvZExe5V857g+Vm2OpoRYtCdJ7vIvBvzkadriNDzNJs5H0samaSFQfn45jDBTFomslA65zqeSDyhQ+Bh7Dl/76f9PJxOxnTNNdc4M8B0Urw2I3QvpfsYfaRyiN1L594s4XEN5yFtTsJ7pTmfhYQebo5i6dz/PybsrP+Hm4IsDUGsVemrdB4C4+zpDcncSeH8azjINYq2JAVcqByYeLvzPytQ6nhho1xxzh94Da9jBEToHUOmE/YlAtNRu8eqd0/uoXTuX/ReAowLf8R5wWNi6AcmECwkxyajWy2xySbJeLwpwhN7GAXgU8D6jHr+PPqRFn6W1r9WUnsoXWeRu3eQS/u+lf2+HTLv77wStkZK2GpDMk+qrzlPeFczHac5ItWgctTs8xtFViSZd2v95+06IvS8zWjOxzMdtXuYgcxL5Z7MvdQJbKFEmJV5bF+o23s9pZ6cPTahSSKWzmMp3Z/bjOBD0m9XYm9G7rF6vl0iD6Xx/jnCtZg9V5DFq9hRt8PtSWgbIWxug+H8NfhA5InvhpoQSN0011vpzISbEBggBNpVu3upM/Z6D/OHh2TuJbM4RCq02Xri6K8U13vwPabhxieMEghTtGYRePz3WGoPST3Er5nUnmUPT/Osb0fFvi/t5r2fRd1BCOA/KULXOphlCLQjpacRekjuoaTpHeI8YceOWGnJUmYZZC27G5J6jF0aWbdL7CGRp71qWknszcLbWpF4GoEPjGTeckZ0gBDoHAEReueY6Yx9jEAnUnpoI46JKiSb2FErzgXuv8+bdB5OZShVxyr0tP97/Do5ttnSaUXuHvs0Ig+/S9MAtJq3Xnq17+PHRbefQwiI0OfQZOdpqO1K6a2kS49Jmud1mkf7XHjxN1OXx9+l/T/eGLSS0uN1mUXsMVHH6vqYtAfSZp6nh1BjGTgEROgDNyXqUDsItJLSQ+kxliRDiTKN0D25p6ULbadveTmmGcYhSacRdhbxx+d1IrGnSd7tqNWlZs/LitQ4WiEgQm+FkL4fWATaJfU0ck8bVCub7MAC0aeOZbnbtNKWZJF/u92OCTlL8m52XJYWoN0+6DghMBsQEKHPhllSHzMRaFeKTFMjhxdtR82radgbgU5J3l8h67x2JPa0eWv1t06+1zwLgdmKgAh9ts6c+j2JQLuknkUmaRJfqxAnwZ+OQDOibpf8s7QnnZK9pHKt0rmGgAh9Fs/4z3/+c1das52233772aMe9ah2Dp1yDNnJ/vjHP9pNN91kT3rSkzo+v9cnUETkRz/6keGV/pCHPMTI8Ba2VmTfrjp3OuMgQctf//pX+9Of/mTPf/7zp3OJyXO2bNniaqNv2rTJbr/9diPxzYoVK9yHMqqLF5Pbe/BaK4Inne2vfvUre/jDH+7G0k6L54yCNT/96U9dEZmwLVmyxFauXGlHHnmkrV69up1LD+QxrPHf//73rmjOBRdcsFcf//a3v9m6devsuOOOs+OPP34gx6BO9QcBEXp/cO76XSia8c53vtMV62inPfCBD7TTTjutnUOnHANZ8sI96KCD7AUveEHH5/f6BDYb3/nOd9xtnvCEJ9hRRx2VecsscunE9trJeCDyyy+/3KVqff3rX9/JqZPHkqntF7/4hf3yl7906VnTGtc/55xz7OSTT55xffRpdbLDk/w8bNy40T72sY+5s1/84he3Tejx7T7ykY/YbbfdNuXP8ZwedthhjgwpPTvb2le+8hVH2Mccc4w9/vGP36v7H/jAB4wN3/77728vfelLZ9vw1N8uIiBC7yKY/bwU9bH/+c9/TrkldbOvv/56J6XG5H2/+91vL+m1nf4OOqEjvVx88cU2OjrqXnaQ23Tssx6LboaldYPQ0cIgfeJxf8IJJ9id73xnW758ucu7vn37dlu/fr0r2kJ79KMfbXe/+93bmdaBOCYk9Be96EUzInSeh0MPPXRK4RoKzIAR2iV+R4vz3Oc+121OZ1NrReh//vOf3Ro566yzXCU+tbmLgAg9R3P/u9/9zr73ve/ZwoUL7TWveU1XRjbohN5qkO2QezdJPOxPNwj9wx/+sEFWbMiQwtPaJZdcYv/+97/t2GOPtcc97nGtIBmY77stoWdhhCr+4x//uDNXNMNxYICJOtKK0Ae13+pX/xEQofcf857dsd+EjnTM5gHJZ183bP2+oMq+7ou/fzcI/Q1veIO73IUXXphpH0U6Q5JHnfySl7xkUIbfsh/9InQ68t3vftfZoQ855BB79rOf3bJvg3RAu4S+Y8cOW7p06SB1XX3pMwIi9D4D3svbtUPo1157rVPV33rrrbZ582ZHAqggcajBeShuWRL6tm3b7JOf/KQ7/Nxzz7UTTzxxr3Nx2Pv73//u7oUjF6riO93pTs7Ozf3SGrZAxsE5ODuxYaB/hx9+uN373vfea/OAKhVC+8tf/mKobZctWzZ5We4NqTZrD3jAA5yq1jfG9dvf/tYgG+6/YMEC12dssNyfTUPckAA557///a/rN33yTmpbt26dkQ29G4SOZEr/NmzY4KR9+oaT2IMf/GDDWTJuaDXwTWCtcA5+GuCKOjfLTs/m7je/+Y3DjXOo2w5uYHvKKadMMfegTaA/4AbGNEwJmIr44AvRySbR29CbSd9orlhXBx98sD3nOc/Za8zgwpjpPx8wov9r1qyxe93rXs7kEbc9e/ZM4sqY6TNrlXvc5z73cWagtPb5z3/eObNy/KpVq9w5PD+scd+YAzQvbFTpG/fiWcDJj4b5xavXuRbPKXOUpqFhXV511VVuXFyLOWdsd73rXd110jRUfj6ZHz7hfJ566qmpz0Ev3226dnsIiNDbw2lWHNWK0L1qNmswd7vb3eyxj33slK/TCB3S+/SnP21IBHgSP/3pT9/UUoGGAAAPhklEQVTL/okzWDMyxTP7KU95ypSXCaSMg1uWox8bAu4VkjYvq0996lOuzy9/+csnv8OB7P3vf7+zoWY1Xmqh9znewpdddlnm/bnv0572NOd85BsE/sUvftF5IGe1mTjFzZTQ//Wvf9nXvva11DHRr1e84hVu0xISyWc/+1lnd05rkDPRBGHjHt/4xjcMr/60xhp56lOf6sgIovrgBz/onLjSGpumhz70oR09bzMldDYXP/jBDzJ9Lw488EB7xjOeYYsWLZrsFxEH+G5AuGkNTJ/4xCdO2SxyHMT/iU98ouXYwfTSSy9NPY7NBfMGrjSO4/g0k4t/frMAZcPFmg43qjjgffOb38ycT7QAzCe4qA0WAiL0wZqPGfWmGaHzAuJFTTv//PNdqBMPJqSMY5X3FH/mM5/ppFHfYkLneCRzfvKC5mUQh0whEX7oQx9yl0B6xzsXqYBdP457EAwNSezoo492v0PAeO3zgiT0Bqc+tAdIcUgVEAbnI/k86EEPmuxfFqFzHi/PuPGy+sMf/uD+jOoVFSwNonn3u99tu3fvNjY2p59+utukEE2AdoEXHJsDJNTzzjtv8rJeHQoWD3vYw1yfeTmCwY9//GOH7b4k9I9+9KNOawDOzAXzAC5f+MIXHMnjSMj8+EZ/+Y6GtIeEigPez372M7dBY1P1spe9bAqsbJzQRKDhwTEL3CB3cPv2t7/tNEFIoI985CPd31kDNEid72l8R9+QVsMNRjsPxEwInXXCumOMSOLMLxs21iGe86xVNC5nn322nXHGGZPd+cxnPuM2PRAiESSQG2uIeUcbAMY8YxBfVgN/NsesSdYKDS917s91WO80sOf55bkEX6TlMAwvi9B5Rt/73ve6ftF3pHE2paxxpG7O47tHPOIRdtJJJ012833ve5/rF5q0+9///lPmkw0v88bxnKc2WAiI0AdrPmbUm2aETjw0pIR67c1vfvNe93njG9/oHm5erKH6PCR0JGqkC4iNlwtx6bxc4oaq9stf/rL78+te97opx/CSIcyGFygqX9R3NIjzbW97m/sdySYOP/PahTh0J4vQ04CETHjBob5E5f+Yxzxm8jBerh4XiAxpxze+4wUOEUFaYTw+mxv+nia5+pC6bhA6JJkVaw6ZMidpNnTIivGGWDMu5pUXPCrfsKGa/da3vuVUzG9605smv4K8IAHUvIwnbBzHhiwmBv7G5uCGG25w6mSk3LD104aepXIHN9YE7VnPetZeEvXnPvc51/973OMeU2LAOYdzMdmw+Qub92loN4yM+WGeaDxjRxxxxJTrtbKhZxH6zTff7DRptFB75S/uw93OPPNMt1HwLetdwPcQOpo0Nnpoy9QGCwER+mDNx4x60w6hxy9qf0P/Us4idHb2nOtVpUjRSCAQX0zqWYQOKaCmROJBfckLwdsEQ0KHMGN7vn9pzYTQkYKuvPJKZ7vEeSxU3WcROhsQ+gyZMX7wCZN3NCP0bjrFtbMw0gjdS69IvkjovIib2aevu+46+9KXvuRuB1FB4EjlzVra2kEKvOiii9xmh00kWqF73vOes47Qvb07i9CJPMB2HzYfaphG6Ej+PAdI394uzvPjtVa9InRU9LG/BKYPtCdZhE4iKjZ9YUOjQpicCL2dJ7L/x4jQ+495z+7YS0LP6jRSI5IZDja+pRE6DlM//OEPnRYAaQ1bfWiT7DWho0LkBQZxpzlPpRF6uAHBXslGA7t72PpF6KhM165dmzoNSNVoYNIIHfvw97///cnzIFdwZ97YNPEyD+2n4IAKnY2Mb0jkHA+xo4INnQg5JiZ0Nj9oaPArwJEL00p8DufNBgm9m4R+9dVXOwkXIs9qIvSevR7nxIVF6Dma5l4TOt67qMKxF6KGxPbHSxuCeOUrXznpCRwS+qtf/WqXLQ3PZtp973tfF08de9b2mtC/+tWvOu9+CAZpJU4RGxM66lTvKMUGBFtzmm23X4Q+k7A1bMFoC5CWIdEw4xwq9xe+8IVTngLMIWwSSFKE2hZpO2yx5BYSOmYN1NvgiX8CuGWZCuYSoYPHu971LmebZ3PImkJiZuPExtE7b4rQc/RC3gdDEaHvA9B7dcteEnqa+hBJjIQdNNLC+gxcIaEjNaLWQ8pDKveSPJI6koqX0ntJ6KGdnfSfqE/jFhK67zPHoHbGIcpvQCC3ULMwGwg97LN3xCK7HBsWGmFcbNbCFp6DiQQnLSR9NgX4T+A86Zsn9BA3fCNwFvPhXjFuc01CD73biawINT2YsbBn00TovXo7zo3ritBzNM+9JPS0XO6hN3v4kgoJHXhx6Hryk588aYuFFJDa8ZRNc4rrtg2dfOFIg7xEn/e856XG3YaETp/jDQgSFDZ4JCyc9nwbZELHg5sc8Ng8X/WqV+0lhb/lLW9xfwudAMGJiAe84mNnL28bjj3dPaFzLTQfpKD10QvYin/yk584L/jYiWouSejNnDfZML3jHe8QoefoXbyvhiJC31fI9+C+g0joOM2hog1V3KgekdiyvNy7Sejeaxu4wzC1ZhJ6vAHh2K9//esuSU4nXu7ddIqbjsrde9njdEW0QdiynAB9yFKa9zZFYiDnLEJHi8PGLSyA4vMR7Gsvdxz00Eqw0cCm71srL/du2dBF6D144emSeyEgQs/RomhG6NiwCf2ixbHm2MMJz6HFccnNcrlnSehhzHscAhaq6SmZ6bNd9ULlHoapZVWq8tOPXfmtb32rC6ejT/TNN6RyTAuoRuNwN//CJy4YXP3GBZMC4UYk/MCGHEvI7S67mSSWIVEO8fs0ipKQjc03yA2So4VqXu8VjwMef/cq8zAELdbWvP3tb3eaCzyiiQLw5gnwR4OBDT/eCHHfXkvomHrwAcDXA60RLbb/h9IxDn98fMM/BDzYfMZhiT5srV0vdzDgWjTyFYQe/2wU2TDGc+H7Md2wNfIPkIeAFj5r/J9nl+9Y73ElRh+2Ji/3dp/SwTlOhD44czHjnjQjdB5cXrz85IULAUE+vHQhWQiI/7/2ta+d4vU8HULn5f+e97xn0pmKe6HC5t7ci+8hCgrI+PSYvSB0H6bWDNjw5eod5zgeKRSnJXDhxUj/aPgBkHjGN5LUXHHFFe6/OM35uG7I33uKTyf7mb/+TAgdskIbAt7MOYSORzuqeMiUsYE/jos+lM3HUHN/NiK+RrlPP8rf4yQrPjaZ78DMh7lxD49bHKPeC0Jv9QCx4WC+Y4dIEi6xCaX5eH+wYa367HfxJrhTQufaPgEPv7MpAnvwASffumlDz7on2hls+t45kkRBYWiiCL3VShrc70Xogzs3HffMEzovLnbXcYNksKkSaxyGJZExDmc1wrnCtKacD6ETckaGNuKYw+YldEiMF5FPRckxXJ+YbyQjQsZ84xji1/F29zHofOcJnftjo47TShKHTr+RiJCWfPOqTDYNZK3zGwRst6iPm9WLpy8k3PBkBtGhJkeyhcR9pTY2I4RdQcxxwhuOQQJEvY1vgCcANizY7HHAw1cgLQd8OxMMoUOSaE7C7GDhuZAw6nCynMVpU5kj5hyPdZ95jHOJwUdqZh7ieHwkRuzuPo87x9N/7o9kSRx+mNucMZNsBPMGuHmigDjBjQxsaEjiyAYvoYMT6yd0NmwHG39MWj10/x1zy3pj/WaF/bHxoXALURBkt/PzzlrCVMB6i8+F0Bk3z1kYssl98TUguxvjDrMKIvH/+te/dhEfaalvMVVgboprtiOh8xxhBvE+JyE+Wc8Gx3BP5h+NTHhPoj38cxiHYkLovBPQroVaHa5HHDohkoQ7hpnzOpkvHds7BETovcO271fmBclLqFUiEDqGipSXPRJJVhEJjkNlyfVCsvYDw0sdVSJJJpo1yJp7QdZZaT0hXggbwkwrFkFKUl4ucV/ZOGAH9SlcuwU6/WFs9BfCa6fEKkTAS5MXPZuVtIIenfaPzQJ+CM3uz6YG0m9VaQviQg3NZiktw1/cN4gZgoMUmbt2xgNuSPNcn3XTrN+QDf0JUw13ik+3j0eLxLyjnUgrXOPvBymzIUpL0sPGjrloNh88E9wHjMEWbUCztc9mKuvZyXo2YmzYsDKfjCsrlJBzMBOlbcD4DvMca3u6m69uz5euNxUBEbpWhBAQAkJACAiBHCAgQs/BJGoIQkAICAEhIARE6FoDQkAICAEhIARygIAIPQeTqCEIASEgBISAEBChaw0IASEgBISAEMgBAiL0HEyihiAEhIAQEAJCQISuNSAEhIAQEAJCIAcIiNBzMIkaghAQAkJACAgBEbrWgBAQAkJACAiBHCAgQs/BJGoIQkAICAEhIARE6FoDQkAICAEhIARygIAIPQeTqCEIASEgBISAEBChaw0IASEgBISAEMgBAiL0HEyihiAEhIAQEAJCQISuNSAEhIAQEAJCIAcIiNBzMIkaghAQAkJACAgBEbrWgBAQAkJACAiBHCAgQs/BJGoIQkAICAEhIARE6FoDQkAICAEhIARygIAIPQeTqCEIASEgBISAEBChaw0IASEgBISAEMgBAiL0HEyihiAEhIAQEAJCQISuNSAEhIAQEAJCIAcIiNBzMIkaghAQAkJACAgBEbrWgBAQAkJACAiBHCAgQs/BJGoIQkAICAEhIARE6FoDQkAICAEhIARygIAIPQeTqCEIASEgBISAEBChaw0IASEgBISAEMgBAiL0HEyihiAEhIAQEAJCQISuNSAEhIAQEAJCIAcIiNBzMIkaghAQAkJACAgBEbrWgBAQAkJACAiBHCAgQs/BJGoIQkAICAEhIARE6FoDQkAICAEhIARygIAIPQeTqCEIASEgBISAEBChaw0IASEgBISAEMgBAiL0HEyihiAEhIAQEAJCQISuNSAEhIAQEAJCIAcIiNBzMIkaghAQAkJACAgBEbrWgBAQAkJACAiBHCAgQs/BJGoIQkAICAEhIARE6FoDQkAICAEhIARygIAIPQeTqCEIASEgBISAEBChaw0IASEgBISAEMgBAiL0HEyihiAEhIAQEAJCQISuNSAEhIAQEAJCIAcIiNBzMIkaghAQAkJACAgBEbrWgBAQAkJACAiBHCAgQs/BJGoIQkAICAEhIARE6FoDQkAICAEhIARygIAIPQeTqCEIASEgBISAEBChaw0IASEgBISAEMgBAiL0HEyihiAEhIAQEAJCQISuNSAEhIAQEAJCIAcIiNBzMIkaghAQAkJACAgBEbrWgBAQAkJACAiBHCAgQs/BJGoIQkAICAEhIARE6FoDQkAICAEhIARygIAIPQeTqCEIASEgBISAEBChaw0IASEgBISAEMgBAv8PGKoVKsJpY6AAAAAASUVORK5CYII=;" vertex="1" parent="S1dnlOND5YFww5NHSA37-1">
          <mxGeometry width="173.33" height="104" as="geometry" />
        </mxCell>
      </root>
    </mxGraphModel>
  </diagram>
  <diagram name="Template" id="c4acf3e9-155e-7222-9cf6-157b1a14988f">
    <mxGraphModel dx="1113" dy="1070" grid="1" gridSize="10" guides="1" tooltips="1" connect="1" arrows="1" fold="1" page="1" pageScale="1" pageWidth="850" pageHeight="1100" background="#ffffff" math="0" shadow="0">
      <root>
        <mxCell id="0" />
        <mxCell id="1" parent="0" />
        <mxCell id="17acba5748e5396b-1" value="frame" style="shape=umlFrame;whiteSpace=wrap;html=1;rounded=0;shadow=0;comic=0;labelBackgroundColor=none;strokeWidth=1;fontFamily=Verdana;fontSize=10;align=center;" parent="1" vertex="1">
          <mxGeometry x="20" y="20" width="820" height="1060" as="geometry" />
        </mxCell>
        <mxCell id="5d2195bd80daf111-38" style="edgeStyle=orthogonalEdgeStyle;rounded=0;html=1;dashed=1;labelBackgroundColor=none;startFill=0;endArrow=open;endFill=0;endSize=10;fontFamily=Verdana;fontSize=10;" parent="1" source="17acba5748e5396b-2" target="5d2195bd80daf111-9" edge="1">
          <mxGeometry relative="1" as="geometry">
            <Array as="points">
              <mxPoint x="590" y="721" />
            </Array>
          </mxGeometry>
        </mxCell>
        <mxCell id="5d2195bd80daf111-40" style="edgeStyle=orthogonalEdgeStyle;rounded=0;html=1;dashed=1;labelBackgroundColor=none;startFill=0;endArrow=open;endFill=0;endSize=10;fontFamily=Verdana;fontSize=10;" parent="1" source="17acba5748e5396b-2" target="5d2195bd80daf111-1" edge="1">
          <mxGeometry relative="1" as="geometry">
            <Array as="points" />
          </mxGeometry>
        </mxCell>
        <mxCell id="17acba5748e5396b-2" value="Classname" style="swimlane;html=1;fontStyle=0;childLayout=stackLayout;horizontal=1;startSize=26;fillColor=none;horizontalStack=0;resizeParent=1;resizeLast=0;collapsible=1;marginBottom=0;swimlaneFillColor=#ffffff;rounded=0;shadow=0;comic=0;labelBackgroundColor=none;strokeWidth=1;fontFamily=Verdana;fontSize=10;align=center;" parent="1" vertex="1">
          <mxGeometry x="650" y="628" width="160" height="186" as="geometry" />
        </mxCell>
        <mxCell id="17acba5748e5396b-3" value="+ field: type" style="text;html=1;strokeColor=none;fillColor=none;align=left;verticalAlign=top;spacingLeft=4;spacingRight=4;whiteSpace=wrap;overflow=hidden;rotatable=0;points=[[0,0.5],[1,0.5]];portConstraint=eastwest;" parent="17acba5748e5396b-2" vertex="1">
          <mxGeometry y="26" width="160" height="26" as="geometry" />
        </mxCell>
        <mxCell id="17acba5748e5396b-4" value="+ field: type" style="text;html=1;strokeColor=none;fillColor=none;align=left;verticalAlign=top;spacingLeft=4;spacingRight=4;whiteSpace=wrap;overflow=hidden;rotatable=0;points=[[0,0.5],[1,0.5]];portConstraint=eastwest;" parent="17acba5748e5396b-2" vertex="1">
          <mxGeometry y="52" width="160" height="26" as="geometry" />
        </mxCell>
        <mxCell id="17acba5748e5396b-6" value="+ field: type" style="text;html=1;strokeColor=none;fillColor=none;align=left;verticalAlign=top;spacingLeft=4;spacingRight=4;whiteSpace=wrap;overflow=hidden;rotatable=0;points=[[0,0.5],[1,0.5]];portConstraint=eastwest;" parent="17acba5748e5396b-2" vertex="1">
          <mxGeometry y="78" width="160" height="26" as="geometry" />
        </mxCell>
        <mxCell id="17acba5748e5396b-9" value="+ field: type" style="text;html=1;strokeColor=none;fillColor=none;align=left;verticalAlign=top;spacingLeft=4;spacingRight=4;whiteSpace=wrap;overflow=hidden;rotatable=0;points=[[0,0.5],[1,0.5]];portConstraint=eastwest;" parent="17acba5748e5396b-2" vertex="1">
          <mxGeometry y="104" width="160" height="26" as="geometry" />
        </mxCell>
        <mxCell id="17acba5748e5396b-10" value="+ field: type" style="text;html=1;strokeColor=none;fillColor=none;align=left;verticalAlign=top;spacingLeft=4;spacingRight=4;whiteSpace=wrap;overflow=hidden;rotatable=0;points=[[0,0.5],[1,0.5]];portConstraint=eastwest;" parent="17acba5748e5396b-2" vertex="1">
          <mxGeometry y="130" width="160" height="26" as="geometry" />
        </mxCell>
        <mxCell id="17acba5748e5396b-8" value="+ field: type" style="text;html=1;strokeColor=none;fillColor=none;align=left;verticalAlign=top;spacingLeft=4;spacingRight=4;whiteSpace=wrap;overflow=hidden;rotatable=0;points=[[0,0.5],[1,0.5]];portConstraint=eastwest;" parent="17acba5748e5396b-2" vertex="1">
          <mxGeometry y="156" width="160" height="26" as="geometry" />
        </mxCell>
        <mxCell id="17acba5748e5396b-20" value="Classname" style="swimlane;html=1;fontStyle=0;childLayout=stackLayout;horizontal=1;startSize=26;fillColor=none;horizontalStack=0;resizeParent=1;resizeLast=0;collapsible=1;marginBottom=0;swimlaneFillColor=#ffffff;rounded=0;shadow=0;comic=0;labelBackgroundColor=none;strokeWidth=1;fontFamily=Verdana;fontSize=10;align=center;" parent="1" vertex="1">
          <mxGeometry x="350" y="42" width="160" height="110" as="geometry" />
        </mxCell>
        <mxCell id="17acba5748e5396b-21" value="+ field: type" style="text;html=1;strokeColor=none;fillColor=none;align=left;verticalAlign=top;spacingLeft=4;spacingRight=4;whiteSpace=wrap;overflow=hidden;rotatable=0;points=[[0,0.5],[1,0.5]];portConstraint=eastwest;" parent="17acba5748e5396b-20" vertex="1">
          <mxGeometry y="26" width="160" height="26" as="geometry" />
        </mxCell>
        <mxCell id="17acba5748e5396b-24" value="+ field: type" style="text;html=1;strokeColor=none;fillColor=none;align=left;verticalAlign=top;spacingLeft=4;spacingRight=4;whiteSpace=wrap;overflow=hidden;rotatable=0;points=[[0,0.5],[1,0.5]];portConstraint=eastwest;" parent="17acba5748e5396b-20" vertex="1">
          <mxGeometry y="52" width="160" height="26" as="geometry" />
        </mxCell>
        <mxCell id="17acba5748e5396b-26" value="+ field: type" style="text;html=1;strokeColor=none;fillColor=none;align=left;verticalAlign=top;spacingLeft=4;spacingRight=4;whiteSpace=wrap;overflow=hidden;rotatable=0;points=[[0,0.5],[1,0.5]];portConstraint=eastwest;" parent="17acba5748e5396b-20" vertex="1">
          <mxGeometry y="78" width="160" height="26" as="geometry" />
        </mxCell>
        <mxCell id="17acba5748e5396b-30" value="Classname" style="swimlane;html=1;fontStyle=0;childLayout=stackLayout;horizontal=1;startSize=26;fillColor=none;horizontalStack=0;resizeParent=1;resizeLast=0;collapsible=1;marginBottom=0;swimlaneFillColor=#ffffff;rounded=0;shadow=0;comic=0;labelBackgroundColor=none;strokeWidth=1;fontFamily=Verdana;fontSize=10;align=center;" parent="1" vertex="1">
          <mxGeometry x="580" y="87" width="160" height="110" as="geometry" />
        </mxCell>
        <mxCell id="17acba5748e5396b-31" value="+ field: type" style="text;html=1;strokeColor=none;fillColor=none;align=left;verticalAlign=top;spacingLeft=4;spacingRight=4;whiteSpace=wrap;overflow=hidden;rotatable=0;points=[[0,0.5],[1,0.5]];portConstraint=eastwest;" parent="17acba5748e5396b-30" vertex="1">
          <mxGeometry y="26" width="160" height="26" as="geometry" />
        </mxCell>
        <mxCell id="17acba5748e5396b-32" value="+ field: type" style="text;html=1;strokeColor=none;fillColor=none;align=left;verticalAlign=top;spacingLeft=4;spacingRight=4;whiteSpace=wrap;overflow=hidden;rotatable=0;points=[[0,0.5],[1,0.5]];portConstraint=eastwest;" parent="17acba5748e5396b-30" vertex="1">
          <mxGeometry y="52" width="160" height="26" as="geometry" />
        </mxCell>
        <mxCell id="17acba5748e5396b-33" value="+ field: type" style="text;html=1;strokeColor=none;fillColor=none;align=left;verticalAlign=top;spacingLeft=4;spacingRight=4;whiteSpace=wrap;overflow=hidden;rotatable=0;points=[[0,0.5],[1,0.5]];portConstraint=eastwest;" parent="17acba5748e5396b-30" vertex="1">
          <mxGeometry y="78" width="160" height="26" as="geometry" />
        </mxCell>
        <mxCell id="17acba5748e5396b-44" value="Classname" style="swimlane;html=1;fontStyle=0;childLayout=stackLayout;horizontal=1;startSize=26;fillColor=none;horizontalStack=0;resizeParent=1;resizeLast=0;collapsible=1;marginBottom=0;swimlaneFillColor=#ffffff;rounded=0;shadow=0;comic=0;labelBackgroundColor=none;strokeWidth=1;fontFamily=Verdana;fontSize=10;align=center;" parent="1" vertex="1">
          <mxGeometry x="650" y="978" width="160" height="83" as="geometry" />
        </mxCell>
        <mxCell id="17acba5748e5396b-45" value="+ field: type" style="text;html=1;strokeColor=none;fillColor=none;align=left;verticalAlign=top;spacingLeft=4;spacingRight=4;whiteSpace=wrap;overflow=hidden;rotatable=0;points=[[0,0.5],[1,0.5]];portConstraint=eastwest;" parent="17acba5748e5396b-44" vertex="1">
          <mxGeometry y="26" width="160" height="26" as="geometry" />
        </mxCell>
        <mxCell id="17acba5748e5396b-47" value="+ field: type" style="text;html=1;strokeColor=none;fillColor=none;align=left;verticalAlign=top;spacingLeft=4;spacingRight=4;whiteSpace=wrap;overflow=hidden;rotatable=0;points=[[0,0.5],[1,0.5]];portConstraint=eastwest;" parent="17acba5748e5396b-44" vertex="1">
          <mxGeometry y="52" width="160" height="26" as="geometry" />
        </mxCell>
        <mxCell id="5d2195bd80daf111-39" style="edgeStyle=orthogonalEdgeStyle;rounded=0;html=1;dashed=1;labelBackgroundColor=none;startFill=0;endArrow=open;endFill=0;endSize=10;fontFamily=Verdana;fontSize=10;" parent="1" source="5d2195bd80daf111-1" target="17acba5748e5396b-44" edge="1">
          <mxGeometry relative="1" as="geometry" />
        </mxCell>
        <mxCell id="5d2195bd80daf111-1" value="Classname" style="swimlane;html=1;fontStyle=0;childLayout=stackLayout;horizontal=1;startSize=26;fillColor=none;horizontalStack=0;resizeParent=1;resizeLast=0;collapsible=1;marginBottom=0;swimlaneFillColor=#ffffff;rounded=0;shadow=0;comic=0;labelBackgroundColor=none;strokeWidth=1;fontFamily=Verdana;fontSize=10;align=center;" parent="1" vertex="1">
          <mxGeometry x="650" y="838" width="160" height="110" as="geometry" />
        </mxCell>
        <mxCell id="5d2195bd80daf111-2" value="+ field: type" style="text;html=1;strokeColor=none;fillColor=none;align=left;verticalAlign=top;spacingLeft=4;spacingRight=4;whiteSpace=wrap;overflow=hidden;rotatable=0;points=[[0,0.5],[1,0.5]];portConstraint=eastwest;" parent="5d2195bd80daf111-1" vertex="1">
          <mxGeometry y="26" width="160" height="26" as="geometry" />
        </mxCell>
        <mxCell id="5d2195bd80daf111-3" value="+ field: type" style="text;html=1;strokeColor=none;fillColor=none;align=left;verticalAlign=top;spacingLeft=4;spacingRight=4;whiteSpace=wrap;overflow=hidden;rotatable=0;points=[[0,0.5],[1,0.5]];portConstraint=eastwest;" parent="5d2195bd80daf111-1" vertex="1">
          <mxGeometry y="52" width="160" height="26" as="geometry" />
        </mxCell>
        <mxCell id="5d2195bd80daf111-4" value="+ field: type" style="text;html=1;strokeColor=none;fillColor=none;align=left;verticalAlign=top;spacingLeft=4;spacingRight=4;whiteSpace=wrap;overflow=hidden;rotatable=0;points=[[0,0.5],[1,0.5]];portConstraint=eastwest;" parent="5d2195bd80daf111-1" vertex="1">
          <mxGeometry y="78" width="160" height="26" as="geometry" />
        </mxCell>
        <mxCell id="5d2195bd80daf111-41" style="edgeStyle=orthogonalEdgeStyle;rounded=0;html=1;dashed=1;labelBackgroundColor=none;startFill=0;endArrow=open;endFill=0;endSize=10;fontFamily=Verdana;fontSize=10;" parent="1" source="5d2195bd80daf111-5" target="17acba5748e5396b-2" edge="1">
          <mxGeometry relative="1" as="geometry">
            <Array as="points" />
          </mxGeometry>
        </mxCell>
        <mxCell id="5d2195bd80daf111-5" value="Classname" style="swimlane;html=1;fontStyle=0;childLayout=stackLayout;horizontal=1;startSize=26;fillColor=none;horizontalStack=0;resizeParent=1;resizeLast=0;collapsible=1;marginBottom=0;swimlaneFillColor=#ffffff;rounded=0;shadow=0;comic=0;labelBackgroundColor=none;strokeWidth=1;fontFamily=Verdana;fontSize=10;align=center;" parent="1" vertex="1">
          <mxGeometry x="650" y="520" width="160" height="83" as="geometry" />
        </mxCell>
        <mxCell id="5d2195bd80daf111-6" value="+ field: type" style="text;html=1;strokeColor=none;fillColor=none;align=left;verticalAlign=top;spacingLeft=4;spacingRight=4;whiteSpace=wrap;overflow=hidden;rotatable=0;points=[[0,0.5],[1,0.5]];portConstraint=eastwest;" parent="5d2195bd80daf111-5" vertex="1">
          <mxGeometry y="26" width="160" height="26" as="geometry" />
        </mxCell>
        <mxCell id="5d2195bd80daf111-7" value="+ field: type" style="text;html=1;strokeColor=none;fillColor=none;align=left;verticalAlign=top;spacingLeft=4;spacingRight=4;whiteSpace=wrap;overflow=hidden;rotatable=0;points=[[0,0.5],[1,0.5]];portConstraint=eastwest;" parent="5d2195bd80daf111-5" vertex="1">
          <mxGeometry y="52" width="160" height="26" as="geometry" />
        </mxCell>
        <mxCell id="5d2195bd80daf111-8" value="&amp;laquo;interface&amp;raquo;&lt;br&gt;&lt;b&gt;Name&lt;/b&gt;" style="html=1;rounded=0;shadow=0;comic=0;labelBackgroundColor=none;strokeWidth=1;fontFamily=Verdana;fontSize=10;align=center;" parent="1" vertex="1">
          <mxGeometry x="490" y="1004" width="110" height="50" as="geometry" />
        </mxCell>
        <mxCell id="5d2195bd80daf111-35" style="edgeStyle=orthogonalEdgeStyle;rounded=0;html=1;dashed=1;labelBackgroundColor=none;startFill=0;endArrow=open;endFill=0;endSize=10;fontFamily=Verdana;fontSize=10;" parent="1" source="5d2195bd80daf111-9" target="5d2195bd80daf111-8" edge="1">
          <mxGeometry relative="1" as="geometry">
            <Array as="points">
              <mxPoint x="545" y="970" />
              <mxPoint x="545" y="970" />
            </Array>
          </mxGeometry>
        </mxCell>
        <mxCell id="5d2195bd80daf111-36" style="edgeStyle=orthogonalEdgeStyle;rounded=0;html=1;dashed=1;labelBackgroundColor=none;startFill=0;endArrow=open;endFill=0;endSize=10;fontFamily=Verdana;fontSize=10;" parent="1" source="5d2195bd80daf111-9" target="5d2195bd80daf111-13" edge="1">
          <mxGeometry relative="1" as="geometry">
            <Array as="points">
              <mxPoint x="550" y="520" />
            </Array>
          </mxGeometry>
        </mxCell>
        <mxCell id="5d2195bd80daf111-9" value="&lt;p style=&quot;margin:0px;margin-top:4px;text-align:center;&quot;&gt;&lt;i&gt;&amp;lt;&amp;lt;Interface&amp;gt;&amp;gt;&lt;/i&gt;&lt;br/&gt;&lt;b&gt;Interface&lt;/b&gt;&lt;/p&gt;&lt;hr size=&quot;1&quot;/&gt;&lt;p style=&quot;margin:0px;margin-left:4px;&quot;&gt;+ field1: Type&lt;br/&gt;+ field2: Type&lt;/p&gt;&lt;hr size=&quot;1&quot;/&gt;&lt;p style=&quot;margin:0px;margin-left:4px;&quot;&gt;+ method1(Type): Type&lt;br/&gt;+ method2(Type, Type): Type&lt;/p&gt;" style="verticalAlign=top;align=left;overflow=fill;fontSize=12;fontFamily=Helvetica;html=1;rounded=0;shadow=0;comic=0;labelBackgroundColor=none;strokeWidth=1" parent="1" vertex="1">
          <mxGeometry x="415" y="823" width="190" height="140" as="geometry" />
        </mxCell>
        <mxCell id="5d2195bd80daf111-10" value="&lt;p style=&quot;margin:0px;margin-top:4px;text-align:center;&quot;&gt;&lt;i&gt;&amp;lt;&amp;lt;Interface&amp;gt;&amp;gt;&lt;/i&gt;&lt;br/&gt;&lt;b&gt;Interface&lt;/b&gt;&lt;/p&gt;&lt;hr size=&quot;1&quot;/&gt;&lt;p style=&quot;margin:0px;margin-left:4px;&quot;&gt;+ field1: Type&lt;br/&gt;+ field2: Type&lt;/p&gt;&lt;hr size=&quot;1&quot;/&gt;&lt;p style=&quot;margin:0px;margin-left:4px;&quot;&gt;+ method1(Type): Type&lt;br/&gt;+ method2(Type, Type): Type&lt;/p&gt;" style="verticalAlign=top;align=left;overflow=fill;fontSize=12;fontFamily=Helvetica;html=1;rounded=0;shadow=0;comic=0;labelBackgroundColor=none;strokeWidth=1" parent="1" vertex="1">
          <mxGeometry x="350" y="572" width="190" height="140" as="geometry" />
        </mxCell>
        <mxCell id="5d2195bd80daf111-34" style="edgeStyle=orthogonalEdgeStyle;rounded=0;html=1;dashed=1;labelBackgroundColor=none;startFill=0;endArrow=open;endFill=0;endSize=10;fontFamily=Verdana;fontSize=10;" parent="1" source="5d2195bd80daf111-11" target="5d2195bd80daf111-8" edge="1">
          <mxGeometry relative="1" as="geometry">
            <Array as="points">
              <mxPoint x="410" y="1029" />
              <mxPoint x="410" y="1029" />
            </Array>
          </mxGeometry>
        </mxCell>
        <mxCell id="5d2195bd80daf111-11" value="&lt;p style=&quot;margin:0px;margin-top:4px;text-align:center;&quot;&gt;&lt;i&gt;&amp;lt;&amp;lt;Interface&amp;gt;&amp;gt;&lt;/i&gt;&lt;br/&gt;&lt;b&gt;Interface&lt;/b&gt;&lt;/p&gt;&lt;hr size=&quot;1&quot;/&gt;&lt;p style=&quot;margin:0px;margin-left:4px;&quot;&gt;+ field1: Type&lt;br/&gt;+ field2: Type&lt;/p&gt;&lt;hr size=&quot;1&quot;/&gt;&lt;p style=&quot;margin:0px;margin-left:4px;&quot;&gt;+ method1(Type): Type&lt;br/&gt;+ method2(Type, Type): Type&lt;/p&gt;" style="verticalAlign=top;align=left;overflow=fill;fontSize=12;fontFamily=Helvetica;html=1;rounded=0;shadow=0;comic=0;labelBackgroundColor=none;strokeWidth=1" parent="1" vertex="1">
          <mxGeometry x="190" y="908" width="190" height="140" as="geometry" />
        </mxCell>
        <mxCell id="5d2195bd80daf111-12" value="&lt;p style=&quot;margin:0px;margin-top:4px;text-align:center;&quot;&gt;&lt;i&gt;&amp;lt;&amp;lt;Interface&amp;gt;&amp;gt;&lt;/i&gt;&lt;br/&gt;&lt;b&gt;Interface&lt;/b&gt;&lt;/p&gt;&lt;hr size=&quot;1&quot;/&gt;&lt;p style=&quot;margin:0px;margin-left:4px;&quot;&gt;+ field1: Type&lt;br/&gt;+ field2: Type&lt;/p&gt;&lt;hr size=&quot;1&quot;/&gt;&lt;p style=&quot;margin:0px;margin-left:4px;&quot;&gt;+ method1(Type): Type&lt;br/&gt;+ method2(Type, Type): Type&lt;/p&gt;" style="verticalAlign=top;align=left;overflow=fill;fontSize=12;fontFamily=Helvetica;html=1;rounded=0;shadow=0;comic=0;labelBackgroundColor=none;strokeWidth=1" parent="1" vertex="1">
          <mxGeometry x="190" y="744" width="190" height="140" as="geometry" />
        </mxCell>
        <mxCell id="5d2195bd80daf111-13" value="&amp;laquo;interface&amp;raquo;&lt;br&gt;&lt;b&gt;Name&lt;/b&gt;" style="html=1;rounded=0;shadow=0;comic=0;labelBackgroundColor=none;strokeWidth=1;fontFamily=Verdana;fontSize=10;align=center;" parent="1" vertex="1">
          <mxGeometry x="380" y="495" width="110" height="50" as="geometry" />
        </mxCell>
        <mxCell id="5d2195bd80daf111-14" value="&amp;laquo;interface&amp;raquo;&lt;br&gt;&lt;b&gt;Name&lt;/b&gt;" style="html=1;rounded=0;shadow=0;comic=0;labelBackgroundColor=none;strokeWidth=1;fontFamily=Verdana;fontSize=10;align=center;" parent="1" vertex="1">
          <mxGeometry x="380" y="421" width="110" height="50" as="geometry" />
        </mxCell>
        <mxCell id="5d2195bd80daf111-26" style="edgeStyle=orthogonalEdgeStyle;rounded=0;html=1;dashed=1;labelBackgroundColor=none;startFill=0;endArrow=open;endFill=0;endSize=10;fontFamily=Verdana;fontSize=10;" parent="1" source="5d2195bd80daf111-15" target="5d2195bd80daf111-17" edge="1">
          <mxGeometry relative="1" as="geometry">
            <Array as="points" />
          </mxGeometry>
        </mxCell>
        <mxCell id="5d2195bd80daf111-15" value="&lt;p style=&quot;margin:0px;margin-top:4px;text-align:center;&quot;&gt;&lt;i&gt;&amp;lt;&amp;lt;Interface&amp;gt;&amp;gt;&lt;/i&gt;&lt;br/&gt;&lt;b&gt;Interface&lt;/b&gt;&lt;/p&gt;&lt;hr size=&quot;1&quot;/&gt;&lt;p style=&quot;margin:0px;margin-left:4px;&quot;&gt;+ field1: Type&lt;br/&gt;+ field2: Type&lt;/p&gt;&lt;hr size=&quot;1&quot;/&gt;&lt;p style=&quot;margin:0px;margin-left:4px;&quot;&gt;+ method1(Type): Type&lt;br/&gt;+ method2(Type, Type): Type&lt;/p&gt;" style="verticalAlign=top;align=left;overflow=fill;fontSize=12;fontFamily=Helvetica;html=1;rounded=0;shadow=0;comic=0;labelBackgroundColor=none;strokeWidth=1" parent="1" vertex="1">
          <mxGeometry x="450" y="230" width="190" height="140" as="geometry" />
        </mxCell>
        <mxCell id="5d2195bd80daf111-16" value="Text" style="text;html=1;resizable=0;points=[];autosize=1;align=left;verticalAlign=top;spacingTop=-4;fontSize=10;fontFamily=Verdana;fontColor=#000000;" parent="1" vertex="1">
          <mxGeometry x="450" y="454" width="40" height="10" as="geometry" />
        </mxCell>
        <mxCell id="5d2195bd80daf111-17" value="&amp;laquo;interface&amp;raquo;&lt;br&gt;&lt;b&gt;Name&lt;/b&gt;" style="html=1;rounded=0;shadow=0;comic=0;labelBackgroundColor=none;strokeWidth=1;fontFamily=Verdana;fontSize=10;align=center;" parent="1" vertex="1">
          <mxGeometry x="685" y="275" width="110" height="50" as="geometry" />
        </mxCell>
        <mxCell id="5d2195bd80daf111-21" style="edgeStyle=orthogonalEdgeStyle;rounded=0;html=1;labelBackgroundColor=none;startFill=0;endArrow=open;endFill=0;endSize=10;fontFamily=Verdana;fontSize=10;dashed=1;" parent="1" source="5d2195bd80daf111-18" target="17acba5748e5396b-20" edge="1">
          <mxGeometry relative="1" as="geometry" />
        </mxCell>
        <mxCell id="5d2195bd80daf111-22" style="edgeStyle=orthogonalEdgeStyle;rounded=0;html=1;exitX=1;exitY=0.75;dashed=1;labelBackgroundColor=none;startFill=0;endArrow=open;endFill=0;endSize=10;fontFamily=Verdana;fontSize=10;" parent="1" source="5d2195bd80daf111-18" target="17acba5748e5396b-30" edge="1">
          <mxGeometry relative="1" as="geometry">
            <Array as="points">
              <mxPoint x="530" y="192" />
              <mxPoint x="530" y="142" />
            </Array>
          </mxGeometry>
        </mxCell>
        <mxCell id="5d2195bd80daf111-18" value="&lt;p style=&quot;margin:0px;margin-top:4px;text-align:center;&quot;&gt;&lt;i&gt;&amp;lt;&amp;lt;Interface&amp;gt;&amp;gt;&lt;/i&gt;&lt;br/&gt;&lt;b&gt;Interface&lt;/b&gt;&lt;/p&gt;&lt;hr size=&quot;1&quot;/&gt;&lt;p style=&quot;margin:0px;margin-left:4px;&quot;&gt;+ field1: Type&lt;br/&gt;+ field2: Type&lt;/p&gt;&lt;hr size=&quot;1&quot;/&gt;&lt;p style=&quot;margin:0px;margin-left:4px;&quot;&gt;+ method1(Type): Type&lt;br/&gt;+ method2(Type, Type): Type&lt;/p&gt;" style="verticalAlign=top;align=left;overflow=fill;fontSize=12;fontFamily=Helvetica;html=1;rounded=0;shadow=0;comic=0;labelBackgroundColor=none;strokeWidth=1" parent="1" vertex="1">
          <mxGeometry x="60" y="87" width="190" height="140" as="geometry" />
        </mxCell>
        <mxCell id="5d2195bd80daf111-23" style="edgeStyle=orthogonalEdgeStyle;rounded=0;html=1;dashed=1;labelBackgroundColor=none;startFill=0;endArrow=open;endFill=0;endSize=10;fontFamily=Verdana;fontSize=10;" parent="1" source="5d2195bd80daf111-19" target="17acba5748e5396b-20" edge="1">
          <mxGeometry relative="1" as="geometry">
            <Array as="points">
              <mxPoint x="320" y="290" />
              <mxPoint x="320" y="120" />
            </Array>
          </mxGeometry>
        </mxCell>
        <mxCell id="5d2195bd80daf111-24" style="edgeStyle=orthogonalEdgeStyle;rounded=0;html=1;dashed=1;labelBackgroundColor=none;startFill=0;endArrow=open;endFill=0;endSize=10;fontFamily=Verdana;fontSize=10;" parent="1" source="5d2195bd80daf111-19" target="17acba5748e5396b-30" edge="1">
          <mxGeometry relative="1" as="geometry">
            <Array as="points">
              <mxPoint x="350" y="310" />
              <mxPoint x="350" y="210" />
              <mxPoint x="550" y="210" />
              <mxPoint x="550" y="160" />
            </Array>
          </mxGeometry>
        </mxCell>
        <mxCell id="5d2195bd80daf111-25" style="edgeStyle=orthogonalEdgeStyle;rounded=0;html=1;dashed=1;labelBackgroundColor=none;startFill=0;endArrow=open;endFill=0;endSize=10;fontFamily=Verdana;fontSize=10;" parent="1" source="5d2195bd80daf111-19" target="5d2195bd80daf111-15" edge="1">
          <mxGeometry relative="1" as="geometry">
            <Array as="points">
              <mxPoint x="370" y="340" />
              <mxPoint x="370" y="300" />
            </Array>
          </mxGeometry>
        </mxCell>
        <mxCell id="5d2195bd80daf111-27" style="edgeStyle=orthogonalEdgeStyle;rounded=0;html=1;exitX=1;exitY=0.75;dashed=1;labelBackgroundColor=none;startFill=0;endArrow=open;endFill=0;endSize=10;fontFamily=Verdana;fontSize=10;" parent="1" source="5d2195bd80daf111-19" target="5d2195bd80daf111-14" edge="1">
          <mxGeometry relative="1" as="geometry">
            <Array as="points">
              <mxPoint x="320" y="375" />
              <mxPoint x="320" y="440" />
            </Array>
          </mxGeometry>
        </mxCell>
        <mxCell id="5d2195bd80daf111-19" value="&lt;p style=&quot;margin:0px;margin-top:4px;text-align:center;&quot;&gt;&lt;i&gt;&amp;lt;&amp;lt;Interface&amp;gt;&amp;gt;&lt;/i&gt;&lt;br/&gt;&lt;b&gt;Interface&lt;/b&gt;&lt;/p&gt;&lt;hr size=&quot;1&quot;/&gt;&lt;p style=&quot;margin:0px;margin-left:4px;&quot;&gt;+ field1: Type&lt;br/&gt;+ field2: Type&lt;/p&gt;&lt;hr size=&quot;1&quot;/&gt;&lt;p style=&quot;margin:0px;margin-left:4px;&quot;&gt;+ method1(Type): Type&lt;br/&gt;+ method2(Type, Type): Type&lt;/p&gt;" style="verticalAlign=top;align=left;overflow=fill;fontSize=12;fontFamily=Helvetica;html=1;rounded=0;shadow=0;comic=0;labelBackgroundColor=none;strokeWidth=1" parent="1" vertex="1">
          <mxGeometry x="60" y="270" width="190" height="140" as="geometry" />
        </mxCell>
        <mxCell id="5d2195bd80daf111-28" style="edgeStyle=orthogonalEdgeStyle;rounded=0;html=1;dashed=1;labelBackgroundColor=none;startFill=0;endArrow=open;endFill=0;endSize=10;fontFamily=Verdana;fontSize=10;" parent="1" source="5d2195bd80daf111-20" target="5d2195bd80daf111-14" edge="1">
          <mxGeometry relative="1" as="geometry">
            <Array as="points">
              <mxPoint x="320" y="490" />
              <mxPoint x="320" y="460" />
            </Array>
          </mxGeometry>
        </mxCell>
        <mxCell id="5d2195bd80daf111-29" style="edgeStyle=orthogonalEdgeStyle;rounded=0;html=1;dashed=1;labelBackgroundColor=none;startFill=0;endArrow=open;endFill=0;endSize=10;fontFamily=Verdana;fontSize=10;" parent="1" source="5d2195bd80daf111-20" target="5d2195bd80daf111-13" edge="1">
          <mxGeometry relative="1" as="geometry" />
        </mxCell>
        <mxCell id="5d2195bd80daf111-30" style="edgeStyle=orthogonalEdgeStyle;rounded=0;html=1;dashed=1;labelBackgroundColor=none;startFill=0;endArrow=open;endFill=0;endSize=10;fontFamily=Verdana;fontSize=10;" parent="1" source="5d2195bd80daf111-20" target="5d2195bd80daf111-10" edge="1">
          <mxGeometry relative="1" as="geometry">
            <Array as="points">
              <mxPoint x="300" y="580" />
              <mxPoint x="300" y="642" />
            </Array>
          </mxGeometry>
        </mxCell>
        <mxCell id="5d2195bd80daf111-31" style="edgeStyle=orthogonalEdgeStyle;rounded=0;html=1;dashed=1;labelBackgroundColor=none;startFill=0;endArrow=open;endFill=0;endSize=10;fontFamily=Verdana;fontSize=10;" parent="1" source="5d2195bd80daf111-20" target="5d2195bd80daf111-5" edge="1">
          <mxGeometry relative="1" as="geometry">
            <Array as="points">
              <mxPoint x="350" y="560" />
              <mxPoint x="350" y="560" />
            </Array>
          </mxGeometry>
        </mxCell>
        <mxCell id="5d2195bd80daf111-32" style="edgeStyle=orthogonalEdgeStyle;rounded=0;html=1;dashed=1;labelBackgroundColor=none;startFill=0;endArrow=open;endFill=0;endSize=10;fontFamily=Verdana;fontSize=10;" parent="1" source="5d2195bd80daf111-20" target="5d2195bd80daf111-12" edge="1">
          <mxGeometry relative="1" as="geometry">
            <Array as="points">
              <mxPoint x="170" y="780" />
            </Array>
          </mxGeometry>
        </mxCell>
        <mxCell id="5d2195bd80daf111-33" style="edgeStyle=orthogonalEdgeStyle;rounded=0;html=1;dashed=1;labelBackgroundColor=none;startFill=0;endArrow=open;endFill=0;endSize=10;fontFamily=Verdana;fontSize=10;" parent="1" source="5d2195bd80daf111-20" target="5d2195bd80daf111-11" edge="1">
          <mxGeometry relative="1" as="geometry">
            <Array as="points">
              <mxPoint x="140" y="978" />
            </Array>
          </mxGeometry>
        </mxCell>
        <mxCell id="5d2195bd80daf111-20" value="&lt;p style=&quot;margin:0px;margin-top:4px;text-align:center;&quot;&gt;&lt;i&gt;&amp;lt;&amp;lt;Interface&amp;gt;&amp;gt;&lt;/i&gt;&lt;br/&gt;&lt;b&gt;Interface&lt;/b&gt;&lt;/p&gt;&lt;hr size=&quot;1&quot;/&gt;&lt;p style=&quot;margin:0px;margin-left:4px;&quot;&gt;+ field1: Type&lt;br/&gt;+ field2: Type&lt;/p&gt;&lt;hr size=&quot;1&quot;/&gt;&lt;p style=&quot;margin:0px;margin-left:4px;&quot;&gt;+ method1(Type): Type&lt;br/&gt;+ method2(Type, Type): Type&lt;/p&gt;" style="verticalAlign=top;align=left;overflow=fill;fontSize=12;fontFamily=Helvetica;html=1;rounded=0;shadow=0;comic=0;labelBackgroundColor=none;strokeWidth=1" parent="1" vertex="1">
          <mxGeometry x="60" y="450" width="190" height="140" as="geometry" />
        </mxCell>
        <mxCell id="5d2195bd80daf111-37" style="edgeStyle=orthogonalEdgeStyle;rounded=0;html=1;dashed=1;labelBackgroundColor=none;startFill=0;endArrow=open;endFill=0;endSize=10;fontFamily=Verdana;fontSize=10;" parent="1" source="5d2195bd80daf111-5" target="5d2195bd80daf111-9" edge="1">
          <mxGeometry relative="1" as="geometry">
            <Array as="points">
              <mxPoint x="570" y="590" />
            </Array>
          </mxGeometry>
        </mxCell>
      </root>
    </mxGraphModel>
  </diagram>
  <diagram name="Backup" id="bRROAApnIZmG2skujn6X">
    <mxGraphModel dx="1383" dy="1070" grid="1" gridSize="10" guides="1" tooltips="1" connect="1" arrows="1" fold="1" page="1" pageScale="1" pageWidth="827" pageHeight="1169" math="0" shadow="0">
      <root>
        <mxCell id="b3whuuxakCc62VugsMje-0" />
        <mxCell id="b3whuuxakCc62VugsMje-1" parent="b3whuuxakCc62VugsMje-0" />
        <mxCell id="b3whuuxakCc62VugsMje-2" value="&lt;p style=&quot;margin:0px;margin-top:4px;text-align:center;&quot;&gt;&lt;i&gt;&amp;lt;&amp;lt;Interface&amp;gt;&amp;gt;&lt;/i&gt;&lt;br/&gt;&lt;b&gt;Interface&lt;/b&gt;&lt;/p&gt;&lt;hr size=&quot;1&quot;/&gt;&lt;p style=&quot;margin:0px;margin-left:4px;&quot;&gt;+ field1: Type&lt;br/&gt;+ field2: Type&lt;/p&gt;&lt;hr size=&quot;1&quot;/&gt;&lt;p style=&quot;margin:0px;margin-left:4px;&quot;&gt;+ method1(Type): Type&lt;br/&gt;+ method2(Type, Type): Type&lt;/p&gt;" style="verticalAlign=top;align=left;overflow=fill;fontSize=12;fontFamily=Helvetica;html=1;rounded=0;shadow=0;comic=0;labelBackgroundColor=none;strokeWidth=1" vertex="1" parent="b3whuuxakCc62VugsMje-1">
          <mxGeometry x="50" y="50" width="190" height="140" as="geometry" />
        </mxCell>
        <mxCell id="b3whuuxakCc62VugsMje-3" value="&lt;b&gt;Notes:&lt;/b&gt;&lt;br&gt;UML to graph Classes, Interfaces and their relationships" style="html=1;rounded=0;shadow=0;comic=0;labelBackgroundColor=none;strokeWidth=1;fontFamily=Verdana;fontSize=10;align=left;verticalAlign=top;" vertex="1" parent="b3whuuxakCc62VugsMje-1">
          <mxGeometry x="50" y="910" width="1120" height="200" as="geometry" />
        </mxCell>
        <mxCell id="b3whuuxakCc62VugsMje-4" value="&lt;p style=&quot;margin: 0px ; margin-top: 4px ; text-align: center&quot;&gt;&lt;i&gt;&amp;lt;&amp;lt;GUI&amp;gt;&amp;gt;&lt;/i&gt;&lt;br&gt;&lt;b&gt;Frontend&lt;/b&gt;&lt;/p&gt;&lt;hr size=&quot;1&quot;&gt;&lt;p style=&quot;margin: 0px ; margin-left: 4px&quot;&gt;+ list attributes here&lt;/p&gt;&lt;hr size=&quot;1&quot;&gt;&lt;p style=&quot;margin: 0px ; margin-left: 4px&quot;&gt;+ list Operations here&lt;/p&gt;" style="verticalAlign=top;align=left;overflow=fill;fontSize=12;fontFamily=Helvetica;html=1;rounded=0;shadow=0;comic=0;labelBackgroundColor=none;strokeWidth=1" vertex="1" parent="b3whuuxakCc62VugsMje-1">
          <mxGeometry x="980" y="630" width="190" height="140" as="geometry" />
        </mxCell>
        <mxCell id="b3whuuxakCc62VugsMje-5" value="&lt;p style=&quot;margin: 0px ; margin-top: 4px ; text-align: center&quot;&gt;&lt;i&gt;&amp;lt;&amp;lt;Interface&amp;gt;&amp;gt;&lt;/i&gt;&lt;br&gt;&lt;b&gt;Interface&lt;/b&gt;&lt;/p&gt;&lt;hr size=&quot;1&quot;&gt;&lt;p style=&quot;margin: 0px ; margin-left: 4px&quot;&gt;Private:&lt;/p&gt;&lt;hr size=&quot;1&quot;&gt;&lt;p style=&quot;margin: 0px ; margin-left: 4px&quot;&gt;Internal:&lt;br&gt;&lt;br&gt;Public:&lt;/p&gt;" style="verticalAlign=top;align=left;overflow=fill;fontSize=12;fontFamily=Helvetica;html=1;rounded=0;shadow=0;comic=0;labelBackgroundColor=none;strokeWidth=1" vertex="1" parent="b3whuuxakCc62VugsMje-1">
          <mxGeometry x="50" y="320" width="190" height="140" as="geometry" />
        </mxCell>
        <mxCell id="b3whuuxakCc62VugsMje-6" value="&lt;p style=&quot;margin: 0px ; margin-top: 4px ; text-align: center&quot;&gt;&lt;i&gt;&amp;lt;&amp;lt;Interface&amp;gt;&amp;gt;&lt;/i&gt;&lt;br&gt;&lt;b&gt;deposit&lt;/b&gt;&lt;/p&gt;&lt;hr size=&quot;1&quot;&gt;&lt;p style=&quot;margin: 0px ; margin-left: 4px&quot;&gt;Private:&lt;/p&gt;&lt;hr size=&quot;1&quot;&gt;&lt;p style=&quot;margin: 0px ; margin-left: 4px&quot;&gt;Internal:&lt;br&gt;&lt;br&gt;Public:&lt;/p&gt;" style="verticalAlign=top;align=left;overflow=fill;fontSize=12;fontFamily=Helvetica;html=1;rounded=0;shadow=0;comic=0;labelBackgroundColor=none;strokeWidth=1" vertex="1" parent="b3whuuxakCc62VugsMje-1">
          <mxGeometry x="360" y="160" width="190" height="140" as="geometry" />
        </mxCell>
        <mxCell id="b3whuuxakCc62VugsMje-7" value="&lt;p style=&quot;margin: 0px ; margin-top: 4px ; text-align: center&quot;&gt;&lt;i&gt;&amp;lt;&amp;lt;Interface&amp;gt;&amp;gt;&lt;/i&gt;&lt;br&gt;&lt;b&gt;deposit_aave&lt;/b&gt;&lt;/p&gt;&lt;hr size=&quot;1&quot;&gt;&lt;p style=&quot;margin: 0px ; margin-left: 4px&quot;&gt;Private:&lt;/p&gt;&lt;hr size=&quot;1&quot;&gt;&lt;p style=&quot;margin: 0px ; margin-left: 4px&quot;&gt;Internal:&lt;br&gt;&lt;br&gt;Public:&lt;/p&gt;" style="verticalAlign=top;align=left;overflow=fill;fontSize=12;fontFamily=Helvetica;html=1;rounded=0;shadow=0;comic=0;labelBackgroundColor=none;strokeWidth=1" vertex="1" parent="b3whuuxakCc62VugsMje-1">
          <mxGeometry x="360" y="320" width="190" height="140" as="geometry" />
        </mxCell>
        <mxCell id="b3whuuxakCc62VugsMje-8" value="&lt;p style=&quot;margin: 0px ; margin-top: 4px ; text-align: center&quot;&gt;&lt;i&gt;&amp;lt;&amp;lt;Interface&amp;gt;&amp;gt;&lt;/i&gt;&lt;br&gt;&lt;b&gt;track_liquidity&lt;/b&gt;&lt;/p&gt;&lt;hr size=&quot;1&quot;&gt;&lt;p style=&quot;margin: 0px ; margin-left: 4px&quot;&gt;Private:&lt;/p&gt;&lt;hr size=&quot;1&quot;&gt;&lt;p style=&quot;margin: 0px ; margin-left: 4px&quot;&gt;Internal:&lt;br&gt;&lt;br&gt;Public:&lt;/p&gt;" style="verticalAlign=top;align=left;overflow=fill;fontSize=12;fontFamily=Helvetica;html=1;rounded=0;shadow=0;comic=0;labelBackgroundColor=none;strokeWidth=1" vertex="1" parent="b3whuuxakCc62VugsMje-1">
          <mxGeometry x="360" y="480" width="190" height="140" as="geometry" />
        </mxCell>
        <mxCell id="b3whuuxakCc62VugsMje-9" value="&lt;p style=&quot;margin: 0px ; margin-top: 4px ; text-align: center&quot;&gt;&lt;i&gt;&amp;lt;&amp;lt;Interface&amp;gt;&amp;gt;&lt;/i&gt;&lt;br&gt;&lt;b&gt;withdraw&lt;/b&gt;&lt;/p&gt;&lt;hr size=&quot;1&quot;&gt;&lt;p style=&quot;margin: 0px ; margin-left: 4px&quot;&gt;Private:&lt;/p&gt;&lt;hr size=&quot;1&quot;&gt;&lt;p style=&quot;margin: 0px ; margin-left: 4px&quot;&gt;Internal:&lt;br&gt;&lt;br&gt;Public:&lt;/p&gt;" style="verticalAlign=top;align=left;overflow=fill;fontSize=12;fontFamily=Helvetica;html=1;rounded=0;shadow=0;comic=0;labelBackgroundColor=none;strokeWidth=1" vertex="1" parent="b3whuuxakCc62VugsMje-1">
          <mxGeometry x="580" y="240" width="190" height="140" as="geometry" />
        </mxCell>
        <mxCell id="b3whuuxakCc62VugsMje-10" value="&lt;p style=&quot;margin: 0px ; margin-top: 4px ; text-align: center&quot;&gt;&lt;i&gt;&amp;lt;&amp;lt;Interface&amp;gt;&amp;gt;&lt;/i&gt;&lt;br&gt;&lt;b&gt;interest_earned&lt;/b&gt;&lt;/p&gt;&lt;hr size=&quot;1&quot;&gt;&lt;p style=&quot;margin: 0px ; margin-left: 4px&quot;&gt;Private:&lt;/p&gt;&lt;hr size=&quot;1&quot;&gt;&lt;p style=&quot;margin: 0px ; margin-left: 4px&quot;&gt;Internal:&lt;br&gt;&lt;br&gt;Public:&lt;/p&gt;" style="verticalAlign=top;align=left;overflow=fill;fontSize=12;fontFamily=Helvetica;html=1;rounded=0;shadow=0;comic=0;labelBackgroundColor=none;strokeWidth=1" vertex="1" parent="b3whuuxakCc62VugsMje-1">
          <mxGeometry x="580" y="410" width="190" height="140" as="geometry" />
        </mxCell>
        <mxCell id="b3whuuxakCc62VugsMje-11" value="&lt;p style=&quot;margin: 0px ; margin-top: 4px ; text-align: center&quot;&gt;&lt;i&gt;&amp;lt;&amp;lt;Interface&amp;gt;&amp;gt;&lt;/i&gt;&lt;br&gt;&lt;b&gt;give&lt;/b&gt;&lt;/p&gt;&lt;hr size=&quot;1&quot;&gt;&lt;p style=&quot;margin: 0px ; margin-left: 4px&quot;&gt;Private:&lt;/p&gt;&lt;hr size=&quot;1&quot;&gt;&lt;p style=&quot;margin: 0px ; margin-left: 4px&quot;&gt;Internal:&lt;br&gt;&lt;br&gt;Public:&lt;/p&gt;" style="verticalAlign=top;align=left;overflow=fill;fontSize=12;fontFamily=Helvetica;html=1;rounded=0;shadow=0;comic=0;labelBackgroundColor=none;strokeWidth=1" vertex="1" parent="b3whuuxakCc62VugsMje-1">
          <mxGeometry x="580" y="70" width="190" height="140" as="geometry" />
        </mxCell>
        <mxCell id="b3whuuxakCc62VugsMje-12" value="&lt;p style=&quot;margin: 0px ; margin-top: 4px ; text-align: center&quot;&gt;&lt;i&gt;&amp;lt;&amp;lt;Interface&amp;gt;&amp;gt;&lt;/i&gt;&lt;br&gt;&lt;b&gt;adjust_giving_rate&lt;/b&gt;&lt;/p&gt;&lt;hr size=&quot;1&quot;&gt;&lt;p style=&quot;margin: 0px ; margin-left: 4px&quot;&gt;Private:&lt;/p&gt;&lt;hr size=&quot;1&quot;&gt;&lt;p style=&quot;margin: 0px ; margin-left: 4px&quot;&gt;Internal:&lt;br&gt;&lt;br&gt;Public:&lt;/p&gt;" style="verticalAlign=top;align=left;overflow=fill;fontSize=12;fontFamily=Helvetica;html=1;rounded=0;shadow=0;comic=0;labelBackgroundColor=none;strokeWidth=1" vertex="1" parent="b3whuuxakCc62VugsMje-1">
          <mxGeometry x="800" y="160" width="190" height="140" as="geometry" />
        </mxCell>
        <mxCell id="b3whuuxakCc62VugsMje-13" value="&lt;p style=&quot;margin: 0px ; margin-top: 4px ; text-align: center&quot;&gt;&lt;i&gt;&amp;lt;&amp;lt;Interface&amp;gt;&amp;gt;&lt;/i&gt;&lt;br&gt;&lt;b&gt;balanceOf&lt;/b&gt;&lt;/p&gt;&lt;hr size=&quot;1&quot;&gt;&lt;p style=&quot;margin: 0px ; margin-left: 4px&quot;&gt;Private:&lt;/p&gt;&lt;hr size=&quot;1&quot;&gt;&lt;p style=&quot;margin: 0px ; margin-left: 4px&quot;&gt;Internal:&lt;br&gt;&lt;br&gt;Public:&lt;/p&gt;" style="verticalAlign=top;align=left;overflow=fill;fontSize=12;fontFamily=Helvetica;html=1;rounded=0;shadow=0;comic=0;labelBackgroundColor=none;strokeWidth=1" vertex="1" parent="b3whuuxakCc62VugsMje-1">
          <mxGeometry x="800" y="320" width="190" height="140" as="geometry" />
        </mxCell>
        <mxCell id="b3whuuxakCc62VugsMje-14" value="&lt;p style=&quot;margin: 0px ; margin-top: 4px ; text-align: center&quot;&gt;&lt;i&gt;&amp;lt;&amp;lt;Interface&amp;gt;&amp;gt;&lt;/i&gt;&lt;br&gt;&lt;b&gt;IERC20&lt;/b&gt;&lt;/p&gt;&lt;hr size=&quot;1&quot;&gt;&lt;p style=&quot;margin: 0px ; margin-left: 4px&quot;&gt;&lt;br&gt;&lt;/p&gt;&lt;hr size=&quot;1&quot;&gt;&lt;p style=&quot;margin: 0px ; margin-left: 4px&quot;&gt;External:&amp;nbsp;&amp;nbsp;&amp;nbsp;&amp;nbsp;&lt;/p&gt;&lt;p style=&quot;margin: 0px ; margin-left: 4px&quot;&gt;&amp;nbsp; totalSupply(): uint256&amp;nbsp;&amp;nbsp;&amp;nbsp;&amp;nbsp;&lt;br&gt;&amp;nbsp; balanceOf(account: address): uint256&amp;nbsp;&amp;nbsp;&amp;nbsp;&amp;nbsp;&lt;br&gt;&amp;nbsp; transfer(recipient: address, amount: uint256): bool&amp;nbsp;&amp;nbsp;&amp;nbsp;&amp;nbsp;&lt;br&gt;&amp;nbsp; allowance(owner: address, spender: address): uint256&amp;nbsp;&amp;nbsp;&amp;nbsp;&amp;nbsp;&lt;br&gt;&amp;nbsp; approve(spender: address, amount: uint256): bool&amp;nbsp;&amp;nbsp;&amp;nbsp;&amp;nbsp;&lt;br&gt;&amp;nbsp; transferFrom(sender: address, recipient: address, amount: uint256): bool&lt;/p&gt;&lt;p style=&quot;margin: 0px ; margin-left: 4px&quot;&gt;&lt;br&gt;&lt;/p&gt;&lt;p style=&quot;margin: 0px ; margin-left: 4px&quot;&gt;Public:&amp;nbsp;&amp;nbsp;&amp;nbsp;&lt;/p&gt;&lt;p style=&quot;margin: 0px ; margin-left: 4px&quot;&gt;&amp;nbsp; &amp;nbsp;&amp;lt;&amp;lt;event&amp;gt;&amp;gt; Transfer(from: address, to: address, value: uint256)&amp;nbsp;&amp;nbsp;&amp;nbsp;&lt;/p&gt;&lt;p style=&quot;margin: 0px ; margin-left: 4px&quot;&gt;&amp;nbsp; &amp;lt;&amp;lt;event&amp;gt;&amp;gt; Approval(owner: address, spender: address, value: uint256)&lt;br&gt;&lt;/p&gt;" style="verticalAlign=top;align=left;overflow=fill;fontSize=12;fontFamily=Helvetica;html=1;rounded=0;shadow=0;comic=0;labelBackgroundColor=none;strokeWidth=1" vertex="1" parent="b3whuuxakCc62VugsMje-1">
          <mxGeometry x="50" y="660" width="430" height="230" as="geometry" />
        </mxCell>
        <mxCell id="1JzwBhVifGm77u8GuJIB-0" value="&lt;p style=&quot;margin: 0px ; margin-top: 4px ; text-align: center&quot;&gt;&lt;i&gt;&amp;lt;&amp;lt;Interface&amp;gt;&amp;gt;&lt;/i&gt;&lt;br&gt;&lt;b&gt;TokenTimelock&lt;/b&gt;&lt;/p&gt;&lt;hr size=&quot;1&quot;&gt;&lt;p style=&quot;margin: 0px ; margin-left: 4px&quot;&gt;&lt;br&gt;&lt;/p&gt;&lt;hr size=&quot;1&quot;&gt;&lt;p style=&quot;margin: 0px ; margin-left: 4px&quot;&gt;&lt;span&gt;Private:&lt;/span&gt;&lt;/p&gt;&lt;p style=&quot;margin: 0px ; margin-left: 4px&quot;&gt;&lt;span&gt;&amp;nbsp; _token&lt;/span&gt;&lt;/p&gt;&lt;p style=&quot;margin: 0px ; margin-left: 4px&quot;&gt;&lt;span&gt;&amp;nbsp; _beneficiary&lt;/span&gt;&lt;/p&gt;&lt;p style=&quot;margin: 0px ; margin-left: 4px&quot;&gt;&lt;span&gt;&amp;nbsp; _relaeasetime&amp;nbsp;&amp;nbsp;&lt;/span&gt;&lt;br&gt;&lt;/p&gt;&lt;p style=&quot;margin: 0px ; margin-left: 4px&quot;&gt;&lt;br&gt;&lt;/p&gt;&lt;p style=&quot;margin: 0px ; margin-left: 4px&quot;&gt;Public:&amp;nbsp; &amp;nbsp;&lt;br&gt;&amp;nbsp; constructor(token&amp;gt; IERC20, beneficiary: address, release:Time, uint256)&lt;/p&gt;&lt;p style=&quot;margin: 0px ; margin-left: 4px&quot;&gt;&amp;nbsp; token(): IERC20&lt;br&gt;&amp;nbsp; beneficiary(): address&lt;/p&gt;&lt;p style=&quot;margin: 0px ; margin-left: 4px&quot;&gt;&amp;nbsp; releaseTime(): uint256&lt;/p&gt;&lt;p style=&quot;margin: 0px ; margin-left: 4px&quot;&gt;&amp;nbsp; release()&lt;/p&gt;&lt;p style=&quot;margin: 0px ; margin-left: 4px&quot;&gt;&lt;br&gt;&lt;/p&gt;" style="verticalAlign=top;align=left;overflow=fill;fontSize=12;fontFamily=Helvetica;html=1;rounded=0;shadow=0;comic=0;labelBackgroundColor=none;strokeWidth=1" vertex="1" parent="b3whuuxakCc62VugsMje-1">
          <mxGeometry x="500" y="660" width="470" height="230" as="geometry" />
        </mxCell>
      </root>
    </mxGraphModel>
  </diagram>
</mxfile>
